<?xml version="1.0" encoding="utf-8"?>
<!-- Generator: Adobe Illustrator 24.2.1, SVG Export Plug-In . SVG Version: 6.00 Build 0)  -->
<svg version="1.1" id="Layer_1" xmlns="http://www.w3.org/2000/svg" xmlns:xlink="http://www.w3.org/1999/xlink" x="0px" y="0px"
	 viewBox="0 0 272.7 87.4" style="enable-background:new 0 0 272.7 87.4;" xml:space="preserve">
<style type="text/css">
	.st0{fill:#ED2129;}
	.st1{fill:#000000;}
</style>
<path class="st0" d="M0,72h34.1c2.8,0,4.7,1.6,4.7,4.4s-1.9,4.4-4.7,4.4H0 M0,57.4h34.1c2.8,0,4.7,1.6,4.7,4.4s-1.9,4.4-4.7,4.4H0
	 M272.7,66.2h-34.1c-2.8,0-4.7-1.6-4.7-4.4c0-2.8,1.9-4.4,4.7-4.4h34.1 M272.7,80.8h-34.1c-2.8,0-4.7-1.6-4.7-4.4s1.9-4.4,4.7-4.4
	h34.1"/>
<path class="st1" d="M190.6,78.5H181v-7.3h8.5c2.9,0,4.5-2.1,4.5-4.2c0-2-1.4-4.2-4.5-4.2H181v-7h9.1c2.9,0,4.4-2.1,4.4-4.2
	c0-2-1.4-4.2-4.4-4.2h-13.5c-2.9,0-4.7,2-4.7,5.2v30c0,2.7,2,4.6,4.7,4.6h14.1c2.9,0,4.4-2.1,4.4-4.2
	C195,80.7,193.6,78.5,190.6,78.5 M84.9,47c-1,0-2,0.3-2.6,0.8l-0.1,0.1c-0.2,0.1-0.4,0.3-0.5,0.4c-0.4,0.3-0.6,0.6-0.9,0.9L70.2,63
	l-9.7-12.6l-0.9-1.1c-0.2-0.3-0.5-0.6-0.7-0.8c-0.8-0.9-2-1.4-3.4-1.4c-2.7,0-4.6,1.9-4.6,4.7v31c0,2.8,1.8,4.7,4.6,4.7
	c2.7,0,4.6-1.9,4.6-4.7v-19l6.4,8c0.5,0.7,1.2,1.3,1.9,1.7l0.2-0.4l-0.1,0.5c0.2,0.1,0.4,0.1,0.5,0.2c0.1,0,0.2,0.1,0.3,0.1
	c0.1,0,0.3,0,0.5,0.1h0.1c0.1,0,0.2,0,0.3,0c0.1,0,0.2,0,0.3,0h0.1c0.1,0,0.3,0,0.5-0.1c0.1,0,0.2-0.1,0.3-0.1
	c0.2-0.1,0.4-0.1,0.5-0.2l0.1-0.1c0.7-0.4,1.4-0.9,1.9-1.7l6.4-8.1v19c0,2.8,1.8,4.7,4.6,4.7s4.6-1.9,4.6-4.7v-31
	C89.5,48.9,87.7,47,84.9,47 M223,46.9c-1.6,0-3,0.7-3.8,1.8l-7.5,10.8l-7.5-10.8c-0.8-1.2-2.2-1.8-3.8-1.8c-2.5,0-4.4,2-4.4,4.5
	c0,1,0.3,1.9,0.9,2.7l10.2,14.4v14.4c0,2.1,1.2,4.5,4.6,4.5s4.6-2.4,4.6-4.5V68.5l10.2-14.4c0.5-0.8,0.9-1.8,0.9-2.7
	C227.4,48.8,225.4,46.9,223,46.9 M162.8,46.9c-2.7,0-4.6,1.9-4.6,4.7v19.3l-16.5-22.1c-0.8-1.1-2.7-2-3.8-2c-2.7,0-4.6,1.9-4.6,4.7
	v31c0,2.8,1.8,4.7,4.6,4.7s4.6-1.9,4.6-4.7v-19L159,85.3c0.8,1.1,2.6,2,3.8,2c2.7,0,4.6-1.9,4.6-4.7v-31
	C167.4,48.8,165.5,46.9,162.8,46.9 M121.1,67.2c0,5.6-2.6,12.1-9.8,12.1s-9.8-6.5-9.8-12.1c0-6,3-12.1,9.8-12.1
	C118,55.2,121.1,61.2,121.1,67.2 M111.3,46.7c-11.1,0-19.2,8.7-19.2,20.6s8.1,20.6,19.2,20.6s19.2-8.6,19.2-20.6
	C130.5,55.5,122.3,46.7,111.3,46.7 M117.2,27.2c0-1.5,0.4-2.8,1.3-3.7c0.9-1,2.2-1.5,3.7-1.5l0,0c3,0,5,2.1,5,5.1
	c0,1.5-0.4,2.8-1.3,3.7c-0.9,1-2.2,1.5-3.7,1.5C119.2,32.3,117.2,30.3,117.2,27.2 M122.2,7.7L122.2,7.7c1.2,0,2.2,0.4,2.9,1
	c0.7,0.7,1,1.6,1,2.8s-0.4,2.1-1,2.8c-0.7,0.7-1.7,1.1-2.9,1.1c-2.4,0-3.9-1.5-3.9-3.9C118.3,9.2,119.8,7.7,122.2,7.7 M132,36.8
	c2.8-2.3,4.3-5.5,4.3-9.1c0-4-2-7.2-5.6-9.1l-0.4-0.2l0.3-0.2c2.5-1.7,3.9-4.5,3.9-7.5c0-3.1-1.4-5.8-3.9-7.7
	c-2.4-1.8-5.5-2.8-8.9-2.8c-3.5,0-6.7,1-9,2.9c-2.4,1.9-3.8,4.7-3.7,7.7c0,3,1.3,5.6,3.9,7.5l0.2,0.2l-0.3,0.1
	c-3.7,2.1-5.7,5.4-5.7,9.2c0,3.5,1.5,6.7,4.2,9c2.7,2.2,6.3,3.5,10.3,3.5v0.2v-0.2C125.7,40.2,129.3,39,132,36.8 M98.6,0.8H95
	c-1.5,0-2.7,0.7-3.4,2.2c-0.9,1.7-1.7,3.4-1.1,4.6c0.4,0.7,1.4,1.1,2.9,1.2h0.2V9v28.5c0,1.3,0.2,2.8,2.9,2.8h3.3
	c2.7,0,2.9-1.4,2.9-2.8V5C102.8,2.4,101.1,0.8,98.6,0.8 M83.5,40.1c1.1,0,1.9-0.2,2.3-0.7c0.5-0.5,0.6-1.3,0.6-2V4.9
	c0-2.4-1.7-4-4.1-4h-3.6c-1.5,0-2.7,0.7-3.5,2.2c-0.6,1.1-1.8,3.3-1.1,4.6c0.4,0.7,1.4,1.1,2.9,1.2h0.2v0.2v28.5c0,1,0,2.8,2.9,2.8
	v0.2v-0.2L83.5,40.1z M185.4,27.2c0-1.5,0.4-2.8,1.3-3.7c0.9-1,2.2-1.5,3.7-1.5l0,0c3,0,5,2.1,5,5.1c0,1.5-0.5,2.8-1.3,3.7
	c-0.9,1-2.2,1.5-3.7,1.5C187.4,32.3,185.4,30.3,185.4,27.2 M190.4,7.7L190.4,7.7c1.2,0,2.2,0.4,2.9,1c0.7,0.7,1,1.6,1,2.8
	s-0.4,2.1-1,2.8c-0.7,0.7-1.7,1.1-2.9,1.1c-2.4,0-3.9-1.5-3.9-3.9C186.5,9.2,188,7.7,190.4,7.7 M200.1,36.8c2.8-2.3,4.3-5.5,4.3-9.1
	c0-4-2-7.2-5.6-9.1l-0.4-0.2l0.3-0.2c2.5-1.7,3.9-4.5,3.9-7.5c0-3.1-1.4-5.8-3.9-7.7c-2.4-1.8-5.5-2.8-8.9-2.8c-3.5,0-6.7,1-9,2.9
	c-2.4,1.9-3.8,4.7-3.7,7.7c0,3,1.3,5.6,3.9,7.5l0.2,0.2l-0.3,0.1c-3.7,2.1-5.7,5.4-5.7,9.2c0,3.5,1.5,6.7,4.2,9
	c2.7,2.2,6.3,3.5,10.3,3.5v0.2v-0.2C193.8,40.2,197.5,39,200.1,36.8 M166.8,0.8h-3.6c-1.5,0-2.7,0.7-3.4,2.2
	c-0.9,1.7-1.7,3.4-1.1,4.6c0.4,0.7,1.4,1.1,2.9,1.2h0.2V9v28.5c0,1.3,0.2,2.8,2.9,2.8h3.3c2.7,0,2.9-1.4,2.9-2.8V5
	C170.9,2.4,169.3,0.8,166.8,0.8 M151.7,40.1c1.1,0,1.9-0.2,2.3-0.7c0.5-0.5,0.6-1.3,0.6-2V4.9c0-2.4-1.7-4-4.1-4h-3.6
	c-1.5,0-2.7,0.7-3.5,2.2c-0.6,1.1-1.8,3.3-1.1,4.6c0.4,0.7,1.4,1.1,2.9,1.2h0.2v0.2v28.5c0,1,0,2.8,2.9,2.8v0.2v-0.2L151.7,40.1z"/>
</svg>
