<?xml version="1.0" encoding="utf-8"?>
<!-- Generator: Adobe Illustrator 21.1.0, SVG Export Plug-In . SVG Version: 6.00 Build 0)  -->
<svg version="1.1"
	 id="Layer_1" inkscape:output_extension="org.inkscape.output.svg.inkscape" inkscape:version="0.46" sodipodi:docname="notice_of_meeting_2006.svg" sodipodi:version="0.32" xmlns:cc="http://creativecommons.org/ns#" xmlns:dc="http://purl.org/dc/elements/1.1/" xmlns:inkscape="http://www.inkscape.org/namespaces/inkscape" xmlns:rdf="http://www.w3.org/1999/02/22-rdf-syntax-ns#" xmlns:sodipodi="http://sodipodi.sourceforge.net/DTD/sodipodi-0.dtd" xmlns:svg="http://www.w3.org/2000/svg"
	 xmlns="http://www.w3.org/2000/svg" xmlns:xlink="http://www.w3.org/1999/xlink" x="0px" y="0px" viewBox="0 0 390.5 65.9"
	 style="enable-background:new 0 0 390.5 65.9;" xml:space="preserve">
<style type="text/css">
	.st0{fill:#00AEEF;}
	.st1{fill:#00AFE9;}
</style>
<path id="path21" class="st0" d="M388.5,19c-2.1-3.8-6.6-6.6-11.5-6.6c-4.3,0-8.1,1.8-8.1,6.3c0,3.8,4.8,6.4,9.7,9.6
	c5.4,3.4,11,7.6,11,14.8c0,9.4-9.2,15.2-19.8,15.2c-4.4,0-8.9-0.8-14.1-2.8l0.8-12.6c2.5,5,7.1,9,13.9,9c5.3,0,9.2-2.5,9.2-7
	c0-3.8-3.2-6.1-7.1-8.5c-8.2-4.9-13.4-8.9-13.4-16.1c0-10.8,9-14.3,18.3-14.3c5.4,0,8.8,1,12.2,1L388.5,19 M343,30.2
	c-1.2,2-2.7,4.6-3.6,6.6c-0.8,3.7-1.2,8.7-1.2,14.1c0,2.3,0.4,5.3,1.4,6.4h-13.6c2.4-2.3,3.4-16.3,3.3-20.7
	c-1.8-6.3-4.3-12.4-8.1-19.7c-2.4-4.6-5.2-9-7-9.8c3.1-0.3,7-0.5,8.9-0.5c3.4,0,4.3,0.5,6.4,5c3.3,7.4,5.7,12.9,7.1,17
	c3.5-5.4,5.9-9.1,9-14.2c0.8-1.2,1.4-2.8,1.4-4.3c0-1.2-0.2-2.5-0.7-3.1h13.5C357.2,7.6,345.5,26.1,343,30.2 M295.6,18.8l-8.1,17.5
	h13.2L295.6,18.8 M311.5,57.8c-4.3,0-4.6-0.1-8.1-12l-1.2-4.4c-2.1,1-5.8,1.4-11.7,1.4h-6l-1,2.2c-1.5,3.3-3.5,7.2-3.5,10
	c0,0.7,0.1,1.4,0.3,2.3h-35.6c2-2.3,2.7-9.6,3.6-23l0.2-3.2c0.5-7.6,0.9-13.5,0.8-17.6c-0.1-3.4-0.4-5.5-1.3-6.5h13.7
	c-2,1.5-2.7,9.6-3.6,22.9l-0.3,3.2c-0.3,5-1,10-1,15c0,2.3,0.9,2.8,3.3,2.8c8.3,0,10.4-0.2,14.2-2.7c2.3-4.3,5-9.7,7.6-15.3l3.5-7.5
	c3.3-7,6.6-14.2,6.6-15.6c0-1-0.3-1.9-0.6-2.8h10.9c0,0,4.4,16.4,5.4,19.9l2.1,7.9c3.7,13.4,6.1,19.9,9.2,22.4
	C316.5,57.7,312.8,57.8,311.5,57.8 M222.8,58.3c-13,0-20.5-10.7-20.5-22.7c0-16.7,9.1-29.6,26.3-29.6c5.4,0,7.9,1,12.3,1l-1.3,12.8
	c-2.5-4.5-6.5-7.6-11.9-7.6c-10.7,0-15.1,11.6-15.1,21.6c0,10.8,6.1,16.7,14.1,16.7c4.4,0,8.2-1.2,14.7-5.7
	C238.8,53.3,232.8,58.3,222.8,58.3 M177.9,13.2c-1.2,0-2.7,0-3.9,0.1c-0.4,2.1-0.7,5.9-1.2,11.9l-0.3,3.5c0.7,0.1,1.5,0.2,2.3,0.2
	c6.2,0,10.6-3.8,10.6-9.5C185.4,15.4,182.6,13.2,177.9,13.2 M196.1,59.5c-3.7,0-4.6-0.6-5.9-2.3l-14.1-19.5c-1.1-1.5-2-2.7-3.7-2.7
	h-0.3l-0.3,3.8c-0.3,5.1-0.5,9.3-0.5,12.3c0.1,3.4,0.5,5.5,1.4,6.3h-13.6c2-1.8,2.7-7.6,3.8-23l0.2-3.2c0.5-7.6,0.9-13.4,0.8-17.5
	c-0.1-3.6-0.5-5.8-1.4-6.6c7.8,0,18.6,0,18.6,0c6.1,0,14.4,1,14.4,10.9c0,8.1-5.4,12.5-12.1,14.6c0.7,0.6,1.8,2.1,2.5,3l10.2,13.5
	c6.4,8.4,6.9,8.8,9.2,10C202.4,59.3,198.5,59.5,196.1,59.5 M132.6,18.8l-8.1,17.5h13.2L132.6,18.8 M148.4,57.8
	c-4.3,0-4.6-0.1-8.1-12l-1.2-4.4c-2.1,1-5.8,1.4-11.7,1.4h-6l-1,2.2c-1,2.3-3.6,7.2-3.5,10c0,0.7,0.1,1.3,0.3,2.3h-12
	c3.5-3.5,7.8-11.5,13.9-24.4l3.5-7.5c3.2-6.8,6.6-14.5,6.6-15.6c0-1-0.3-1.9-0.7-2.8h10.9c0,0,2.9,10.9,5.4,19.9l2.1,7.9
	c3.7,13.4,6.1,19.9,9.2,22.4C153.3,57.7,149.8,57.8,148.4,57.8 M86.4,13.1c-1,0-2.3,0-3.5,0.1c-0.5,3.5-0.8,6.9-1.1,10.6
	c0,0-0.2,3.2-0.2,3.1h1.3c6.4,0,12.2-2.2,12.2-8.1C95.2,15.4,92.4,13.1,86.4,13.1 M84.8,33h-3.6l-0.5,7.4c-0.3,3.3-0.4,6-0.5,9.2
	c0,0.5,1.4,1.4,4.8,1.4c7,0,11.7-3.5,11.7-9.3C96.7,35.4,91.5,33,84.8,33 M85.6,57.3H68c2.2-2,2.8-9.6,3.8-23l0.2-3.1
	c0.5-7.6,0.9-13.5,0.8-17.6c-0.1-3.5-0.5-5.8-1.4-6.6h19.7c4.7,0,14.1,0.3,14.1,10c0,6.5-6.1,10.6-11.6,12
	c7.8,0.8,13.7,4.6,13.7,12.6C107.2,50.4,99,57.3,85.6,57.3"/>
<path id="path4050" class="st1" d="M28.4,0c-1.7,0-2.1,0.3-2.7,0.9c-0.2,0-0.5,0-0.7,0c-1.3,0-3.1,0.2-4.5,1.2
	c-1.4,0.9-2.1,2.6-1.3,3.8c0,0,0.5-0.7,2.2-0.7c0.2,0,0.5,0,0.8,0c2.3,0.3,4,1.5,3.8,4.7c-0.2,3.2-1.4,6.8-6.3,6.8
	c0,0-0.6,0-1.3-0.1c-2.3-0.2-3-1.7-3-1.7s2-0.5,2-3c0-1.7-1.5-3.3-3.6-3.9c-0.7-0.2-1.5-0.3-2.3-0.3c-2.5,0-5.4,1.1-7.3,3.6
	C-0.2,17-0.6,25.3,0.5,33.1c1.1,7.8,6,15,6.1,15.2c0.1,0.1,0.2,0.2,0.3,0.2c0.1,0,0.1,0,0.2-0.1c2.1-2.1,4.2-4.9,5-6.8
	c0.9,0.7,0.4,2.3-0.1,4c-0.5,1.7-1.7,4-2.1,4.7c-0.4,0.7-1,1.6-0.2,2c0.1,0,0.2,0.1,0.3,0.1c1,0,3.2-1.7,5.7-5
	c2.8-3.8,4.2-7.1,4.2-7.1c0.2,0,0.5,0.4,0.5,1.3c0,1-1,4.5-3,7.9c-1.9,3.3-3.7,5.4-4.1,5.9c-0.2,0.3,0,0.4,0.1,0.6
	c0.1,0.1,3.6,3.3,8.6,6c5.9,3.2,8.5,3.7,8.5,3.7s2.6-0.6,8.5-3.7c5-2.7,8.5-5.9,8.6-6.1c0.1-0.1,0.3-0.3,0.1-0.6
	c-0.3-0.5-2.1-2.5-4.1-5.9c-1.9-3.3-2.9-6.9-3-7.9c0-1,0.3-1.3,0.5-1.4c0,0,1.4,3.4,4.2,7.1c2.5,3.3,4.7,5,5.7,5
	c0.1,0,0.2,0,0.3-0.1c0.7-0.4,0.2-1.3-0.2-2c-0.4-0.7-1.6-3-2.1-4.7c-0.5-1.7-1-3.3,0-4c0.9,1.9,2.9,4.7,5,6.8
	c0.1,0.1,0.1,0.1,0.2,0.1c0.1,0,0.2-0.1,0.3-0.2c0.2-0.2,5.1-7.4,6.2-15.2c1.1-7.8,0.7-16.1-3.6-21.8c-1.9-2.5-4.8-3.6-7.3-3.6
	c-0.8,0-1.6,0.1-2.2,0.3c-2.2,0.6-3.6,2.2-3.6,3.9c0,2.5,2,3,2,3s-0.7,1.4-3,1.7c-0.4,0.1-0.9,0.1-1.3,0.1c-1.8,0-3.3-0.6-4.7-2.5
	c-1.3-1.9-1.3-5.7-1.4-7c-0.1-1.3-0.3-4.2-1.7-5.4c-1.4-1.2-3-1.6-5.1-1.7C28.7,0,28.5,0,28.4,0"/>
</svg>
