<svg width="101" height="18" viewBox="0 0 101 18" fill="none" xmlns="http://www.w3.org/2000/svg">
<g clip-path="url(#clip0_4999_1431)">
<path d="M55.1197 8.36919C55.0559 7.50933 54.7634 6.75125 54.2503 6.11461C53.7473 5.49137 53.0353 5.00831 52.1352 4.68061C51.2584 4.36185 49.8883 4.19934 48.6551 4.19934C47.4989 4.19934 46.4828 4.36631 45.6366 4.6949C44.7663 5.03242 44.0851 5.52619 43.611 6.16194C43.1253 6.81286 42.8783 7.59415 42.8783 8.48348V8.49598C42.8783 9.22638 43.0449 9.74872 43.3748 10.2889C43.7005 10.8229 44.1854 11.2604 44.8161 11.5881C45.4219 11.9042 46.1886 12.1283 47.0936 12.2542L50.2447 12.6185C51.2153 12.7489 51.657 12.9533 51.8568 13.1016C52.0971 13.2801 52.209 13.6516 52.209 14.0088V14.0213C52.209 14.3266 52.1178 14.5704 51.9222 14.7874C51.7092 15.024 51.3744 15.2106 50.9268 15.3419C50.4478 15.482 49.851 15.5535 49.1515 15.5535C47.9788 15.5535 47.3704 15.3954 46.7513 15.0847C46.1819 14.799 45.8512 14.4016 45.7394 13.8713L45.6755 13.5828H42.4896L42.5369 14.0079C42.6396 14.9061 42.9728 15.4642 43.5265 16.1008C44.0693 16.725 44.8235 17.2045 45.7692 17.5259C46.5764 17.8009 47.5395 17.9572 48.6377 17.9911C48.7918 17.9956 48.9493 17.9982 49.1084 17.9982C49.2585 17.9982 49.7077 17.9956 49.8527 17.9902C50.8887 17.9536 51.8012 17.7884 52.5712 17.4973C53.4729 17.1562 54.1824 16.6526 54.678 16.0026C55.1869 15.3347 55.4446 14.7615 55.4446 13.8623V13.8498C55.4446 12.7221 55.0974 11.9729 54.4111 11.3479C53.758 10.7523 52.6947 10.3479 51.2517 10.1443L47.876 9.76747C47.3696 9.70676 46.9585 9.61032 46.6535 9.48175C46.3809 9.36656 46.1853 9.22638 46.0709 9.06476C45.9631 8.91297 45.9134 8.60135 45.9134 8.38526V8.37276C45.9134 8.07275 45.9988 7.69862 46.1819 7.48968C46.3817 7.2611 46.6933 7.07984 47.1094 6.94948C47.5544 6.81018 48.0144 6.73965 48.6766 6.73965C49.7102 6.73965 50.5356 6.90394 51.1307 7.22806C51.681 7.52718 51.9703 8.03882 52.0399 8.54241L52.083 8.83439H55.1512L55.1197 8.3674V8.36919Z" fill="white"/>
<path d="M69.2906 8.36919C69.2268 7.50933 68.9342 6.75125 68.4212 6.11461C67.9181 5.49137 67.2061 5.00831 66.3061 4.68061C65.4292 4.36185 64.0592 4.19934 62.8259 4.19934C61.6697 4.19934 60.6536 4.36631 59.8074 4.6949C58.9372 5.03242 58.2559 5.52619 57.7818 6.16194C57.2962 6.81286 57.0492 7.59415 57.0492 8.48348V8.49598C57.0492 9.22638 57.2158 9.74872 57.5456 10.2889C57.8713 10.8229 58.3562 11.2604 58.9869 11.5881C59.5928 11.9042 60.3594 12.1283 61.2645 12.2542L64.4156 12.6185C65.3861 12.7489 65.8278 12.9533 66.0276 13.1016C66.2679 13.2801 66.3798 13.6516 66.3798 14.0088V14.0213C66.3798 14.3266 66.2887 14.5704 66.0931 14.7874C65.8801 15.024 65.5452 15.2106 65.0977 15.3419C64.6186 15.482 64.0219 15.5535 63.3224 15.5535C62.1496 15.5535 61.5413 15.3954 60.9222 15.0847C60.3528 14.799 60.0221 14.4016 59.9102 13.8713L59.8464 13.5828H56.6605L56.7077 14.0079C56.8105 14.9061 57.1437 15.4642 57.6973 16.1008C58.2402 16.725 58.9944 17.2045 59.94 17.5259C60.7473 17.8009 61.7104 17.9572 62.8085 17.9911C62.9627 17.9956 63.1201 17.9982 63.2793 17.9982C63.4293 17.9982 63.8785 17.9956 64.0235 17.9902C65.0595 17.9536 65.9721 17.7884 66.742 17.4973C67.6438 17.1562 68.3532 16.6526 68.8488 16.0026C69.3577 15.3347 69.6155 14.7615 69.6155 13.8623V13.8498C69.6155 12.7221 69.2682 11.9729 68.582 11.3479C67.9289 10.7523 66.8655 10.3479 65.4226 10.1443L62.0468 9.76747C61.5404 9.70676 61.1294 9.61032 60.8244 9.48175C60.5517 9.36656 60.3561 9.22638 60.2417 9.06476C60.134 8.91297 60.0842 8.60135 60.0842 8.38526V8.37276C60.0842 8.07275 60.1696 7.69862 60.3528 7.48968C60.5525 7.2611 60.8641 7.07984 61.2802 6.94948C61.7253 6.81018 62.1853 6.73965 62.8475 6.73965C63.881 6.73965 64.7065 6.90394 65.3016 7.22806C65.8519 7.52718 66.1411 8.03882 66.2108 8.54241L66.2539 8.83439H69.3221L69.2906 8.3674V8.36919Z" fill="white"/>
<path d="M14.8134 11.1577V11.155V10.9872V10.7675H14.806C14.7347 8.93258 14.1529 7.36108 13.116 6.21013C11.9068 4.86899 10.0064 4.16003 7.81004 4.16003C5.90296 4.16003 4.27602 5.01721 3.46794 5.97976V0H0.5V17.6518H3.46628V16.3901C4.5371 17.4375 6.1342 17.9679 7.90866 17.9679C9.81823 17.9679 11.8985 17.4687 13.1152 16.107C14.1504 14.949 14.7322 13.3882 14.8043 11.5818H14.8109L14.8126 11.3604V11.1827V11.1711V11.1613V11.1586L14.8134 11.1577ZM7.60781 15.4704C6.73674 15.4704 6.08281 15.2972 5.40154 14.94C4.10446 14.2614 3.46711 12.7756 3.46711 11.1559C3.46711 9.20046 4.50146 7.32626 6.20382 6.90391C6.66795 6.78873 7.07406 6.73069 7.60781 6.73069C8.85682 6.73069 9.90857 7.13517 10.6495 7.90039C11.3871 8.66204 11.7792 9.89067 11.7825 11.1747C11.7759 13.7435 10.0984 15.4704 7.60781 15.4704Z" fill="white"/>
<path d="M85.2567 11.1684V11.1648V10.997V10.7773H85.2467C85.1613 9.03617 84.5447 7.44591 83.5004 6.28067C82.2423 4.87703 80.2242 4.13593 78.0452 4.13593C75.8663 4.13593 73.9543 4.87435 72.7003 6.27264C71.6502 7.44323 71.0303 9.03617 70.9441 10.7773H70.9358L70.9333 10.9988V11.1791V11.1898V11.1979V11.2006V11.2032V11.3711V11.5908H70.9441C71.0319 13.306 71.6527 14.6588 72.702 15.8213C73.7819 17.016 75.3773 17.733 77.1609 17.9232C77.1808 17.925 77.1999 17.9286 77.2198 17.9304C77.3275 17.9411 77.4361 17.9491 77.5455 17.9563C77.5737 17.958 77.601 17.9607 77.6292 17.9625C77.7668 17.9696 77.9052 17.9741 78.0452 17.9759C78.0452 17.9759 78.0452 17.9759 78.0461 17.9759C78.0461 17.9759 78.0461 17.9759 78.0469 17.9759C78.0626 17.9759 78.0776 17.975 78.0933 17.9741C78.2168 17.9723 78.4389 17.9688 78.5599 17.9625C78.6088 17.9598 78.6552 17.9554 78.7033 17.9518C78.792 17.9455 78.8798 17.9402 78.9669 17.9313C79.0033 17.9277 79.0381 17.9223 79.0738 17.9188C79.1741 17.9071 79.2735 17.8955 79.3713 17.8813C79.3813 17.8795 79.3912 17.8777 79.4012 17.8759C81.0223 17.6303 82.4851 16.9321 83.4888 15.8213C84.582 14.6106 85.2094 13.1748 85.255 11.3765L85.2583 11.2095V11.2059V11.2023V11.1809V11.1729V11.1693L85.2567 11.1684ZM82.3011 11.6845V11.6872L82.3003 11.6934C82.0881 13.9194 80.3783 15.4401 78.0452 15.4785C75.7088 15.4401 74.0977 13.9177 73.8855 11.6899C73.8266 11.18 73.8474 10.3416 74.0297 9.69424V9.68977L74.0322 9.68531L74.0421 9.6487C74.4996 7.84147 75.8937 6.67534 78.0428 6.67534C80.1918 6.67534 81.7094 7.85843 82.1553 9.69245V9.69692L82.1578 9.70138C82.3393 10.3434 82.3592 11.18 82.3011 11.6854V11.6845Z" fill="white"/>
<path d="M99.1407 5.74584C98.239 4.74936 96.6709 4.24487 95.0755 4.24487C93.9997 4.24487 92.9023 4.34398 91.4304 5.16545C90.9422 5.43779 90.4234 5.89853 90.0736 6.30212V4.49221H87.0659V17.6688H90.0736V10.8577C90.0736 10.1139 90.2203 9.36298 90.5096 8.8201C90.7972 8.28079 91.3865 7.73165 91.9103 7.43967C92.8791 6.89947 93.7933 6.77 94.5086 6.77C95.5064 6.77 96.1595 7.05216 96.6494 7.60933C97.1417 8.17007 97.4923 9.021 97.4923 10.138V17.6679H100.5V9.88087C100.5 8.13346 100.042 6.74232 99.1407 5.74584Z" fill="white"/>
<path d="M40.285 15.1302C39.4139 15.3749 38.6746 15.3892 38.4948 15.3892H38.3895C36.8745 15.3892 36.8811 14.7391 36.8811 14.1721V7.16821H40.8444V4.5029H36.8811V0H33.9148V4.50379H30.7339V7.16911H33.9148V14.4418C33.9148 15.649 34.3077 16.3696 35.0826 17.0187C35.841 17.6544 36.9342 17.9768 38.3332 17.9768C38.3357 17.9768 38.3398 17.9768 38.3456 17.9768C38.5255 17.9741 40.6041 17.9321 41.6534 17.3919L41.8979 17.258L40.5569 15.0561L40.2867 15.132L40.285 15.1302Z" fill="white"/>
<path d="M19.5658 11.606H30.3775V11.3738C30.3759 11.2908 30.375 11.2131 30.3734 11.1693C30.3278 9.54067 30.0352 7.72541 28.6155 6.20569C27.3855 4.88866 25.2555 4.13416 23.2971 4.13416C22.0398 4.13416 20.9151 4.37881 19.9553 4.86276C19.5849 5.04938 19.2318 5.27707 18.9061 5.54048C18.7801 5.64227 18.6674 5.74049 18.5629 5.8387C18.2977 6.08961 18.0507 6.37355 17.8278 6.6816C17.7731 6.7575 17.72 6.83429 17.6703 6.91108C17.459 7.23342 17.2742 7.57718 17.1225 7.93167C16.7578 8.77992 16.5431 9.75944 16.4959 10.7756H16.4884L16.486 10.997V11.1774V11.1881V11.1961V11.1988V11.2015V11.3693V11.589H16.4959C16.4967 11.6077 16.4984 11.6256 16.4992 11.6443L16.505 11.7408C16.5075 11.7854 16.51 11.831 16.5133 11.8756C16.5166 11.9194 16.5216 11.964 16.5257 12.0078L16.5357 12.106C16.539 12.139 16.5423 12.1729 16.5465 12.2069C16.5531 12.2596 16.5606 12.3122 16.568 12.3649L16.5804 12.4524C16.5838 12.4792 16.5879 12.5078 16.592 12.5355C16.6028 12.6015 16.6144 12.6667 16.6269 12.7319L16.6385 12.7953C16.6418 12.8158 16.6459 12.8382 16.6501 12.8605C16.6666 12.9435 16.6857 13.0266 16.7031 13.0989L16.7097 13.1275C16.7139 13.1453 16.7172 13.1641 16.7222 13.1819C16.7429 13.2676 16.7669 13.3534 16.7893 13.4337L16.7951 13.456C16.7984 13.4685 16.8026 13.4837 16.8067 13.498C16.8349 13.5953 16.8647 13.6891 16.8879 13.7587L16.902 13.8043C16.931 13.8909 16.9634 13.9793 17.0015 14.0793L17.0123 14.1097C17.0479 14.2025 17.0852 14.2927 17.1308 14.3972L17.1349 14.4079C17.1772 14.5025 17.2211 14.5972 17.2684 14.6927L17.2717 14.6999C18.3964 16.9571 20.5678 17.9777 23.3882 17.9777C26.2086 17.9777 28.6768 17.0509 30.0667 14.8802L30.2101 14.6561L28.027 13.1739L27.8837 13.34C26.7648 14.6329 25.8473 15.4803 23.3882 15.4803C23.3758 15.4803 23.3634 15.4803 23.3509 15.4803H23.3426L23.302 15.4794C22.2892 15.4633 21.6933 15.1624 21.0071 14.6097C20.9565 14.5686 20.9118 14.5311 20.8662 14.49C20.8189 14.4481 20.7767 14.4079 20.7327 14.365C20.6896 14.3231 20.6515 14.2829 20.6151 14.2427L20.6084 14.2355C20.5653 14.1882 20.5297 14.148 20.4957 14.107L20.4874 14.0971C20.446 14.0471 20.4145 14.007 20.3813 13.9632L20.3739 13.9534C20.3416 13.9096 20.3109 13.8677 20.281 13.8248L20.2661 13.8025C20.2371 13.7596 20.2098 13.7177 20.1824 13.6739L20.1658 13.6453C20.1393 13.6025 20.1145 13.5605 20.0904 13.5177L20.0722 13.4828C20.049 13.44 20.0266 13.3989 20.0051 13.356L19.9843 13.3132C19.9636 13.2712 19.9446 13.231 19.9255 13.19L19.9006 13.1328L19.8965 13.123C19.8816 13.0891 19.8666 13.0542 19.8526 13.0194L19.8244 12.9453C19.8111 12.9105 19.7987 12.8774 19.7863 12.8435C19.7821 12.831 19.7788 12.8203 19.7746 12.8087L19.7564 12.7524L19.7548 12.7471C19.7456 12.7185 19.7357 12.6908 19.7274 12.6623C19.7233 12.6498 19.7199 12.6373 19.7166 12.6256L19.715 12.6185L19.6967 12.5542L19.6943 12.5453C19.6876 12.523 19.6818 12.5006 19.6752 12.4783C19.671 12.4614 19.6669 12.4435 19.6628 12.4256L19.647 12.3578C19.6412 12.3337 19.6354 12.3113 19.6304 12.2881C19.6263 12.2685 19.6221 12.2488 19.6188 12.2283L19.6039 12.1533C19.5998 12.131 19.5956 12.1122 19.5923 12.0944C19.5873 12.0667 19.5832 12.039 19.5791 12.0113C19.5791 12.0113 19.5616 11.8711 19.5616 11.7158H19.5625V11.6086L19.5658 11.606ZM19.9396 8.80314C20.0266 8.60313 20.1302 8.41294 20.2462 8.23614C20.2769 8.18971 20.3109 8.1406 20.3474 8.0906C20.407 8.00935 20.4717 7.92988 20.5388 7.85398C20.6051 7.77898 20.6764 7.70665 20.7493 7.63879C20.7957 7.59593 20.8421 7.55486 20.8877 7.51736C20.9076 7.50039 20.9283 7.48432 20.9491 7.46825C21.1157 7.33699 21.2988 7.22092 21.4944 7.1227C21.5491 7.09502 21.6046 7.06823 21.6618 7.04323C22.2105 6.80125 22.5611 6.67803 23.2979 6.67803C24.7135 6.67803 25.8862 7.28163 26.5998 8.37901C26.7905 8.67188 26.962 9.16566 27.0822 9.52639C27.0946 9.56478 27.1079 9.60228 27.1187 9.63711H19.7175C19.7224 9.60496 19.7299 9.56657 19.7382 9.52639C19.7846 9.2987 19.8708 8.96118 19.9396 8.80314Z" fill="white"/>
</g>
<defs>
<clipPath id="clip0_4999_1431">
<rect width="100" height="18" fill="white" transform="translate(0.5)"/>
</clipPath>
</defs>
</svg>
