<svg width="113" height="31" viewBox="0 0 113 31" fill="none" xmlns="http://www.w3.org/2000/svg">
<path d="M46.6309 12.5898C46.4648 12.502 46.2891 12.4336 46.123 12.3652C46.9434 11.8965 47.5879 11.252 48.0859 10.4414C48.5938 9.5918 48.8672 8.58594 48.8672 7.44336C48.8672 6.05664 48.6035 4.9043 48.0566 3.97656C47.5195 3.05859 46.6895 2.375 45.5664 1.90625C44.4434 1.44727 42.998 1.21289 41.2305 1.21289H33.2422V24.1035H41.8457C44.3555 24.1035 46.2598 23.5664 47.5586 22.4824C48.8574 21.3984 49.5117 19.8066 49.5117 17.6973C49.5117 16.5352 49.2676 15.5098 48.7695 14.6309C48.2812 13.752 47.5684 13.0781 46.6504 12.5801H46.6406L46.6309 12.5898ZM37.6367 5.43164H41.3281C42.3145 5.43164 43.0566 5.66602 43.584 6.14453C44.0918 6.61328 44.3555 7.22852 44.3555 8C44.3555 8.83008 44.1016 9.44531 43.584 9.86523C43.0762 10.2754 42.3145 10.4902 41.3281 10.4902H37.6367V5.45117V5.43164ZM44.1602 19.1621C43.5938 19.6602 42.8125 19.9238 41.8262 19.9238H37.627V14.3477H41.8848C42.8711 14.3477 43.6328 14.582 44.1895 15.0605C44.7363 15.5293 45.0195 16.2227 45.0195 17.1504C45.0195 18 44.7363 18.6738 44.1602 19.1816V19.1621Z" fill="#330944"/>
<path d="M53.8086 0.5C52.998 0.5 52.3633 0.753906 51.875 1.26172C51.3965 1.75977 51.1523 2.42383 51.1523 3.23438C51.1523 3.99609 51.3965 4.62109 51.875 5.11914C52.3535 5.60742 52.998 5.86133 53.8086 5.86133C54.6191 5.86133 55.2539 5.61719 55.7422 5.11914C56.2207 4.63086 56.4648 3.99609 56.4648 3.23438C56.4648 2.42383 56.2305 1.7793 55.7422 1.26172C55.2637 0.753906 54.6191 0.5 53.8086 0.5Z" fill="#330944"/>
<path d="M56.0137 7.67773H51.6094V24.123H56.0137V7.67773Z" fill="#330944"/>
<path d="M99.9902 7.67773H95.5859V24.123H99.9902V7.67773Z" fill="#330944"/>
<path d="M97.8047 0.5C96.9941 0.5 96.3594 0.753906 95.8711 1.26172C95.3926 1.75977 95.1484 2.42383 95.1484 3.23438C95.1484 3.99609 95.3926 4.62109 95.8711 5.11914C96.3496 5.60742 96.9941 5.86133 97.8047 5.86133C98.6152 5.86133 99.25 5.61719 99.7383 5.11914C100.217 4.63086 100.461 3.99609 100.461 3.23438C100.461 2.42383 100.227 1.7793 99.7383 1.26172C99.2598 0.753906 98.6152 0.5 97.8047 0.5Z" fill="#330944"/>
<path d="M71.6875 8.41016C70.5547 7.67773 69.2363 7.31641 67.7422 7.31641C66.248 7.31641 65.0469 7.66797 63.9629 8.37109C63.7383 8.51758 63.5234 8.69336 63.2988 8.85938V7.67773H58.8945V30.5H63.2988V23.0391C63.4941 23.1953 63.6895 23.3516 63.8945 23.4883C64.9687 24.1719 66.2383 24.5137 67.6934 24.5137C69.1484 24.5137 70.5156 24.1523 71.6582 23.4199C72.8008 22.6875 73.6895 21.6719 74.3242 20.373C74.9688 19.0742 75.2812 17.5898 75.2812 15.9004C75.2812 14.2109 74.9688 12.6973 74.3242 11.4082C73.6797 10.1191 72.8008 9.11328 71.668 8.38086H71.6777L71.6875 8.41016ZM69.7441 19.1914C69.0117 20.0312 68.0938 20.4512 66.9707 20.4512C65.8477 20.4512 64.9199 20.0312 64.1875 19.1914C63.4453 18.3516 63.0742 17.2578 63.0742 15.9102C63.0742 14.5625 63.4453 13.4395 64.1875 12.5996C64.9297 11.7598 65.8477 11.3398 66.9707 11.3398C68.0938 11.3398 69.0215 11.7598 69.7441 12.6191C70.4766 13.4687 70.8379 14.5723 70.8379 15.9102C70.8379 17.248 70.4766 18.3418 69.7441 19.1914Z" fill="#330944"/>
<path d="M89.9687 8.41016C88.8359 7.67773 87.5176 7.31641 86.0234 7.31641C84.5293 7.31641 83.3281 7.66797 82.2441 8.37109C82.0195 8.51758 81.8047 8.69336 81.5801 8.85938V7.67773H77.1758V30.5H81.5801V23.0391C81.7754 23.1953 81.9707 23.3516 82.1758 23.4883C83.25 24.1719 84.5195 24.5137 85.9746 24.5137C87.4297 24.5137 88.7969 24.1523 89.9395 23.4199C91.082 22.6875 91.9707 21.6719 92.6055 20.373C93.25 19.0742 93.5625 17.5898 93.5625 15.9004C93.5625 14.2109 93.25 12.6973 92.6055 11.4082C91.9609 10.1191 91.082 9.11328 89.9492 8.38086H89.959L89.9687 8.41016ZM88.0254 19.1914C87.293 20.0312 86.375 20.4512 85.252 20.4512C84.1289 20.4512 83.2012 20.0312 82.4687 19.1914C81.7266 18.3516 81.3555 17.2578 81.3555 15.9102C81.3555 14.5625 81.7266 13.4395 82.4687 12.5996C83.2109 11.7598 84.1289 11.3398 85.252 11.3398C86.375 11.3398 87.3027 11.7598 88.0254 12.6191C88.7578 13.4687 89.1191 14.5723 89.1191 15.9102C89.1191 17.248 88.7578 18.3418 88.0254 19.1914Z" fill="#330944"/>
<path d="M112.898 11.75V7.67773H109.305V3.82031H104.832V7.67773H102.352V11.75H104.9V18.8398C104.9 20.793 105.389 22.209 106.355 23.0977C107.332 23.9863 108.66 24.4258 110.33 24.4258C110.867 24.4258 111.336 24.3965 111.736 24.3281C112.137 24.2598 112.527 24.1621 112.879 24.0254V19.9238C112.654 19.9922 112.4 20.0508 112.098 20.1094C111.805 20.168 111.482 20.1875 111.121 20.1875C110.584 20.1875 110.135 20.0313 109.793 19.709C109.451 19.3867 109.275 18.8594 109.275 18.1465V11.7598H112.889L112.898 11.75Z" fill="#330944"/>
<path d="M19.8926 8.65431H18.623C18.623 4.21095 15.0195 0.607437 10.5859 0.607437H8.04687C3.60352 0.607437 0 4.21095 0 8.65431C0 13.0977 3.60352 16.6914 8.04687 16.6914H9.31641C9.31641 21.1348 12.9102 24.7285 17.3535 24.7285H19.8926C24.3359 24.7285 27.9395 21.1348 27.9395 16.6914C27.9395 12.2481 24.3359 8.65431 19.8926 8.65431ZM15.6934 13.7617H8.04687C5.22461 13.7617 2.92969 11.4668 2.92969 8.65431C2.92969 5.84181 5.22461 3.53712 8.04687 3.53712H10.5859C13.3984 3.53712 15.6934 5.83205 15.6934 8.65431V13.7617Z" fill="#330944"/>
</svg>
