<svg width="900" height="164" viewBox="0 0 900 164" fill="none" xmlns="http://www.w3.org/2000/svg">
<path d="M61.5053 131.642H32.3009V96.0206H61.5053C75.8856 96.0206 84.5137 101.773 84.5137 113.942C84.5137 126.11 75.8856 131.642 61.5053 131.642ZM32.3009 31.8601H59.5118C74.5589 31.8601 82.7433 37.1709 82.9666 49.781C82.9666 61.7288 74.3359 67.4809 60.1786 67.4809H32.3009V31.8601ZM94.9121 81.1966C110.177 73.0099 115.265 61.7288 115.265 48.4544C115.044 20.7972 94.2477 3.32031 63.273 3.32031H0V160.402H63.7168C95.5764 160.402 116.815 143.143 116.815 115.268C116.815 101.329 111.063 89.3834 94.9121 81.1966ZM199.375 76.3298H174.376V31.8601H198.71C214.197 31.8601 223.933 39.1619 223.933 53.9857C223.933 69.028 214.42 76.3298 199.375 76.3298ZM256.234 54.2065C256.234 23.6757 232.782 3.32031 200.704 3.32031H142.072V160.4H174.376V104.649H200.704H201.145L227.694 160.4H263.315L232.561 96.6852C247.162 88.0548 256.234 73.0122 256.234 54.2065Z" fill="#161615"/>
<path d="M432.413 65.709H275.328V98.0075H432.413V65.709Z" fill="#7BDFA7"/>
<path d="M511.262 131.863H489.8V31.8603H511.262C540.466 31.8603 559.051 51.3306 559.051 81.8613C559.051 112.613 540.687 131.863 511.262 131.863ZM511.262 3.32049H457.502V160.402H511.262C558.607 160.402 591.352 128.101 591.352 81.8613C591.352 36.0652 558.387 3.32049 511.262 3.32049ZM679.685 95.7974H737.429C736.102 115.707 723.048 134.071 690.306 134.071C663.757 134.071 643.622 110.398 643.622 81.8584C643.622 53.3184 665.083 29.6456 691.633 29.6456C710.088 29.6456 724.178 38.3769 731.593 53.1987L761.092 41.3945C748.82 16.6735 722.573 0 691.633 0C647.384 0 611.324 37.6095 611.324 81.8584C611.324 126.105 646.057 163.717 690.306 163.717C744.509 163.717 769.953 125.443 769.953 85.8404V67.2551H679.685V95.7974ZM794.247 3.32049V160.401H900V131.86H826.547V95.8001H893.806V67.2585H826.547V31.8603H900V3.32049H794.247Z" fill="#161615"/>
</svg>
