<svg width="182" height="32" viewBox="0 0 182 32" fill="none" xmlns="http://www.w3.org/2000/svg">
<path d="M21.9085 24.2789C21.5251 25.8998 20.6885 27.5381 18.8758 29.1939C17.0806 30.8322 14.8322 31.9826 11.451 31.9826C9.20261 31.9826 7.23312 31.4946 5.52505 30.5185C3.81699 29.5425 2.45752 28.183 1.48148 26.4575C0.488017 24.7146 0 22.7277 0 20.4793C0 18.2309 0.488017 16.244 1.48148 14.5011C2.47495 12.7582 3.81699 11.3987 5.52505 10.4401C7.23312 9.46405 9.20261 8.97604 11.451 8.97604C14.4662 8.97604 16.6449 9.81264 18.5447 11.329C20.4793 12.8802 21.4902 14.6057 21.9259 16.6972H16.0174C15.2331 15.2854 13.4031 14.2397 11.3813 14.2397C7.82571 14.2397 5.33333 16.9237 5.33333 20.5142C5.33333 24.0697 7.84314 26.7538 11.3813 26.7538C13.8039 26.7538 15.3725 25.5163 16.0349 24.2789H21.9085ZM82.2658 31.512V18.2832C82.2658 15.8257 84.3224 14.5359 86.2571 14.5359C88.1394 14.5359 89.8475 15.7386 89.8475 18.2832V31.512H95.4423V16.6449C95.4423 12.3399 91.8344 8.97604 87.2854 8.97604C84.2876 8.97604 82.3181 10.6492 81.1852 12.3573H80.732C79.6514 10.4749 77.4553 8.97604 74.5795 8.97604C72 8.97604 70.3268 10.5272 69.5773 11.695H69.1242V9.51634H63.5468V31.512H69.1068V18.2832C69.1068 15.8257 71.1634 14.5359 73.098 14.5359C74.9804 14.5359 76.6885 15.7386 76.6885 18.2832V31.512H82.2658ZM33.0283 31.7037C36.2004 31.7037 38.3791 30.5708 39.5468 28.8976H40L40.0349 31.512H45.403V9.51634H39.9477V11.8693H39.4946C38.2048 10.3704 35.7647 9.32462 32.976 9.32462C27.3464 9.32462 22.8845 13.8562 22.8845 20.4967C22.8845 27.085 27.3987 31.7037 33.0283 31.7037ZM34.1438 26.8061C30.9194 26.8061 28.2876 24.366 28.2876 20.5316C28.2876 16.6972 30.8671 14.2571 34.1089 14.2571C37.2985 14.2571 39.9651 16.5229 39.9651 20.5316C39.9651 23.9477 37.6471 26.8061 34.1438 26.8061ZM133.246 31.9651C140.044 31.9651 144.854 26.9978 144.854 20.5142C144.854 14.0305 140.078 9.02832 133.246 9.02832C126.449 9.02832 121.603 13.9956 121.603 20.5142C121.586 26.9978 126.397 31.9651 133.246 31.9651ZM133.264 26.8758C129.673 26.8758 127.163 24.1743 127.163 20.5839C127.163 16.9586 129.691 14.2397 133.264 14.2397C136.854 14.2397 139.329 16.9412 139.329 20.5839C139.329 24.1743 136.837 26.8758 133.264 26.8758ZM108.81 31.9651C115.608 31.9651 120.418 26.9978 120.418 20.5142C120.418 14.0305 115.643 9.02832 108.81 9.02832C102.013 9.02832 97.1678 13.9956 97.1678 20.5142C97.1678 26.9978 101.978 31.9651 108.81 31.9651ZM108.845 26.8758C105.255 26.8758 102.745 24.1743 102.745 20.5839C102.745 16.9586 105.272 14.2397 108.845 14.2397C112.436 14.2397 114.911 16.9412 114.911 20.5839C114.911 24.1743 112.418 26.8758 108.845 26.8758ZM47.8606 31.4946H53.4379V17.8824C53.4379 15.9651 55.0065 14.3965 56.9237 14.3965H61.2288V9.51634H54.8322C50.9804 9.51634 47.8606 12.6362 47.8606 16.488V31.4946ZM146.928 24.5577C146.928 28.4096 150.048 31.5294 153.9 31.5294H158.222V26.6492H156.131C154.214 26.6492 152.645 25.0806 152.645 23.1634V0H146.928V24.5577ZM169.307 31.7037C172.479 31.7037 174.658 30.5708 175.826 28.8976H176.279L176.314 31.512H181.682V9.51634H176.227V11.8693H175.773C174.484 10.3704 172.044 9.32462 169.255 9.32462C163.625 9.32462 159.163 13.8562 159.163 20.4967C159.163 27.085 163.678 31.7037 169.307 31.7037ZM170.423 26.8061C167.198 26.8061 164.566 24.366 164.566 20.5316C164.566 16.6972 167.146 14.2571 170.388 14.2571C173.577 14.2571 176.244 16.5229 176.244 20.5316C176.244 23.9477 173.926 26.8061 170.423 26.8061Z" fill="#F90081"/>
</svg>
