<?xml version="1.0" encoding="UTF-8"?><svg id="guides" xmlns="http://www.w3.org/2000/svg" viewBox="0 0 288 148"><defs><style>.cls-1{fill:#d52027;}</style></defs><path class="cls-1" d="M25.03,98.65c-3.5,0-6.84-.48-9.7-1.59-3.02-.95-5.57-2.54-7.79-4.61-2.07-2.07-3.82-4.61-4.93-7.79-1.11-3.02-1.75-6.52-1.75-10.5s.64-7.16,1.75-10.18c1.11-3.02,2.7-5.73,4.93-7.79,1.91-2.23,4.45-3.98,7.48-5.09,3.02-1.11,6.36-1.75,10.02-1.75,2.07,0,3.82.16,5.41.32s3.02.48,4.45.95,2.7.8,3.82,1.27c1.11.48,2.23.95,3.02,1.43v11.45h-1.43c-.64-.48-1.27-1.11-2.23-1.75s-1.91-1.43-3.02-2.07c-1.11-.64-2.39-1.27-3.82-1.75s-2.86-.64-4.29-.64c-1.75,0-3.34.32-4.93.8-1.59.48-3.02,1.43-4.29,2.7-1.27,1.27-2.23,2.86-3.02,4.77-.8,2.07-1.11,4.45-1.11,7.32,0,3.02.48,5.41,1.27,7.48.8,2.07,1.91,3.5,3.18,4.77,1.27,1.11,2.7,2.07,4.29,2.54,1.59.48,3.18.8,4.77.8,1.43,0,3.02-.16,4.45-.64,1.43-.48,2.86-1.11,3.98-1.75,1.11-.64,2.07-1.27,2.86-1.91.95-.64,1.59-1.27,2.23-1.75h1.27v11.29c-1.11.48-2.39.95-3.34,1.43-1.11.48-2.23.8-3.34,1.27-1.59.48-3.02.8-4.29.95h-5.88ZM63.68,79.41l5.89-16.7,5.73,16.7h-11.61ZM76.72,50.46h-14l-17.65,47.24h12.41l3.34-9.54h17.34l3.34,9.54h12.72l-17.5-47.24ZM145.43,97.7h-14.16l-10.18-15.59-10.5,15.59h-13.52l16.86-23.86-16.38-23.38h14l9.86,14.63,10.18-14.63h13.52l-16.54,22.9,16.86,24.33ZM189.49,59.53h-14.79v38.17h-12.09v-38.17h-14.79v-9.07h41.67v9.07ZM218.91,88.79c-1.43.64-2.86.95-4.45.95s-3.02-.32-4.45-.95c-1.43-.64-2.7-1.43-3.66-2.7-1.11-1.27-1.91-2.86-2.54-4.77s-.95-4.29-.95-7.16c0-2.7.32-5.09.95-7.32.64-2.07,1.59-3.66,2.54-4.93,1.11-1.27,2.39-2.23,3.82-2.7,1.43-.48,2.86-.8,4.45-.8s3.02.32,4.45.8c1.43.64,2.7,1.43,3.82,2.7,1.11,1.27,1.91,2.86,2.54,4.77.64,1.91.95,4.45.95,7.16s-.32,4.93-.8,6.84c-.64,1.91-1.43,3.66-2.7,5.09-1.27,1.59-2.54,2.39-3.98,3.02ZM232.27,56.03c-4.29-4.45-10.34-6.68-17.97-6.68s-13.52,2.23-17.97,6.68c-4.29,4.45-6.52,10.5-6.52,17.97s2.23,13.52,6.52,17.97c4.29,4.45,10.34,6.68,17.97,6.68s13.68-2.23,17.97-6.68c4.29-4.45,6.52-10.5,6.52-17.97s-2.23-13.52-6.52-17.97ZM287.15,97.7h-11.77l-20.04-32.45v32.45h-11.29v-47.24h14.63l17.18,27.04v-27.04h11.29v47.24Z"/></svg>