<svg xmlns="http://www.w3.org/2000/svg" viewBox="0 0 273.00773 49.57328">
  <g id="bcda3e7a-36cc-4323-90d1-f326e02ba980" data-name="Layer 1">
    <path d="M116.67184.2516a3.63321,3.63321,0,0,0-1.749,1.82677c-.19433.54415-.2332.89395-.2332,3.809a20.26953,20.26953,0,0,0,.15546,3.809,3.63959,3.63959,0,0,0,1.59357,1.90451l.46641.27207,10.33874.03887,10.33873.03886L126.03889,25.16562c-6.33539,7.2682-11.66023,13.40925-11.81569,13.64246-.50528.81621-.54415,1.01055-.54415,4.703v3.45919l.31094.583a3.43266,3.43266,0,0,0,1.59356,1.5547c.46642.19434,1.24377.23321,18.9673.23321,17.84014,0,18.50089,0,18.96729-.23321a3.49085,3.49085,0,0,0,1.6713-1.6713c.27207-.583.27207-.66074.27207-4.08108v-3.4592l-.31093-.66074a3.18488,3.18488,0,0,0-1.51583-1.51583l-.46641-.27207-10.844-.03887-10.844-.03887,11.58248-13.25379c6.37425-7.30707,11.738-13.487,11.89343-13.75906.50527-.73848.583-1.51583.54414-4.85843-.03887-2.75958-.03887-3.07052-.27207-3.53693A3.57943,3.57943,0,0,0,153.79021.3682l-.54414-.31094L135.28933.0184C117.29372-.02047,117.216-.02047,116.67184.2516Zm-94.17575,0C12.39056,1.49536,4.26727,7.86962,1.27448,16.92572a24.6003,24.6003,0,0,0,8.39536,27.4404A26.915,26.915,0,0,0,37.46,46.81477c1.24376-.583,1.6713-.97169,1.98224-1.6713a2.80048,2.80048,0,0,0-.07773-1.94337,76.66063,76.66063,0,0,0-4.703-6.8018,2.43058,2.43058,0,0,0-.89395-.27207c-.54414-.03887-.69961,0-1.5547.4664a13.12644,13.12644,0,0,1-15.66356-2.17657A12.99511,12.99511,0,0,1,15.03354,16.848a14.13945,14.13945,0,0,1,7.42368-5.05276,9.05773,9.05773,0,0,1,3.30373-.31094,7.19263,7.19263,0,0,1,3.10939.3498,13.37006,13.37006,0,0,1,2.91506,1.36036,2.94987,2.94987,0,0,0,1.5547.583,1.80468,1.80468,0,0,0,1.477-.62187c.42754-.46641,4.54749-6.52973,4.66409-6.84067a3.24761,3.24761,0,0,0-.03887-1.82677c-.34981-.85508-1.36036-1.51583-4.00334-2.52638a29.07637,29.07637,0,0,0-5.36371-1.477A20.50145,20.50145,0,0,0,26.033.21274,24.22013,24.22013,0,0,0,22.49609.2516Zm164.3703,0a25.37971,25.37971,0,0,0-11.23268,3.88674A24.845,24.845,0,0,0,164.6731,21.04567a31.87807,31.87807,0,0,0,.07774,7.929,23.91508,23.91508,0,0,0,3.809,9.56139A24.40326,24.40326,0,0,0,184.923,49.14681a31.86171,31.86171,0,0,0,7.92895.07773,25.58192,25.58192,0,0,0,7.42368-2.40977,24.68555,24.68555,0,0,0,13.21492-18.42316,31.4319,31.4319,0,0,0,0-7.1516,24.27478,24.27478,0,0,0-6.99613-13.8368A24.25094,24.25094,0,0,0,192.73537.44594a27.05919,27.05919,0,0,0-5.869-.19434Zm5.05277,12.55418a12.58913,12.58913,0,0,1,9.13384,9.13384,13.015,13.015,0,0,1,.1166,5.20823,11.86753,11.86753,0,0,1-3.14825,6.06332,12.29341,12.29341,0,0,1-20.09446-13.64246A10.52242,10.52242,0,0,1,180.531,15.9929a11.93793,11.93793,0,0,1,6.10219-3.30373,15.06225,15.06225,0,0,1,5.286.11661ZM246.8.17387A24.17426,24.17426,0,0,0,240.62,1.41762a24.72128,24.72128,0,0,0-16.713,20.56087,35.14741,35.14741,0,0,0,.03886,6.06332,24.66781,24.66781,0,0,0,48.89521.07773A34.13249,34.13249,0,0,0,272.88,21.823a24.75759,24.75759,0,0,0-8.55083-15.85791,24.17318,24.17318,0,0,0-12.35983-5.558A34.59555,34.59555,0,0,0,246.8.17387Zm3.69241,12.47644a12.32489,12.32489,0,1,1-13.17607,17.49033,12.51753,12.51753,0,0,1-1.24376-6.06331,12.5364,12.5364,0,0,1,8.47309-10.96061,11.9263,11.9263,0,0,1,5.94674-.46641ZM66.88268.44594A10.17049,10.17049,0,0,0,60.625,4.64362a20.11689,20.11689,0,0,0-1.749,3.226c-.07774.2332-.85509,1.9045-1.71017,3.77013-.85508,1.82677-1.9045,4.12-2.332,5.09164-.42755.93281-.93282,2.06-1.12716,2.40977l-.3498.69962-.07773-.50528a1.93941,1.93941,0,0,0-1.51583-1.86563,25.35563,25.35563,0,0,0-6.06332.894c-.2332.15547-.42754.62187-.85508,1.82676-.46641,1.36036-.54414,1.6713-.46641,2.02111.19434.73848.42755.81621,3.61467,1.20489l2.91506.3498-.23321.23321a4.06731,4.06731,0,0,0-.46641.73848c-.583,1.12716-.583,1.32149-.583,12.0489,0,11.11608-.03887,10.6108.77735,11.54362a4.22864,4.22864,0,0,0,1.01056.81622l.583.31094,3.45919.03887c3.84788.03887,4.27542,0,5.16937-.69961a3.68062,3.68062,0,0,0,.85508-1.01056l.34981-.62188.03887-4.04221c.03887-3.92561.03887-4.04221.27207-4.23655s1.04942-.19433,13.60359-.19433c11.6991,0,13.40926.03886,13.6036.15547.23321.15547.23321.2332.27207,4.19768.03887,3.92561.03887,4.00334.31094,4.54748a3.68285,3.68285,0,0,0,1.63243,1.63243c.50528.23321.73848.23321,3.96448.27208,4.00334.03886,4.31428,0,5.2471-.85509,1.01055-.93281,1.01055-.93281,1.12715-6.06332.03887-2.44864.03887-7.19047-.03887-10.53306-.1166-6.64633-.1166-6.6852-.81622-7.73462-.19433-.27207-.31093-.50528-.27207-.54415s1.32149-.19433,2.87618-.38867a26.59219,26.59219,0,0,0,3.03166-.46641,1.17934,1.17934,0,0,0,.46641-.97168,11.24049,11.24049,0,0,0-.54414-1.86564,5.77522,5.77522,0,0,0-.77735-1.749,43.34733,43.34733,0,0,0-5.71352-.894,1.63574,1.63574,0,0,0-1.01055.27207,2.29717,2.29717,0,0,0-.894,1.51583,1.19966,1.19966,0,0,1-.07774.42754c-.11659.15547-.31093-.2332-1.20489-2.29318-.31094-.73848-1.28262-2.83732-2.13771-4.66409C93.93438,10.82354,92.92383,8.647,92.574,7.79188,90.825,3.78853,88.68728,1.68969,85.34468.64027L84.29526.32933,76.0165.29047C68.51511.2516,67.77663.2516,66.88268.44594Zm14.69188,12.01a2.67189,2.67189,0,0,1,.54414.77735c.81622,1.9045,5.0139,12.55417,5.05277,12.82625l.03887.3498-11.31042.03887c-8.39537,0-11.34929,0-11.38816-.1166-.1166-.19434-.07773-.27207,2.33205-6.33539,1.24375-3.07053,2.332-5.869,2.44864-6.17992a2.48826,2.48826,0,0,1,.894-1.39923c.19433-.1166,1.51582-.15547,5.71351-.15547,5.13049,0,5.40257,0,5.67464.19434Z" style="fill: #fff"/>
  </g>
</svg>
