<?xml version="1.0" encoding="utf-8"?>
<!-- Generator: Adobe Illustrator 26.0.3, SVG Export Plug-In . SVG Version: 6.00 Build 0)  -->
<svg version="1.0" id="katman_1" xmlns="http://www.w3.org/2000/svg" xmlns:xlink="http://www.w3.org/1999/xlink" x="0px" y="0px"
	 viewBox="0 0 600 450" style="enable-background:new 0 0 600 450;" xml:space="preserve">
<style type="text/css">
	.st0{fill:#010202;}
</style>
<path class="st0" d="M225.2,212.4h7.7c3.8,0,5.5,2.2,4.7,5.9c-0.7,3.3-2.9,5-6,5h-8.7L225.2,212.4z M238.2,200.9h-28.3l-10.7,50.4
	h17.8l3.7-17.3h6.4l7.1,17.3h17l-8.3-18.4c6.3-2,10.7-6.7,12.2-13.7C257.3,208.2,250.5,200.9,238.2,200.9z M522.9,227
	c-2.8,13-9.2,20-17,20c-8.9,0-13-8.2-10.1-21.7c2.7-13,9.1-20,16.9-20C521.6,205.3,525.8,213.5,522.9,227z M512.9,200.1
	c-11.2,0-20,8.5-23.3,24.5c-3.7,17.1,3.2,27.5,16.1,27.5c11.2,0,20-8.5,23.4-24.5C532.7,210.6,525.8,200.1,512.9,200.1z M478.8,227
	c-2.8,13-9.2,20-17,20c-8.9,0-13-8.2-10.1-21.7c2.7-13,9.1-20,16.9-20C477.5,205.3,481.7,213.5,478.8,227z M468.8,200.1
	c-11.2,0-20,8.5-23.3,24.5c-3.7,17.1,3.2,27.5,16.1,27.5c11.2,0,20-8.5,23.4-24.5C488.6,210.6,481.7,200.1,468.8,200.1z M434.7,227
	c-2.8,13-9.2,20-17,20c-8.9,0-13-8.2-10.1-21.7c2.7-13,9.1-20,16.9-20C433.4,205.3,437.5,213.5,434.7,227z M424.7,200.1
	c-11.2,0-20,8.5-23.3,24.5c-3.7,17.1,3.2,27.5,16.1,27.5c11.2,0,20-8.5,23.4-24.5C444.4,210.6,437.5,200.1,424.7,200.1z
	 M375.7,206.1l-5.4,15.3c3.2-2.7,7.3-4,11.4-4c10.3,0,16,7.2,13.8,18c-2.2,10.5-9.7,16.8-19.1,16.8c-10.6,0-16.5-6.8-15.9-17.7h6.1
	c-0.6,7.7,3.1,12.7,10,12.7c6.3,0,11.2-4.5,12.8-12c1.7-8-1.9-13.1-9.4-13.1c-4.5,0-8.4,2.2-11.7,6.3h-6l9.9-27.3h28.3l-1.1,5.2
	H375.7L375.7,206.1z M203.9,200.9l-10.7,50.4h-17.7l10.7-50.4C186.2,200.9,203.9,200.9,203.9,200.9z M308,229.4
	c-4,15.4-16.3,23-28.3,23c-13.8,0-26.4-9.7-22.7-28.2c3.2-16,16.9-24.5,28.9-24.5c12.9,0,24.3,8.6,23.2,23.5h-17.4
	c0.3-5.8-2.6-10.2-6.5-10.2c-3.8,0-8.3,3.4-10.2,12.6c-2.1,9.7,1.5,13.7,5.8,13.7c3.4,0,7.5-2.7,9.8-9.9H308L308,229.4z
	 M176.3,229.4c-4,15.4-16.3,23-28.3,23c-13.8,0-26.4-9.7-22.7-28.2c3.2-16,16.9-24.5,28.9-24.5c12.9,0,24.3,8.6,23.2,23.5h-17.4
	c0.3-5.8-2.6-10.2-6.5-10.2c-3.8,0-8.3,3.4-10.2,12.6c-2.1,9.7,1.5,13.7,5.8,13.7c3.4,0,7.5-2.7,9.8-9.9H176.3z M328.9,232.5
	l8.6-16.6l1.6,16.6H328.9z M330.3,200.9l-28.8,50.4h17.6l4.5-8.9H340l0.9,8.9h17.3l-7.5-50.4L330.3,200.9L330.3,200.9z M105.6,250.3
	c11.8-5.1,17.9-17.8,15.2-29.9c-0.4-1.6-0.9-3.2-1.6-4.8c-0.7-1.5-1.5-3-2.4-4.4c-7-10.2-20.5-14.4-32.2-9.3h0
	c-1.6,0.7-3.1,1.5-4.5,2.5c0,0-0.1,0-0.1,0.1c-0.2,0.2-0.3,0.3-0.2,0.4c0.1,0.1,3.2-1,6.4-2c2.1-0.6,4.7-1.1,4.9-1.1
	c0.4,0-0.3,0.2-5.3,2.8c-3.4,1.8-12.5,6.8-12.9,7.4l0,0c-0.2,0.3,9.4-3.6,13.9-5.2c7.3-2.6,13.5-4.3,14.3-4.1
	c0.4,0.1-4.7,2.1-13.2,6.5c-7,3.5-18.1,10.1-18.3,10.7c-0.1,0.4,11.8-4.4,19.8-7.3c10.5-3.8,18.9-6,19.3-5.8c0.4,0.2-7.1,3.3-18,8.9
	c-9,4.7-21.8,11.9-21.8,12.7v0c0.1,0.4,13.7-4.9,23.6-8.4c11.9-4.2,21.1-7.3,21.4-6.9c0.2,0.3-7.8,4.3-19.8,10.5
	c-9.6,4.9-22.4,11.8-23.1,12.8c0,0,0,0,0,0c0,0,0,0,0,0c1.2,0.1,15-4.5,25.1-8.2c12.7-4.6,21.1-7.8,21.2-7.4
	c0.1,0.5-8.4,5.2-19.6,11c-9.3,4.8-22.5,11.2-22.3,11.5l0,0c0.6,0.6,14.6-3.8,24.2-7.2c11.5-4.1,18.9-7.5,18.8-7.1
	c-0.1,0.4-7.5,5.1-17.5,10.2c-7.6,3.8-19.3,9.3-18.9,9.5c0.6,0.3,13-3.4,20.4-6.1c9-3.3,14-5.6,13.8-5.2c-0.4,0.7-5.8,4.1-12.7,7.7
	c-4.3,2.2-13.7,6.6-13.3,6.7h0c0.7,0.1,10.7-3.1,14.3-4.4c5.3-1.9,5.9-2.3,5.7-1.9c-0.1,0.1-2.2,1.7-4.1,2.8
	c-2.9,1.7-5.7,3.2-5.8,3.3c0,0.1,0.1,0.1,0.4,0.1l0.1,0C102.3,251.5,104,251,105.6,250.3L105.6,250.3z"/>
</svg>
