<?xml version="1.0" encoding="UTF-8"?> <svg xmlns="http://www.w3.org/2000/svg" width="95" height="29" viewBox="0 0 95 29" fill="none"><path d="M10.4661 24.2454C7.15297 24.2454 4.45717 21.5498 4.45717 18.2366C4.45717 14.9235 7.15297 12.2274 10.4661 12.2274C12.2328 12.2274 13.8235 12.9941 14.9239 14.2119L17.4881 10.4824C15.63 8.79811 13.166 7.77026 10.4663 7.77026C4.69513 7.77026 0 12.4654 0 18.2366C0 24.0078 4.69493 28.7024 10.4661 28.7026C13.1658 28.7026 15.63 27.675 17.4884 25.9907L14.9241 22.2611C13.8237 23.4788 12.2328 24.2454 10.4661 24.2454Z" fill="#ECEDE5"></path><path d="M25.4976 12.2271C22.1842 12.2271 19.4884 14.9229 19.4884 18.2363C19.4884 21.5497 22.1844 24.2451 25.4976 24.2451V12.2271Z" fill="#ECEDE5"></path><path d="M94.7862 12.4954V8.03824H88.777V0H84.3199V17.9499C84.3199 23.7207 89.015 28.4159 94.7862 28.4159V23.9587C91.4729 23.9587 88.777 21.2633 88.777 17.9499V12.4952H94.7862V12.4954Z" fill="#ECEDE5"></path><path d="M71.1348 28.6847C65.3638 28.6847 60.6686 23.9898 60.6686 18.2188C60.6686 12.448 65.3638 7.75241 71.1348 7.75241C76.9056 7.75241 81.6011 12.4476 81.6011 18.2188C81.6011 23.9902 76.906 28.6847 71.1348 28.6847ZM71.1348 12.2096C67.8212 12.2096 65.126 14.9056 65.126 18.2188C65.126 21.532 67.8214 24.2276 71.1348 24.2276C74.4482 24.2276 77.144 21.5322 77.144 18.2188C77.144 14.9054 74.4482 12.2096 71.1348 12.2096Z" fill="#ECEDE5"></path><path d="M81.6004 8.03949H77.1433V28.4171H81.6004V8.03949Z" fill="#ECEDE5"></path><path d="M25.4973 24.2454C28.8107 24.2454 31.5065 21.55 31.5065 18.2366C31.5065 14.9233 28.8107 12.2274 25.4973 12.2274V7.77026C31.2687 7.77026 35.9636 12.4654 35.9636 18.2366C35.9636 24.0081 31.2685 28.7026 25.4973 28.7026V24.2454Z" fill="#ECEDE5"></path><path d="M48.2488 28.7026C42.4779 28.7026 37.7828 24.0076 37.7828 18.2366C37.7828 12.4658 42.4779 7.77026 48.2488 7.77026C54.0198 7.77026 58.7153 12.4654 58.7153 18.2366C58.7153 24.0081 54.0202 28.7026 48.2488 28.7026ZM48.2488 12.2274C44.9354 12.2274 42.2399 14.9235 42.2399 18.2366C42.2399 21.55 44.9354 24.2454 48.2488 24.2454C51.5623 24.2454 54.258 21.55 54.258 18.2366C54.258 14.9233 51.5621 12.2274 48.2488 12.2274Z" fill="#ECEDE5"></path><path d="M58.7146 0.0178528H54.2574V28.4164H58.7146V0.0178528Z" fill="#ECEDE5"></path></svg> 