<?xml version="1.0" encoding="UTF-8"?>
<svg id="Layer_1" xmlns="http://www.w3.org/2000/svg" version="1.1" viewBox="0 0 960 256">
  <!-- Generator: Adobe Illustrator 30.3.0, SVG Export Plug-In . SVG Version: 2.1.3 Build 182)  -->
  <defs>
    <style>
      .st0 {
        fill: #fff;
      }
    </style>
  </defs>
  <path class="st0" d="M115.6,189c-18.7-4.3-33.1-14.9-43.1-30.6-10.8-17-12.2-36.8-6-55.8,12.4-38.7,51.8-52.6,89-40.5l30.3-20.3c-45.1-28-104.3-15.4-135.1,26.8-26.2,35.9-25,84.9,4.2,118.7,12.6,14.6,28.5,25.4,47.1,30.7,27.4,7.9,56,4.9,80.9-9.6l-16-22.4c-3.8-5.4-19.1,10.4-51.3,3.1ZM145.2,125.6l58.5-39.7,15.4-10.9c-5.7-8.6-11.7-15.1-18.8-22.3s-4.5-3.7-7.4-1.6l-68.4,46.4c-3.1,2.1-1,6.5.5,8.5l13.8,19.5c1.5,2.1,4.1,1.8,6.5.2ZM319.1,149.1c-10.6-14.4-11-33.4-.8-47.7,14.6-20.5,47.5-20.5,66.8-2.7l16.8-23.4c-17.1-14.5-37.5-21-59.8-18.6s-30.9,7.1-42.7,17.5c-13.5,11.8-21.3,26.8-22.7,44.7v11.3c1.4,17.1,9,32.2,21.7,43.7s28.3,17,45.4,18.8c21.1,2.2,41.7-4.2,57.8-18.2l-16.6-23.4c-18.8,17.3-51.6,17.2-65.7-1.9ZM537,59h-29.9s-.6,82.3-.6,82.3c0,13.5-12.3,21.9-24.3,21.9s-23.3-8.9-25.2-22.6V59c0,0-30.1,0-30.1,0v85.6c2.4,13.5,7.2,25.4,17.4,34,9.7,8.1,21,12.9,33.4,12.9h8.5c11.7,0,22.4-4.2,31.8-11.5,10.7-8.3,16.4-20.6,18.9-34.3V59ZM682.8,189.8l-43.3-54.9c22.4-10.3,31.6-32.6,22-53.4s-16.3-20.5-30.2-21.8c-18.5-1.6-37.2-.2-56.3-.7v131s29.9,0,29.9,0l.2-53.1,41.7,53.2,35.9-.3ZM774.3,59.1l-29.7,65.2-29.7-65.4h-33.7c0,.1,63.4,132.4,63.4,132.4l63.4-132.4h-33.7ZM904,139v-29s-42,0-42,0v-22s53,0,53,0v-29s-83,0-83,0v131s83,0,83,0v-29s-53,0-53,0v-22s42,0,42,0ZM175.5,161.8l56.6-38.1c.2-12.9-2.2-24.6-7.4-37.7l-72.4,49.1c-1.8,1.2-2.9,4.6-1.8,6.2l16.9,23.6c2.6,1,5.5-1.3,8.2-3.1ZM193.9,200.8c20.2-16.5,33-37.2,36.4-62.5l-53.6,36.5c.6,2.4,1.5,4.9,2.7,6.6l14.4,19.4Z"/>
  <path class="st0" d="M115.6,189c32.2,7.3,47.5-8.5,51.3-3.1l16,22.4c-24.9,14.5-53.5,17.5-80.9,9.6-18.6-5.3-34.5-16.1-47.1-30.7-29.2-33.7-30.4-82.7-4.2-118.7,30.8-42.2,90-54.8,135.1-26.8l-30.3,20.3c-37.2-12.1-76.5,1.9-89,40.5-6.1,19.1-4.7,38.9,6,55.8,10,15.8,24.3,26.4,43.1,30.6Z"/>
  <path class="st0" d="M682.8,189.8l-35.9.3-41.7-53.2-.2,53.1h-29.9s0-131.1,0-131.1c19.1.6,37.8-.9,56.3.7,13.9,1.2,25.4,11.4,30.2,21.8,9.6,20.8.4,43.1-22,53.4l43.3,54.9ZM624.3,111.7c7.5-.1,11.9-7,11.6-13.2s-4.7-12.1-11.2-12.3l-19.8-.3v26.1s19.3-.3,19.3-.3Z"/>
  <path class="st0" d="M537,59v86.6c-2.6,13.7-8.2,26-18.9,34.3-9.4,7.3-20.2,11.5-31.8,11.5h-8.5c-12.5,0-23.7-4.8-33.4-12.9-10.2-8.6-14.9-20.5-17.3-34V59c0,0,29.9,0,29.9,0v81.5c1.9,13.8,11.2,22.6,25.2,22.6s24.2-8.4,24.3-21.9l.6-82.3h29.9Z"/>
  <path class="st0" d="M319.1,149.1c14.1,19.1,46.9,19.2,65.7,1.9l16.6,23.4c-16.1,14.1-36.7,20.4-57.8,18.2-17.1-1.8-32.7-7.3-45.4-18.8s-20.3-26.6-21.6-43.7v-11.3c1.4-17.9,9.2-32.9,22.7-44.7,11.8-10.3,26.8-15.7,42.7-17.5s42.7,4,59.8,18.6l-16.8,23.4c-19.3-17.7-52.2-17.7-66.8,2.7-10.2,14.3-9.8,33.3.8,47.7Z"/>
  <polygon class="st0" points="904 139 862 139 862 161 915 161 915 190 832 190 832 59 915 59 915 88 862 88 862 110 904 110 904 139"/>
  <polygon class="st0" points="774.3 59.1 808 59 744.6 191.4 681.2 59.1 714.9 59 744.6 124.4 774.3 59.1"/>
  <path class="st0" d="M145.2,125.6c-2.4,1.6-5,1.9-6.5-.2l-13.8-19.5c-1.5-2.1-3.6-6.4-.5-8.5l68.4-46.4c3-2,5.4-.4,7.4,1.6,7.1,7.1,13.1,13.7,18.8,22.3l-15.4,10.9-58.5,39.7Z"/>
  <path class="st0" d="M175.5,161.8c-2.6,1.8-5.5,4.1-8.2,3.1l-16.9-23.6c-1.1-1.6,0-5,1.8-6.2l72.4-49.1c5.2,13.1,7.7,24.8,7.4,37.7l-56.6,38.1Z"/>
  <path class="st0" d="M193.9,200.8l-14.4-19.4c-1.2-1.7-2.1-4.2-2.7-6.6l53.6-36.5c-3.5,25.2-16.2,46-36.4,62.5Z"/>
  <path class="st0" d="M624.3,111.7l-19.3.3v-26.1s19.8.3,19.8.3c6.5.1,10.9,6.8,11.2,12.3s-4.1,13-11.6,13.2Z"/>
</svg>