<svg id="Layer_1" data-name="Layer 1" xmlns="http://www.w3.org/2000/svg" viewBox="0 0 566.93 566.93"><defs><style>.cls-1{fill:#30447b;}</style></defs><title>flatfair square logo</title><path class="cls-1" d="M326.67,332.23A18.23,18.23,0,0,1,308.44,314V235a.36.36,0,0,0-.12-.28L247.59,174,189.2,212.05a2.92,2.92,0,0,0-1.33,2.45v72.32a3.94,3.94,0,0,0,6.09,3.29L239.8,260.2a.26.26,0,0,0,.11-.21V205.21a8.86,8.86,0,1,1,17.72,0V260A17.88,17.88,0,0,1,249.48,275L203.64,305a21.66,21.66,0,0,1-33.49-18.13V214.5a20.56,20.56,0,0,1,9.37-17.29L238.07,159A17.56,17.56,0,0,1,260,161.31l60.87,60.89a18,18,0,0,1,5.3,12.81v79a.42.42,0,0,0,.27.44.43.43,0,0,0,.52,0L378.6,281.3a1.79,1.79,0,0,0,.83-1.52V188.87a1.14,1.14,0,0,0-.36-.84l-61.67-57.6a2.76,2.76,0,0,0-3.41-.28l-33.88,22.29a8.86,8.86,0,0,1-9.74-14.8l33.87-22.3a20.43,20.43,0,0,1,25.25,2.14l61.67,57.6a18.91,18.91,0,0,1,6,13.79v90.91a19.44,19.44,0,0,1-9,16.44l-51.66,33.13A18.27,18.27,0,0,1,326.67,332.23Z"/><path class="cls-1" d="M135.31,426.12a6.59,6.59,0,0,0,1.84-4.92,6.8,6.8,0,0,0-1.86-5,6.48,6.48,0,0,0-4.9-1.89H100.65V395.52a11.15,11.15,0,0,1,11.24-11.25,10.73,10.73,0,0,1,7.93,3.28,11,11,0,0,1,3.19,8v.85a6.73,6.73,0,0,0,6.89,6.89,6.5,6.5,0,0,0,4.91-1.89,6.81,6.81,0,0,0,1.85-5v-.85a24.24,24.24,0,0,0-7.14-17.7,24,24,0,0,0-17.63-7.2,24.2,24.2,0,0,0-17.76,7.14A23.91,23.91,0,0,0,87,395.52V448a6.35,6.35,0,0,0,6.77,6.76,6.77,6.77,0,0,0,5-1.85,6.47,6.47,0,0,0,1.9-4.91V428h29.74A6.59,6.59,0,0,0,135.31,426.12Z"/><path class="cls-1" d="M146.25,448a6.35,6.35,0,0,0,6.77,6.76,6.81,6.81,0,0,0,5-1.85,6.5,6.5,0,0,0,1.89-4.91V377.63c0-4.68-2.13-6.77-6.89-6.77a6.36,6.36,0,0,0-6.77,6.77Z"/><path class="cls-1" d="M216.85,452.89a6.59,6.59,0,0,0,4.92,1.84,6.85,6.85,0,0,0,5-1.85,6.5,6.5,0,0,0,1.89-4.91V425.21a29.71,29.71,0,1,0-59.41,0,29,29,0,0,0,8.54,21.17A28.73,28.73,0,0,0,198.9,455a6.54,6.54,0,0,0,6.88-6.89,6.5,6.5,0,0,0-1.89-4.91,6.8,6.8,0,0,0-5-1.86,15.39,15.39,0,0,1-11.33-4.73,15.67,15.67,0,0,1-4.65-11.38,15.93,15.93,0,0,1,16-16,15.68,15.68,0,0,1,11.38,4.66A15.4,15.4,0,0,1,215,425.21V448A6.59,6.59,0,0,0,216.85,452.89Z"/><path class="cls-1" d="M249.75,383a6.68,6.68,0,0,0-5-1.9,6.5,6.5,0,0,0-4.91,1.89,6.79,6.79,0,0,0-1.86,5v41.87a24.38,24.38,0,0,0,24.9,24.89,24,24,0,0,0,17.64-7.19,24.3,24.3,0,0,0,7.14-17.7v-1.1a6.54,6.54,0,0,0-6.77-6.77,6.72,6.72,0,0,0-4.93,1.92,6.41,6.41,0,0,0-2,4.85v1.1a11,11,0,0,1-3.19,8,10.69,10.69,0,0,1-7.93,3.28,11.15,11.15,0,0,1-11.24-11.24V409.47h29.25c4.68,0,6.77-2.13,6.77-6.89a6.36,6.36,0,0,0-6.77-6.77H251.66V388A6.72,6.72,0,0,0,249.75,383Z"/><path class="cls-1" d="M297.14,448a6.35,6.35,0,0,0,6.77,6.76,6.83,6.83,0,0,0,5-1.85,6.47,6.47,0,0,0,1.9-4.91V428h29.74a6.33,6.33,0,0,0,6.76-6.76,6.82,6.82,0,0,0-1.86-5,6.48,6.48,0,0,0-4.9-1.89H310.8V395.52A11.17,11.17,0,0,1,322,384.27a10.74,10.74,0,0,1,7.93,3.28,11,11,0,0,1,3.19,8v.85a6.73,6.73,0,0,0,6.89,6.89,6.5,6.5,0,0,0,4.91-1.89,6.81,6.81,0,0,0,1.85-5v-.85a24.26,24.26,0,0,0-7.14-17.7,24,24,0,0,0-17.63-7.2,24.2,24.2,0,0,0-17.76,7.14,23.91,23.91,0,0,0-7.14,17.76Z"/><path class="cls-1" d="M415.81,425.21A29.88,29.88,0,1,0,386.05,455a6.55,6.55,0,0,0,6.89-6.89,6.51,6.51,0,0,0-1.9-4.91,6.79,6.79,0,0,0-5-1.86,15.36,15.36,0,0,1-11.33-4.73,15.68,15.68,0,0,1-4.66-11.38,15.93,15.93,0,0,1,16-16,15.71,15.71,0,0,1,11.38,4.66,15.39,15.39,0,0,1,4.73,11.33V448a6.34,6.34,0,0,0,6.77,6.76,6.79,6.79,0,0,0,5-1.85,6.5,6.5,0,0,0,1.89-4.91Z"/><path class="cls-1" d="M438.06,372.1a8.62,8.62,0,1,0,2.57,6.14A8.33,8.33,0,0,0,438.06,372.1Z"/><path class="cls-1" d="M431.92,454.73a6.81,6.81,0,0,0,5-1.85,6.5,6.5,0,0,0,1.89-4.91V402.33c0-4.68-2.13-6.76-6.89-6.76a6.33,6.33,0,0,0-6.76,6.76V448a6.33,6.33,0,0,0,6.76,6.76Z"/><path class="cls-1" d="M473.17,395.57a24.26,24.26,0,0,0-17.7,7.14,24,24,0,0,0-7.2,17.63V448a6.35,6.35,0,0,0,6.77,6.76,6.81,6.81,0,0,0,5-1.85,6.5,6.5,0,0,0,1.89-4.91V420.34a10.3,10.3,0,0,1,3.16-7.75,12.46,12.46,0,0,1,7.72-3.36c4.86-.43,7.13-2.62,7.13-6.9a6.52,6.52,0,0,0-6.77-6.76Z"/></svg>