<?xml version="1.0" encoding="utf-8"?>
<!-- Generator: Adobe Illustrator 24.3.0, SVG Export Plug-In . SVG Version: 6.00 Build 0)  -->
<svg version="1.1" id="Layer_1" xmlns="http://www.w3.org/2000/svg" xmlns:xlink="http://www.w3.org/1999/xlink" x="0px" y="0px"
	 viewBox="0 0 1017 258" style="enable-background:new 0 0 1017 258;" xml:space="preserve">
<style type="text/css">
	.st0{fill:#F6618B;}
</style>
<desc>Created with Sketch.</desc>
<path class="st0" d="M484.6,109.5c-23.7,0-39.3,18.6-39.3,42.4c0,24.2,16.1,42.3,40.4,42.1c15.9-0.1,29.2-8.7,34.6-21.7
	c0.5-1.2-0.2-2.5-1.5-2.7l-12.4-2.3c-1.2-0.2-2.5,0.4-3.1,1.4c-3.5,5.8-10,9.2-17.6,9.2c-12.5,0-21.5-8.2-23.5-21.9h55.4
	c1.7,0,3-1.3,3-3v-5.4C520.6,125.3,506.6,109.5,484.6,109.5z M463.1,141.9c2.8-10,10.8-16.8,21.5-16.8c11.7,0,19.4,7.6,19.7,16.8
	H463.1z M413.1,109.3c-9.2,0-16.1,3.9-20.6,10.2V115c0-1.7-1.3-3-3-3h-12.1c-1.7,0-3,1.3-3,3v73.6c0,1.7,1.3,3,3,3h12.1
	c1.7,0,3-1.3,3-3v-40.9c0-14.3,6.2-21.5,14.8-21.5c6.8,0,10.9,4.1,11.7,12.5c0.1,1.5,1.4,2.7,3,2.7h12.1c1.7,0,3-1.4,3-3.1
	C436.6,118.3,426.9,109.3,413.1,109.3z M366,76.4h-73.7c-1.7,0-3,1.3-3,3v109.1c0,1.7,1.3,3,3,3h12.1c1.7,0,3-1.3,3-3v-43.7h51.9
	c1.7,0,3-1.3,3-3v-11.4c0-1.7-1.3-3-3-3h-51.9V93.9H366c1.7,0,3-1.3,3-3V79.4C369,77.8,367.6,76.4,366,76.4z M223.6,183.6
	l-29.4-16.9c-3-1.7-6.6-1.7-9.5,0l-20.1,11.6c-12.3,7.1-19.9,20.2-19.9,34.4v19.2c0,3.4,1.8,6.6,4.8,8.3l29.4,17
	c3.2,1.8,7.1-0.5,7.1-4.1V232c0-11.4,6.1-21.8,15.9-27.5l21.7-12.5C226.8,190,226.8,185.5,223.6,183.6z M134.4,53.6V26.4
	c0-3.4-1.8-6.6-4.8-8.3l-29.4-17c-3.2-1.8-7.1,0.5-7.1,4.1v29c0,11.4-6.1,21.8-15.9,27.5l-57.1,33C7.9,102,0.3,115.1,0.3,129.3v19.2
	c0,3.4,1.8,6.6,4.8,8.3l29.4,17c3.2,1.8,7.1-0.5,7.1-4.1v-21.1c0-11.4,6.1-21.8,15.9-27.5l57.1-33C126.9,80.9,134.4,67.8,134.4,53.6
	z M199.5,114.1l-29.4-17c-3-1.7-6.6-1.7-9.5,0l-68.2,39.4c-12.3,7.1-19.9,20.2-19.9,34.4v19.2c0,3.4,1.8,6.6,4.8,8.3l29.4,17
	c3.2,1.8,7.1-0.5,7.1-4.1v-21.1c0-11.4,6.1-21.8,15.9-27.5l69.8-40.3C202.7,120.5,202.7,116,199.5,114.1z M1016,153v-5.4
	c0-22.4-14-38.1-36-38.1c-23.7,0-39.3,18.6-39.3,42.4c0,24.2,16.1,42.3,40.4,42.1c15.9-0.1,29.2-8.7,34.6-21.7
	c0.5-1.2-0.2-2.5-1.5-2.7l-12.4-2.3c-1.2-0.2-2.5,0.4-3.1,1.4c-3.5,5.8-10,9.2-17.6,9.2c-12.5,0-21.5-8.2-23.5-21.9h55.4
	C1014.7,156,1016,154.7,1016,153z M958.5,141.9c2.8-10,10.8-16.8,21.5-16.8c11.7,0,19.4,7.6,19.7,16.8H958.5z M571,109.5
	c-23.7,0-39.3,18.6-39.3,42.4c0,24.2,16.1,42.3,40.4,42.1c15.9-0.1,29.2-8.7,34.6-21.7c0.5-1.2-0.2-2.5-1.5-2.7l-12.4-2.3
	c-1.2-0.2-2.5,0.4-3.1,1.4c-3.5,5.8-10,9.2-17.6,9.2c-12.5,0-21.5-8.2-23.5-21.9H604c1.7,0,3-1.3,3-3v-5.4
	C607,125.3,593,109.5,571,109.5z M549.5,141.9c2.8-10,10.8-16.8,21.5-16.8c11.7,0,19.4,7.6,19.7,16.8H549.5z M926.3,76.4h-12.1
	c-1.7,0-3,1.3-3,3v41.9c-5.9-7.2-14.6-12-26.3-12c-21.7,0-37.2,18.9-37.2,42.4c0,23.8,15.5,42.3,37.2,42.3
	c11.7,0,20.4-4.6,26.3-11.8v6.4c0,1.7,1.3,3,3,3h12.1c1.7,0,3-1.3,3-3V79.4C929.3,77.8,928,76.4,926.3,76.4z M888.7,176.4
	c-13.6,0-22.9-10.4-22.9-24.7s9.4-24.8,22.9-24.8c13.3,0,22.5,10.5,22.5,24.8S902,176.4,888.7,176.4z M803.4,109.3
	c-16.9,0-32.4,9.8-32.3,29.1c0,1.6,1.4,2.9,3,2.9h10.8c1.6,0,2.9-1.3,3-2.8c0.5-8.5,6.2-13.8,16-13.8c10.4,0,15.6,5.6,15.6,12.5v3
	l-18.4,3.1c-19.6,3.3-30.2,11.3-30.2,27.1c0,11.2,8.6,23.7,27.1,23.7c11,0,18.2-5.6,21.7-11.7v6.2c0,1.7,1.3,3,3,3h10.8
	c1.7,0,3-1.3,3-3v-50.4C836.4,120.8,825.2,109.3,803.4,109.3z M819.5,158c0,12-7.6,19.7-18.1,19.7c-8.2,0-13.5-3.8-13.5-9.5
	c0-7.2,7.6-9.9,15.8-11.3l15.8-2.6V158z M686.1,163l-12.8-2.4c-1.5-0.3-2.9,0.8-3,2.4c-0.2,8.9-5,14.1-12.1,14.1
	c-7.7,0-12.7-4.8-12.7-13.5v-36h36.1c1.7,0,3-1.3,3-3V115c0-1.7-1.3-3-3-3h-36.1V91.6c0-1.7-1.3-3-3-3h-12.1c-1.7,0-3,1.3-3,3V112
	h-10.8c-1.7,0-3,1.3-3,3v9.6c0,1.7,1.3,3,3,3h10.8v35c0,19.4,11.8,31.4,31.4,31.4c16,0,28.4-11,28.8-29
	C687.8,164.1,687.1,163.2,686.1,163z M737.7,109.3c-9.2,0-16.1,3.9-20.6,10.2V115c0-1.7-1.3-3-3-3H702c-1.7,0-3,1.3-3,3v73.6
	c0,1.7,1.3,3,3,3h12.1c1.7,0,3-1.3,3-3v-40.9c0-14.3,6.2-21.5,14.8-21.5c6.8,0,10.9,4.1,11.7,12.5c0.1,1.5,1.4,2.7,3,2.7h12.1
	c1.7,0,3-1.4,3-3.1C761.2,118.3,751.5,109.3,737.7,109.3z"/>
</svg>
