<svg id="logo" data-name="Layer 1" xmlns="http://www.w3.org/2000/svg" viewBox="0 0 320 148">
    <g data-name="Logo/Customers/Killik">
        <path data-name="Combined-Shape"
            d="M292.504 74.548c3.175 0 6.05 1.285 8.132 3.36 2.24 2.243 3.362 5.22 3.362 8.932v-.002l.002.11v.118a13.2 13.2 0 0 1-3.261 8.713l-.014.015a10.564 10.564 0 0 1-8.415 3.776h.003l-.09.001h-.099c-3.253 0-6.178-1.4-8.217-3.638l.006.006a12.716 12.716 0 0 1-3.448-9.144v.01l-.004-.156-.001-.167c0-3.237 1.246-6.183 3.276-8.377l.007-.009a10.88 10.88 0 0 1 8.408-3.543h-.007l.175-.004.185-.001Zm-14.888-11.332.463 11.895h-1.212a17.325 17.325 0 0 0-2.796-5.76l.03.047c-1.96-2.53-5-4.144-8.418-4.144l-.174.001-.165.004-.043-.001h-.169c-3.6 0-6.806 1.705-8.847 4.35l-.019.026c-2.356 2.917-3.535 6.931-3.535 12.046 0 4.703 1.24 8.458 3.714 11.265 2.213 2.604 5.49 4.246 9.15 4.246.093 0 .183-.002.277-.004h.117c2.738 0 5.306-.728 7.522-1.998l-.071.04.214-.13a22.872 22.872 0 0 0 4.161-3.223l-.001.004.963.979c-3.342 4.09-8.379 6.688-14.023 6.713h-.004c-5.69 0-10.205-1.817-13.549-5.453-3.085-3.328-4.63-7.498-4.63-12.513 0-5.127 1.63-9.43 4.897-12.912 3.428-3.635 7.9-5.454 13.41-5.454 2.096.007 4.116.308 6.031.863l-.154-.038h-.004a25.97 25.97 0 0 0 3.208.824l.186.03a2.694 2.694 0 0 0 1.435-.419l-.01.007c.452-.296.788-.747.929-1.275l.003-.016h1.114Zm-60.42-.196c1.863 0 3.573.647 4.905 1.716l.009.007a5.78 5.78 0 0 1 2.04 4.653v-.003l.002.085v.09a6.929 6.929 0 0 1-2.608 5.421l.037-.03a23.72 23.72 0 0 1-5.655 3.527c1.544 2.784 2.668 4.743 3.375 5.877.707 1.136 1.922 2.81 3.638 5.028l-.001-.001.13-.15a26.525 26.525 0 0 0 3.57-5.378l.114-.23-.023.053c.572-1.12.943-2.358 1.072-3.7l.015-.176v.009a2.053 2.053 0 0 0-1.062-2.008l.049.017a6.907 6.907 0 0 0-2.406-.489V76.32h11.482v1.084l-.028.002a8.363 8.363 0 0 0-2.573.604l-.027.016a5.774 5.774 0 0 0-2.358 2.5l-1.35 2.466c-.963 1.764-1.777 3.105-2.425 4.043s-1.623 2.223-2.92 3.865l.03.034a29.853 29.853 0 0 0 2.332 2.389c1.919 1.637 3.843 2.454 5.77 2.454h-.008a4.94 4.94 0 0 0 2.915-.823l.024-.017a11.848 11.848 0 0 0 1.93-1.974l.743.604-.014.048a6.978 6.978 0 0 1-1.074 1.868l-.028.038c-.506.73-1.094 1.399-1.76 2.003l.008-.009a7.798 7.798 0 0 1-3.154 1.645l.055-.014a7.627 7.627 0 0 1-2.129.317h-.008a9.219 9.219 0 0 1-4.972-1.538l-.098-.062a27.945 27.945 0 0 1-3.84-3.15l-.15.135a19.793 19.793 0 0 1-4.57 3.028l.091-.04a15.54 15.54 0 0 1-6.78 1.55h-.16c-2.762-.004-4.972-.737-6.624-2.193-1.652-1.46-2.478-3.452-2.478-5.982v.009c-.002-.05-.002-.103-.002-.155a9.55 9.55 0 0 1 2.194-6.113l.023-.024a21.63 21.63 0 0 1 6.176-4.908l2.03-1.15-.01-.022a18.213 18.213 0 0 1-.71-1.737l-.057-.166.043.129a17.937 17.937 0 0 1-.65-2.093 19.704 19.704 0 0 1-.338-1.672l.005.038-.027-.185a11.1 11.1 0 0 1-.104-1.278l-.003-.217v.012l-.002-.153-.001-.157c0-2.27.865-4.336 2.283-5.882l.005-.005a7.527 7.527 0 0 1 5.774-2.454h-.009l.105-.004.11-.002.112-.001Zm-186.123.756V64.8c-2.063.102-3.397.442-3.999 1.024-.602.582-.905 1.814-.909 3.697v10.786c3.265-2.783 5.932-5.152 8.004-7.107 3.707-3.48 5.562-5.71 5.562-6.696.002-.023.002-.048.002-.074 0-.597-.394-1.103-.938-1.269l-.008-.001a8.346 8.346 0 0 0-2.585-.331l-.095.003v-1.054h13.876v1.024a11.803 11.803 0 0 0-4.063.993l.076-.03a19.6 19.6 0 0 0-4.045 3.16l-.003.003-10.356 9.514 12.585 13.555a46.264 46.264 0 0 0 4.615 4.489l.067.055a7.596 7.596 0 0 0 3.614 1.173l.022.002v1.024H36.298v-1.024l.148.002c1.002 0 1.976-.126 2.903-.363l-.08.017a1.04 1.04 0 0 0 .79-1.007v-.031l-.002-.03a3.22 3.22 0 0 0-.511-1.343l.006.012a11.974 11.974 0 0 0-1.591-2.09l.005.006-10.15-10.956-1.642 1.51v9.52c0 1.956.303 3.194.891 3.72s1.892.866 3.885 1.036v1.024H16l.003-1.029c2.146-.17 3.477-.549 3.993-1.139.521-.606.776-2.007.776-4.242V69.526c0-1.904-.284-3.132-.866-3.69-.581-.558-1.879-.903-3.903-1.036v-1.024h15.07Zm141.016 0V64.8c-2.06.103-3.4.442-4 1.024-.6.582-.903 1.817-.903 3.697v10.786l.43-.368.425-.364c2.874-2.469 5.256-4.594 7.144-6.375 3.707-3.48 5.563-5.71 5.569-6.696l.001-.07c0-.598-.394-1.104-.94-1.273l-.006-.001a8.392 8.392 0 0 0-2.59-.331l-.095.003v-1.054h13.87v1.024a11.789 11.789 0 0 0-4.074 1l.075-.03a19.659 19.659 0 0 0-4.05 3.16l-.004.003-10.302 9.508L185.183 92a46.405 46.405 0 0 0 4.61 4.488l.068.055a7.596 7.596 0 0 0 3.614 1.174l.022.002v1.024h-16.161v-1.024h.137c1.005 0 1.981-.126 2.914-.363l-.08.017c.45-.124.777-.527.777-1.009 0-.02 0-.041-.002-.062v.004a3.22 3.22 0 0 0-.51-1.344l.006.012a11.768 11.768 0 0 0-1.597-2.09l.003.004-10.162-10.955-1.636 1.509v9.52c0 1.957.296 3.194.891 3.72.594.527 1.885.866 3.884 1.037v1.024h-14.95l.002-1.028c2.15-.17 3.482-.549 4-1.139.52-.606.776-2.007.776-4.242V69.526c0-1.902-.287-3.132-.86-3.69-.606-.55-1.885-.903-3.916-1.036v-1.024h15.076Zm-101.961-.002v1.024c-2.101.102-3.464.43-4.09.988-.606.558-.933 1.817-.933 3.752v23.439c0 2.03.31 3.295.932 3.78.623.486 1.988.806 4.09.957v1.024h-15.44v-1.024c2.102-.15 3.463-.468 4.085-.957.605-.485.94-1.751.94-3.78v-23.44c0-1.939-.316-3.193-.94-3.75-.625-.558-1.981-.885-4.084-.989v-1.024h15.44Zm82.566 0v1.024c-2.108.102-3.473.43-4.09.988-.606.558-.933 1.817-.933 3.752v23.439c0 2.03.31 3.295.933 3.78.623.486 1.98.806 4.09.957v1.024H137.25v-1.024c2.105-.15 3.468-.468 4.09-.957.606-.485.933-1.751.933-3.78v-23.44c0-1.939-.31-3.193-.932-3.75-.623-.558-1.988-.885-4.091-.989v-1.024h15.445Zm-32.107 0v1.024c-1.955.102-3.267.417-3.933.945s-.99 1.668-.968 3.418v25.388a2.721 2.721 0 0 0 .305 1.397l-.008-.015c.31.372.773.606 1.291.606h.017a13.212 13.212 0 0 0 1.775.112h.146c.452-.001 1.051-.009 1.8-.009 4.706 0 7.887-.387 9.544-1.158 1.654-.764 3.26-2.74 4.812-5.908h1.345l-2.588 9.09h-28.48l-.039-.95c1.945-.2 3.211-.545 3.788-1.037.576-.49.867-1.721.867-3.7v-23.44c0-1.873-.284-3.099-.853-3.672-.57-.573-1.835-.929-3.8-1.067v-1.024h14.979Zm-30.96 0v1.024c-1.956.104-3.27.418-3.932.945-.66.527-1 1.673-1 3.418v25.388A2.686 2.686 0 0 0 85 95.945l-.007-.015c.31.371.771.604 1.29.604h.02a12.654 12.654 0 0 0 1.775.113h.145c.453-.001 1.052-.008 1.8-.008 4.71 0 7.893-.388 9.545-1.159 1.653-.764 3.254-2.74 4.811-5.907h1.34l-2.582 9.09h-28.48l-.003-.949c1.943-.198 3.206-.544 3.788-1.037.581-.49.876-1.725.884-3.7v-23.44c0-1.872-.279-3.095-.848-3.672-.57-.576-1.817-.932-3.8-1.067v-1.024h14.95Zm201.781 12.29.003.001h-.07a5.084 5.084 0 0 0-3.463 1.351c-1.724 1.57-2.588 4.277-2.588 8.12v.127c0 3.094.77 6.01 2.079 8.465 1.385 2.659 3.31 3.988 5.769 3.988h.086c1.89 0 3.534-1.073 4.366-2.67 1.042-1.772 1.562-4.1 1.562-6.985v-.065c0-3.053-.735-5.934-1.988-8.369-1.32-2.643-3.24-3.963-5.756-3.963Zm-79.935 4.632-.09.046a17.627 17.627 0 0 0-4.032 3.063l.005-.003a7.927 7.927 0 0 0-2.192 5.481v.062c-.002.04-.002.08-.002.119 0 1.9.733 3.63 1.93 4.916l.004.009a6.337 6.337 0 0 0 4.933 2.118v-.003h.02a10.278 10.278 0 0 0 3.516-.774l.088-.03a12.762 12.762 0 0 0 3.896-2.394c-1.621-2.065-2.89-3.803-3.805-5.217-.917-1.415-2.34-3.878-4.271-7.393Zm5.388-15.903a3.745 3.745 0 0 0-2.809 1.266l.007-.01a5.004 5.004 0 0 0-1.084 3.118c0 .088.004.176.005.25v.012c.024 1.254.245 2.462.606 3.509l.059.211c.43 1.338.953 2.633 1.481 3.702v.004l.098-.05a18.636 18.636 0 0 0 3.712-2.635l.009-.007a6.689 6.689 0 0 0 2.306-4.896v.01a4.523 4.523 0 0 0-1.174-3.265 3.96 3.96 0 0 0-2.86-1.214c-.048 0-.093 0-.136.002h.007l-.073-.005a3.436 3.436 0 0 0-.077-.002h-.077Z"
            fill="currentColor" fill-rule="evenodd" />
    </g>
</svg>