<?xml version="1.0" encoding="UTF-8"?><svg xmlns="http://www.w3.org/2000/svg" viewBox="0 0 288 148"><defs><style>.cls-1,.cls-2{isolation:isolate;}.cls-2{fill:#f2007d;mix-blend-mode:multiply;}</style></defs><g class="cls-1"><g id="guides"><g id="Layer_1-2"><path class="cls-2" d="M269.23,97.6h6.31v-14.68c-.03-.74-.16-1.47-.4-2.17.48-.31,1.02-.51,1.59-.59.44-.17.91-.24,1.38-.21,1.06-.07,2.09.37,2.76,1.19.67,1.35.94,2.85.79,4.35v12.08h6.33v-12.61c-.04-1.39-.17-2.77-.4-4.14-.25-1.22-.72-2.39-1.38-3.45-.75-.93-1.7-1.67-2.78-2.17-1.38-.54-2.86-.8-4.35-.78-2.29,0-4.51.76-6.31,2.17-.74-.65-1.62-1.13-2.57-1.4-2.12-.61-4.35-.75-6.52-.4-.87.04-1.73.17-2.57.4-.78.21-1.57.21-2.36.4-.62.22-1.26.36-1.92.43v21.74h6.31v-17.34c.4,0,.79-.19,1.19-.19h1.12c1.06-.06,2.08.38,2.78,1.17.65,1.35.92,2.86.78,4.35l.21,11.85h0ZM245.92,91.08c-1.27,1.86-3.8,2.34-5.66,1.07-.42-.29-.79-.65-1.07-1.07-.79-1.45-1.2-3.07-1.17-4.72-.08-1.66.33-3.31,1.17-4.74,1.27-1.86,3.8-2.34,5.66-1.07.42.29.79.65,1.07,1.07.86,1.43,1.26,3.08,1.17,4.74.09,1.66-.32,3.3-1.17,4.72M252.82,81.61c-.54-1.36-1.27-2.62-2.17-3.76-1.03-1.01-2.24-1.81-3.57-2.36-1.44-.57-2.99-.84-4.54-.79-1.49-.05-2.97.22-4.35.79-1.33.55-2.53,1.36-3.55,2.36-1.01,1.1-1.81,2.37-2.36,3.76-.56,1.52-.83,3.13-.79,4.74-.03,1.68.24,3.35.79,4.93.47,1.36,1.2,2.62,2.14,3.71,1.02,1.01,2.23,1.82,3.55,2.38,2.91,1.18,6.16,1.18,9.08,0,1.35-.55,2.58-1.36,3.62-2.38.98-1.08,1.72-2.36,2.17-3.74.56-1.58.82-3.26.78-4.93.05-1.62-.22-3.22-.78-4.74M212.73,91.05c.82,2.88,2.94,5.22,5.73,6.33,1.72.61,3.51.94,5.33.98,1.26-.04,2.52-.17,3.76-.4.95-.14,1.88-.41,2.76-.79l-.98-5.17c-.73.38-1.54.58-2.36.59-.85.16-1.71.23-2.57.19-1.67.17-3.34-.41-4.56-1.57-.91-1.41-1.39-3.06-1.38-4.74-.06-1.63.43-3.22,1.38-4.54,1.05-1.18,2.58-1.81,4.16-1.72.79-.03,1.58.03,2.36.19.6.21,1.38.4,1.99.59l1.38-5.17c-1.98-.9-4.14-1.37-6.31-1.38-1.71-.08-3.41.26-4.95.98-2.75,1.21-4.89,3.49-5.92,6.31-.57,1.45-.84,3-.79,4.56.14,1.61.47,3.2.98,4.72M209.78,91.21c-1.58-1.38-3.94-1.38-5.52,0-1.58,1.65-1.58,4.26,0,5.92h0c1.58,1.38,3.94,1.38,5.52,0,1.58-1.65,1.58-4.26,0-5.92h0M186.47,84.19c.04-.55.17-1.08.4-1.59.15-.52.42-.99.79-1.38.34-.39.74-.72,1.19-.98,1.13-.53,2.43-.53,3.55,0,.48.21.89.55,1.19.98.37.38.64.86.78,1.38.17.51.24,1.05.21,1.59h-8.11ZM180.74,91.3c.46,1.37,1.2,2.64,2.17,3.71,1.05,1.08,2.34,1.9,3.76,2.38,1.72.61,3.51.94,5.33.98.79.03,1.58-.03,2.36-.19.74-.02,1.47-.15,2.17-.4.6-.21,1.19-.21,1.99-.4.4-.21.98-.4,1.38-.6l-.79-5.17c-.88.38-1.81.64-2.76.79-1.14.21-2.29.34-3.45.38-1.53,0-3.03-.4-4.35-1.17-1.04-.72-1.68-1.89-1.72-3.16h14.42v-2.29c.16-3.12-.82-6.18-2.76-8.63-1.95-2.03-4.69-3.1-7.51-2.95-1.36-.05-2.71.22-3.95.78-1.22.61-2.37,1.34-3.45,2.17-.96,1.08-1.72,2.33-2.24,3.67-.66,1.7-1,3.51-1,5.33-.35,1.58-.21,3.24.4,4.74M163.96,88.51c.03,1.33.16,2.65.4,3.95.26,1.13.72,2.2,1.38,3.16.75.87,1.7,1.54,2.76,1.97,1.38.57,2.86.84,4.35.79,1.2.07,2.4-.07,3.55-.4.88-.17,1.75-.43,2.57-.79l-.98-4.93c-.59.21-1.38.4-1.97.59-.71.17-1.44.24-2.17.21-1.4,0-2.38-.4-2.78-1.19-.53-.97-.8-2.06-.78-3.16v-7.88h7.69v-5.33h-7.69v-6.71l-6.33.78v18.96h0ZM159.82,75.07h-6.33v17.41c-.4,0-.78.19-1.38.19h-1.38c-1.59,0-2.57-.4-2.97-1.38-.66-1.42-.93-2.99-.79-4.56v-11.85h-6.31v12.45c.04,1.46.17,2.91.4,4.35.24,1.22.79,2.36,1.59,3.31.75,1,1.78,1.76,2.95,2.17,1.52.56,3.13.82,4.74.79,1.79-.03,3.56-.16,5.33-.4,1.38-.19,2.78-.59,4.16-.79v-21.71h0ZM117.12,97.6h6.31v-17.37c.4,0,.79-.21,1.38-.21h1.38c1.59,0,2.57.4,2.97,1.19.66,1.35.93,2.85.79,4.35v12.08h6.31v-12.68c-.03-1.39-.16-2.77-.4-4.14-.22-1.26-.77-2.45-1.57-3.45-.76-1-1.79-1.75-2.97-2.17-1.52-.54-3.13-.8-4.74-.78-1.78.03-3.56.16-5.33.38-1.38.21-2.76.6-4.14.79v22.01h0ZM112.4,65.8c-1.51-1.38-3.82-1.38-5.33,0-1.52,1.47-1.57,3.9-.09,5.43,1.47,1.52,3.9,1.57,5.43.09h0c1.52-1.47,1.57-3.89.11-5.42-.03-.04-.07-.07-.11-.11M112.79,75.08h-6.33v22.52h6.33v-22.51h0ZM83.76,97.59h6.31v-14.68c-.04-.74-.17-1.47-.4-2.17.48-.31,1.02-.51,1.59-.59.44-.17.91-.24,1.38-.21,1.06-.07,2.08.37,2.76,1.19.66,1.35.93,2.85.79,4.35v12.08h6.31v-12.61c-.03-1.39-.16-2.77-.4-4.14-.23-1.23-.71-2.4-1.38-3.45-.74-.93-1.68-1.67-2.76-2.17-1.38-.54-2.86-.8-4.35-.78-2.29,0-4.51.76-6.31,2.17-.74-.65-1.62-1.13-2.57-1.4-2.12-.61-4.35-.75-6.52-.4-.87.04-1.73.17-2.57.4-.79.21-1.57.21-2.36.4-.64.21-1.31.35-1.99.4v21.74h6.33v-17.3c.4,0,.78-.19,1.17-.19h1.19c1.06-.07,2.08.36,2.76,1.17.67,1.35.94,2.85.79,4.35l.21,11.85h0ZM53.27,88.52c.03,1.33.16,2.65.4,3.95.27,1.13.73,2.2,1.38,3.16.75.87,1.71,1.55,2.78,1.97,1.37.57,2.86.85,4.35.79,1.2.07,2.4-.07,3.55-.4.88-.17,1.73-.43,2.55-.79l-.98-4.93c-.59.21-1.38.4-1.97.59-.71.17-1.44.24-2.17.21-1.07.16-2.15-.3-2.78-1.19-.53-.97-.8-2.06-.78-3.16v-7.9h7.69v-5.33h-7.64v-6.71l-6.38.78v18.98h0ZM38.08,92.66c-1.14-.23-2.27-.56-3.36-.98l-1.19,5.17c2.45.96,5.08,1.44,7.71,1.4,2.49.14,4.96-.47,7.11-1.72,1.68-1.17,2.65-3.13,2.57-5.17.05-.87-.08-1.75-.4-2.57-.19-.76-.61-1.45-1.19-1.99-.64-.63-1.37-1.16-2.17-1.57-1.14-.61-2.33-1.14-3.55-1.59-.59-.19-1.17-.59-1.72-.79-.36-.14-.69-.34-.98-.59l-.59-.59c0-.21-.21-.4-.21-.6,0-1.17.98-1.57,2.97-1.57,1-.06,2.01.07,2.97.4l2.36.59,1.19-4.93c-.96-.36-1.95-.63-2.97-.79-1.3-.25-2.63-.41-3.95-.47-2.3-.14-4.59.46-6.52,1.72-1.53,1.17-2.41,3-2.36,4.93.01.94.15,1.87.4,2.78.34.73.8,1.4,1.38,1.97.64.58,1.38,1.04,2.17,1.38.79.4,1.72.79,2.76,1.19,1.02.38,2.01.84,2.97,1.38.58.21.97.76.98,1.38.03.58-.28,1.13-.79,1.4-.84.23-1.7.36-2.57.38-.99.13-1.99.07-2.95-.19M13.68,75.67l.79,5.17c.86-.4,1.81-.6,2.76-.59,1.04-.17,2.1-.24,3.16-.21,1.21-.1,2.4.25,3.36.98.61.72.95,1.63.98,2.57v.6c-.51-.17-1.05-.24-1.59-.21-.78,0-1.38-.19-2.15-.19-1.2.03-2.39.16-3.57.4-1.11.21-2.18.61-3.16,1.17-.87.56-1.63,1.29-2.22,2.14-.55,1.03-.82,2.19-.78,3.36,0,1.21.21,2.41.6,3.55.43.95,1.11,1.76,1.97,2.36.91.57,1.92.97,2.97,1.19,1.3.23,2.63.37,3.95.4,1.98-.03,3.96-.16,5.93-.4,1.27-.17,2.51-.44,3.74-.79v-13.23c-.02-1.26-.15-2.51-.4-3.74-.2-1.13-.75-2.17-1.57-2.97-.87-.76-1.88-1.34-2.97-1.72-1.55-.4-3.12-.6-4.74-.6-3.19,0-6.68.55-7.08.74ZM19.02,92.71c-.81-.39-1.22-1.31-.98-2.17,0-.43.14-.85.4-1.19.23-.36.57-.64.98-.78.43-.23.9-.36,1.38-.4.59,0,1.19-.21,1.72-.21h1.42c.4.03.8.1,1.19.21v4.93c-.4,0-.98.19-1.38.19h-1.72c-1.02.04-2.04-.16-2.97-.59M9.78,92.91c-.59-.04-1.17-.17-1.72-.38-.41-.15-.75-.43-.98-.79-.22-.36-.36-.77-.4-1.19,0-.59-.21-.98-.21-1.59v-24.53l-6.47.98v24.69c.01,1.07.15,2.14.4,3.17.21.91.7,1.74,1.38,2.38.8.71,1.74,1.24,2.76,1.57,1.48.41,3.01.61,4.56.6l.69-4.92h0Z"/></g></g></g></svg>