<?xml version="1.0" encoding="UTF-8"?>
<svg id="Layer_1" xmlns="http://www.w3.org/2000/svg" version="1.1" viewBox="0 0 1050 425">
  <!-- Generator: Adobe Illustrator 30.1.0, SVG Export Plug-In . SVG Version: 2.1.1 Build 136)  -->
  <defs>
    <style>
      .st0 {
        fill: #ee028d;
      }
    </style>
  </defs>
  <path class="st0" d="M930.6,261.5l-.2-43.4c0-4.9-4.9-7.9-8.8-7.7s-7.8,3.7-7.8,8.6v42.5c0,0-21.5,0-21.5,0v-42.3c-.1-4.9-3.8-8.4-7.8-8.7s-9.1,3.2-9.1,8.6v42.5c0,0-21.6,0-21.6,0v-69.8s20.4,0,20.4,0v4.5c10.2-7.1,24.8-7.6,33.6,1.8,9.2-7.8,22.5-9.7,33.1-3.6s11,12.4,11,20.6v46.6c0,0-21.4,0-21.4,0Z"/>
  <path class="st0" d="M390.7,219.5c0-5.6-3.5-9-8.2-9.1s-8.5,3.4-8.5,8.7v42.5c0,0-21.5-.1-21.5-.1v-42.4c-.1-4.9-3.8-8.4-8-8.6s-8.7,2.8-8.7,7.7v43.4c-.1,0-21.6,0-21.6,0v-69.6s20.2-.2,20.2-.2v4.9c9.8-7.8,24.6-7.8,33.8,1.3,9.3-7.8,22.6-9.6,33.3-3.2s10.5,11.5,10.5,18.9l.2,47.9h-21.6c0,0,0-42,0-42Z"/>
  <path class="st0" d="M510.6,261.4h-21.5s0-42.4,0-42.4c0-4.9-3.5-8.3-7.6-8.7s-9.1,3.2-9.1,8.6v42.5s-21.6,0-21.6,0v-69.7s20.4,0,20.4,0v4.5c7.8-5.6,18.9-7.3,27.7-2.8s11.6,11.4,11.6,19.5v48.5Z"/>
  <path class="st0" d="M578.5,191.7v69.7s-20.5.2-20.5.2v-4.6c-7.6,5.6-18.6,7.3-27.3,3s-12.1-11.5-12.1-20l-.2-48.2h21.5c0,0,.1,42.9.1,42.9,0,5,4.3,8.2,8.4,8.2s8.5-3.8,8.5-9v-42c0,0,21.6,0,21.6,0Z"/>
  <path class="st0" d="M159.5,262.1c-12.4-.3-20.5-8.2-21.7-19.8s6.2-21.7,18.5-22.7,12.3-.4,18.6-.5c1.7-4.8-1.1-9-5.7-9.8s-10.9,0-15.2,4.3l-13.2-13.1c8.1-11.3,29.7-11.2,41.2-7.3,8.4,2.8,14.8,10.5,14.8,19.8l.2,48.4-20.6.2v-4.9c-4.5,4-10.4,5.6-16.9,5.4ZM175.3,233.5l-11.4.2c-3.1,0-5.8,3.1-5.5,5.9s3.1,5.1,6.5,5.2,6.9-.8,8.6-2.7,1.9-5.1,1.7-8.5Z"/>
  <path class="st0" d="M678.6,238.4l12.9,12.6c-9.4,11.4-25.6,13-38.6,10-23-5.2-25-33.7-19.2-50.6s15.4-19.5,28.4-19.6c15.5-.2,28.3,9.4,31,25,1,5.7.9,11.7.6,17.6h-41.2c-.2,4.1,2.3,7.9,6,9.4,6.9,2.7,14.1,1.5,20.2-4.5ZM672.5,219.2c-.3-7.8-5.2-10.6-10.9-10.5s-9.4,4.1-9.5,10.6h20.4Z"/>
  <path class="st0" d="M828.3,260.6c-7.5,2.4-15.1,2.2-22.1,0-20-6.6-20.3-27.3-18.4-45.1s9-20.4,20-23.2,13.6-1.6,20,.3c20.5,6.2,20.9,27,19.2,44.8s-7.9,19.9-18.7,23.3ZM825.6,218.1c-.5-4.9-3.8-7.7-8-7.8-10.9-.2-9.2,16.4-8.3,25.1s4.1,7.6,8.3,7.5c10.5-.2,8.9-16,8.1-24.8Z"/>
  <path class="st0" d="M247.4,259.8c-12.7,4.5-36,4-45.8-7.8l13.9-13.8c6.1,6.9,25.1,8.2,26,1.3s-2-3.7-3.5-3.8l-14.6-1.6c-4.7-.5-10.2-2.5-13.3-6.2-5.3-6-5.8-14.4-3.1-22.1,6.9-19.1,42.7-18.6,53.9-6.2l-13.1,13.1c-6.2-5.7-24.4-5.2-21.5.8s11.3,3.1,19.8,4.6c10.1,1.7,16.3,10,16.5,19.9s-5.1,18.3-15.2,21.8Z"/>
  <path class="st0" d="M625.3,243.6v17.9c-5.1,0-9.8.2-15-.3-9-.8-17.2-8.4-17.3-17.7l-.3-32.8h-6l-.2-16.1h6.1l.2-20.1h21.4s.1,20.1.1,20.1h10.9v16.1h-10.9v28.6c-.1,1.5,2,4.1,3.4,4.2l7.5.2Z"/>
  <path class="st0" d="M754.1,217.4c-2,8.1-2.5,24.4,7.8,25.4s6.2-1.2,9.7-4.1l14.5,14.6c-8.2,8.1-18.5,9.9-29.1,8.5-25.1-3.4-28.9-31.2-23.4-50.5,3.5-12.2,13.8-19.7,26.4-20.3,9.7-.5,19.2,1.5,26.1,9l-14.6,14.8c-2-2.6-5.4-4.6-8.9-4.5s-7.4,3-8.4,7.1Z"/>
  <path class="st0" d="M306,243.6v17.9c-.1,0-13.9-.3-13.9-.3-10.3-.2-18.4-9-18.4-19.3v-31.4h-6.5v-15.8s6.4-.3,6.4-.3v-20c.1,0,21.2,0,21.2,0v20.1h11l.2,16.1h-11v28.3c0,1.7,2.1,4.4,3.7,4.4l7.3.2Z"/>
  <path class="st0" d="M131.3,243.6v17.9c-5.2,0-9.9.1-15.2-.2-9.8-.7-18-9-18-19.2v-72.7c0,0,21.4,0,21.4,0v69.8c0,2.3,2.2,4.4,4.2,4.4h7.6Z"/>
  <polygon class="st0" points="442 261.3 420.5 261.5 420.5 194.6 442 194.5 442 261.3"/>
  <path class="st0" d="M709.9,234.8c8-1.8,14.8,3.3,16.4,10s-2.8,15-10.1,16.6-14.4-2.4-16.4-9.4,1.8-15.3,10.1-17.2Z"/>
  <path class="st0" d="M430,162.8c7.8-.9,13.5,4.9,14.4,11.1s-4.4,13.9-11,14.8-13.5-3.9-14.8-10.5,3.4-14.5,11.4-15.3Z"/>
</svg>