<svg xmlns="http://www.w3.org/2000/svg" viewBox="0 0 320 180">
  <g id="a4865932-ced2-4c25-a6a1-8804757ce721" data-name="Layer 1">
    <g id="f9fd7438-27b7-4044-b44d-a150d847eb50" data-name="Logo/Customers/Lendable">
      <path id="e2f30b47-c8d3-4279-9954-b30fa431d70a" data-name="Combined-Shape" d="M213.75431,50.72727V70.34906h7.34723c11.86637,0,21.42945,9.09658,21.42945,22.91638,0,14.40291-9.76718,21.69184-21.721,21.69184-5.27717,0-10.93337-1.2537-13.52824-2.88642h0V50.72727Zm-59.71087,0V70.81555h27.28973c8.63009,0,14.25713,3.87771,14.25713,14.05305h0V99.56307c0,8.36769.81637,13.44078,1.34117,15.36505H191.217l-1.25369-5.18971a17.40637,17.40637,0,0,1-12.50779,5.21887c-7.58048,0-13.2367-4.95647-13.2367-13.14922,0-5.65621,2.74064-9.53392,6.96822-11.5165,2.82811-1.42863,6.03523-1.89512,10.26281-2.07006h0l7.66795-.2624V85.24762c0-6.47256-3.936-9.359-9.12573-9.359h0l-25.94858-.17493v35.97813c-2.59486,1.63272-7.58049,2.88641-12.85766,2.88641-11.95384,0-21.37113-7.28892-21.37113-21.69184,0-13.79064,9.32982-22.88722,21.19619-22.88722h6.56V50.72727ZM287.69315,70.34906c10.55438,0,16.18143,8.48431,16.18143,21.89593h-.02915v1.89512H277.57614c.17492,9.06742,5.01478,15.33589,13.87811,15.33589a20.4755,20.4755,0,0,0,10.17533-3.03219h0l2.09922,4.69407a24.69169,24.69169,0,0,1-13.32415,3.79024c-13.09093,0-19.59265-10.26281-19.59265-22.68313C270.812,79.2707,277.57614,70.34906,287.69315,70.34906ZM22.34715,50.72727v53.82142c0,3.49869,1.48694,4.49,3.67362,4.49a8.05833,8.05833,0,0,0,2.624-.64142h0l1.5161,5.248a15.11568,15.11568,0,0,1-6.03523,1.2537c-5.27718,0-8.25107-3.14882-8.25107-8.28022h0V50.72727Zm77.2626,19.91335c6.50172,0,11.83721,4.22757,11.86637,14.95687h0V114.899H106.024l-.20408-26.91071c0-6.3851-1.83682-11.39988-7.72627-11.39988-4.66491,0-9.32982,2.88641-13.20753,6.3851h0v31.89633H78.3844v-42.13h6.32679l.554,4.98562C89.84259,73.76028,94.2451,70.64062,99.60975,70.64062Zm159.54-19.91335V104.228c0,3.49869,1.312,4.49,3.49869,4.49a10.4211,10.4211,0,0,0,2.71146-.554h0l1.5161,5.27718a14.46263,14.46263,0,0,1-5.802,1.34116c-5.27717,0-7.81372-2.97387-7.81372-8.10528h0V50.72727ZM53.10641,69.99919c10.55436,0,16.21057,8.48431,16.21057,21.89593h0v2.245H42.98939c.17493,9.06742,5.01477,15.161,13.87811,15.161A20.58581,20.58581,0,0,0,67.04284,106.094h0l2.09921,4.69406a24.69165,24.69165,0,0,1-13.32416,3.79024c-13.09091,0-19.59263-10.2628-19.59263-22.68313C36.22526,78.92083,42.98939,69.99919,53.10641,69.99919ZM189.11775,92.94472l-7.08484.26241c-3.61531.08746-5.77282.64142-7.60964,1.63272a7.258,7.258,0,0,0-3.67362,6.56c0,4.69407,2.85726,7.93035,7.60964,7.93035,4.52247,0,7.84935-2.65686,9.92276-4.70991l.1999-.19988c.22849-.23065.44045-.45194.6358-.659h0Zm31.54646-16.9103h-6.9099v32.07127c1.312.72889,4.63575,1.16623,6.82243,1.16623,9.56308,0,15.27758-6.32679,15.27758-16.21057,0-10.90423-6.93905-17.02693-15.19011-17.02693ZM147.6,75.68455h-6.23932c-8.25107,0-14.84025,6.1227-14.84025,17.02693,0,9.91294,5.45212,16.21057,15.04434,16.21057A16.59438,16.59438,0,0,0,147.6,107.75582h0V75.68455Zm140.47217.96214c-6.32681,0-10.292,5.83114-10.37943,12.97429h20.14658C297.75188,82.47783,294.66137,76.64669,288.0722,76.64669Zm-234.61592,0c-6.32679,0-10.292,5.83114-10.37943,12.97429H63.22344C63.136,82.47783,60.04547,76.64669,53.45628,76.64669Z" style="fill: #fefefe;fill-rule: evenodd"/>
    </g>
  </g>
</svg>
