<?xml version="1.0" encoding="UTF-8"?>
<svg id="Layer_1" xmlns="http://www.w3.org/2000/svg" version="1.1" viewBox="0 0 614 475">
  <!-- Generator: Adobe Illustrator 30.3.0, SVG Export Plug-In . SVG Version: 2.1.3 Build 182)  -->
  <defs>
    <style>
      .st0 {
        fill: #fff;
      }
    </style>
  </defs>
  <path class="st0" d="M350.9,277.2l10.2-5.9c-3.4-.3-6.5-.6-9.2-2.2l-63.4-36.6c-9.6-5.5-15.4-15-15.5-26.6l-.3-69.7h8.2c0,0,.3,64.6.3,64.6,0,12.3,6.2,21.8,16.4,27.6l64,36.9c2.7,1.6,7,1.6,9.5.2l12.9-7.4c2.9-1.7,5.1-5.3,5.1-9v-56.6c10.5-5.8,18.3-14.8,18.2-26.9v-78.8c-.1-4.6-7.1-7.7-10-8.8.9,1.7,2.6,4.8,2.6,6.9v75.1c0,11.2-5.9,20.8-15.7,26.5l-61.1,35.7-8.3-4.7,50.4-29.1c13.4-7.8,26.3-15.9,26.3-32.6v-75.9c0-3.5-2.2-7.1-5-8.7l-11.4-6.5c1.7,2.6,3.5,5.3,3.5,8.2v73.9c0,11.5-5.5,21.4-15.7,27.4l-59.7,34.9c-2-2.3-3.3-4.4-4.3-7.1l50.2-28.8c11.9-6.9,21.2-15.8,21.3-29.9v-75.9c0-3-2.3-6.7-4.6-8l-12.2-7.1c-3.4-2-7.8-2.1-11.5,0l-48.5,28c-11.4-7.3-23.6-7.7-34.7-1.3l-65.7,38.1c-3.9,2.3-3.1,9.1-3,13.5,1.3-2.2,3.2-5,5.8-6.5l64-36.9c12.2-7,23.8-4.3,35.9,2.7l56.5,32.5v9.5s-60-34.3-60-34.3c-12.1-6.9-23.9-6-35.4.6l-62,35.9c-2.6,1.5-4.9,5-4.9,7.7v13.4c1.4-2.5,3.5-5.1,6.3-6.7l62.7-36.2c10.4-6,21.8-6.1,32.6,0l59.2,33.8c-.7,2.7-2,5.1-4,7.3l-50.3-29.2c-12-7-24.4-10.1-36.5-3.1l-65.9,38c-2.3,1.3-4.1,5.3-4.1,7.7v17.2c.2,2.1,3.1,5.6,5,6.8l49.1,28.3c-.7,13.7,5.2,24.4,16.7,31l64.7,37.2c4.6,2.7,10.2-1.5,14.1-3.8-2.8,0-6.3-.4-9.2-2.1l-63.3-36.6c-9-5.2-15.2-14-15.3-24.9l-.8-72.7,8.5-4.6.4,71.3c0,11.5,6.1,20.9,15.7,26.4l65.3,37.7c2.9,1.7,7.4.6,9.9-.8ZM136.2,423.6v-19.6s-62.4,0-62.4,0v-90.1c0,0-23.8,0-23.8,0v86.2c0,2.8,2.5,6,4.7,7.3l28.2,16.2h53.3ZM169,333.2v-19.5s-23.6,0-23.6,0v19.5s23.6,0,23.6,0ZM233.5,342.9c-10-1-19.7-.5-29.3-.7v-28.4s-23.8.1-23.8.1v109.7s51.4-.5,51.4-.5c22.4-1.2,37.1-18.6,37.1-40.1,0-20.9-13.5-37.9-35.4-40.2ZM470,333.2v-19.5s-23.6,0-23.6,0v19.5s23.6,0,23.6,0ZM341.8,395.8c-2.2,5.6-5.6,8.9-10.5,10.5-13.8,4.4-30.6-1-32.8-16.7h67c4.7-20.9-6.6-40.9-27.6-46.6-12.1-3.3-24.9-3.1-36.7,1.1-17.1,5.9-27,21.1-26.9,38.9s9.4,32.5,26.3,38.5c25.2,9,58.8,2.4,64.2-25.7h-22.9ZM564.1,399c.3-9.1-4.4-16.6-12.8-20.5-7.8-3.6-16.5-4.3-25.2-5.7l-18-2.9c-2-.3-4.4-3.6-4.4-5.3,0-7.3,15.6-9.3,27.2-5.5s6.1,4.4,6.8,8.5h23.7c-2.6-28-42.9-31.4-66.2-22.7-9.9,3.7-15.1,12-15.1,21.6.2,19.8,19.8,22.6,36.3,25l19.3,2.9c2.7.4,4.9,3.9,4.8,6.2-.3,9-18.5,9.4-30.4,6.7-5.1-2-8.6-5.4-9.2-11.4h-23.6c1.7,23.2,23.1,29.3,44.7,29.3s41.5-5.3,42.1-26.1ZM169,423.5v-81.3s-23.5,0-23.5,0v81.2s23.5,0,23.5,0ZM398,423.4v-61.5c0,0,40-.2,40-.2v-19.7c-10.1,1.6-20.6-1.7-30.3,1.2s-19.1,10.8-29,15.6c-2.7,1.3-4.6,5.4-4.6,8.2v56.6s23.8-.2,23.8-.2ZM470,423.5v-81.3s-23.5,0-23.5,0v81.2s23.5,0,23.5,0Z"/>
  <path class="st0" d="M350.9,277.2c-2.5,1.4-7,2.5-9.9.8l-65.3-37.7c-9.6-5.5-15.6-14.9-15.7-26.4l-.4-71.3-8.5,4.6.8,72.7c.1,10.9,6.3,19.7,15.3,24.9l63.3,36.6c2.9,1.7,6.4,2,9.2,2.1-4,2.3-9.5,6.5-14.1,3.8l-64.7-37.2c-11.5-6.6-17.4-17.3-16.7-31l-49.1-28.3c-2-1.1-4.9-4.7-4.9-6.8v-17.2c-.2-2.3,1.6-6.3,4-7.7l65.9-38c12.1-7,24.5-3.9,36.5,3.1l50.3,29.2c2-2.2,3.3-4.6,4-7.3l-59.2-33.8c-10.8-6.2-22.2-6.1-32.6,0l-62.7,36.2c-2.8,1.6-4.9,4.3-6.4,6.7v-13.4c0-2.8,2.4-6.2,5-7.7l62-35.9c11.5-6.7,23.3-7.5,35.4-.6l60,34.3v-9.5s-56.5-32.5-56.5-32.5c-12.2-7-23.7-9.7-35.9-2.7l-64,36.9c-2.6,1.5-4.5,4.3-5.8,6.5,0-4.4-.9-11.2,3-13.5l65.7-38.1c11.1-6.5,23.3-6.1,34.7,1.3l48.5-28c3.6-2.1,8-2,11.5,0l12.2,7.1c2.3,1.4,4.7,5,4.7,8v75.9c0,14.1-9.4,23-21.3,29.9l-50.2,28.8c1,2.7,2.3,4.8,4.3,7.1l59.7-34.9c10.2-6,15.7-15.9,15.7-27.4v-73.9c0-2.9-1.8-5.6-3.4-8.2l11.4,6.5c2.8,1.6,5,5.2,5,8.7v75.9c-.1,16.7-12.9,24.8-26.4,32.6l-50.4,29.1,8.3,4.7,61.1-35.7c9.8-5.7,15.6-15.4,15.6-26.5v-75.1c0-2-1.6-5.2-2.5-6.9,2.9,1.1,9.9,4.1,9.9,8.8v78.8c.1,12.1-7.6,21.1-18.1,26.9v56.6c0,3.7-2.2,7.3-5.1,9l-12.9,7.4c-2.5,1.4-6.8,1.4-9.5-.2l-64-36.9c-10.2-5.9-16.3-15.3-16.4-27.6l-.3-64.6h-8.2c0,0,.3,69.7.3,69.7,0,11.6,5.9,21.1,15.5,26.6l63.4,36.6c2.7,1.6,5.8,1.9,9.2,2.2l-10.2,5.9ZM351.5,71.3c2.2-1.3,1.3-7.5-1.6-8.3l-42.4,24.4,8.2,4.8,35.8-20.9ZM352.5,95.5l-.4-9.3-23.4,13.4,8.1,4.8,15.7-9ZM352.4,113.5v-8.8s-7.8,4.1-7.8,4.1l7.8,4.7ZM329.1,164l-30-17.7-.3,35.1,30.3-17.4ZM243.7,160.5v-9c0,0-7.8,4.6-7.8,4.6l7.8,4.4ZM243.6,169.4l-15.6-8.9-8.1,4.8,23.9,13.7-.2-9.6ZM243.4,203.4l.4-9.3-35.6-20.5c-2.8-1.6-7.8,2.5-6.7,5.5l42,24.3ZM368,246.7c0,3.6,7.8,5.3,7.8,2.5l.3-48.4-8.4,4.9.2,41ZM346.6,236.1l8.1,4.2v-27.2s-8.3,4.8-8.3,4.8v18.2ZM338.9,231.3v-9.2c.1,0-8,4.6-8,4.6l8,4.7Z"/>
  <path class="st0" d="M233.5,342.9c21.8,2.3,35.4,19.2,35.4,40.2,0,21.5-14.7,38.9-37.1,40.1l-51.4.5v-109.7s23.8-.1,23.8-.1v28.4c9.7.1,19.3-.3,29.3.7ZM244.9,382.5c-.1-12.2-7.6-21.8-20-21.8h-20.7c0,0,0,44.8,0,44.8l21.6-.4c12.3-.2,19.2-10.4,19-22.6Z"/>
  <path class="st0" d="M341.8,395.8h22.9c-5.4,28.2-38.9,34.7-64.2,25.7s-26.3-21-26.3-38.5,9.8-33.1,26.9-38.9c11.8-4.2,24.6-4.4,36.7-1.1,20.9,5.7,32.3,25.6,27.6,46.6h-67c2.2,15.7,19,21.1,32.8,16.7,5-1.6,8.3-4.8,10.5-10.5ZM342.7,373.2c-2.1-10.8-11.1-15.2-20.7-15.3s-20.2,4.4-23.1,15.4h43.8Z"/>
  <path class="st0" d="M564.1,399c-.6,20.8-22.2,26.1-42.1,26.1s-43-6.2-44.7-29.3h23.6c.6,6,4.1,9.3,9.2,11.3,11.9,2.7,30.1,2.3,30.4-6.7s-2.1-5.8-4.8-6.2l-19.3-2.9c-16.5-2.4-36.1-5.3-36.3-25,0-9.5,5.2-17.9,15.1-21.6,23.4-8.7,63.6-5.4,66.2,22.6h-23.7c-.7-4.1-3-7.2-6.8-8.5-11.6-3.8-27.2-1.8-27.2,5.5s2.4,5,4.4,5.3l18,2.9c8.7,1.4,17.4,2.2,25.2,5.7,8.4,3.9,13.1,11.4,12.8,20.5Z"/>
  <path class="st0" d="M136.2,423.6h-53.3c0-.1-28.2-16.3-28.2-16.3-2.2-1.3-4.7-4.6-4.7-7.3v-86.2s23.7,0,23.7,0v90.1c0,0,62.5,0,62.5,0v19.6Z"/>
  <path class="st0" d="M398,423.4l-23.7.2v-56.6c0-2.9,1.8-6.9,4.5-8.2,9.9-4.8,18.5-12.4,29-15.6s20.2.4,30.2-1.2v19.7c0,0-39.9.2-39.9.2v61.5Z"/>
  <polygon class="st0" points="169 423.5 145.5 423.5 145.5 342.3 169 342.2 169 423.5"/>
  <polygon class="st0" points="470 423.5 446.5 423.5 446.5 342.3 470 342.2 470 423.5"/>
  <rect class="st0" x="145.5" y="313.8" width="23.5" height="19.5" transform="translate(-.9 .4) rotate(-.2)"/>
  <rect class="st0" x="446.5" y="313.8" width="23.5" height="19.5" transform="translate(-.9 1.2) rotate(-.2)"/>
  <polygon class="st0" points="329.1 164 298.8 181.5 299.1 146.3 329.1 164"/>
  <path class="st0" d="M243.4,203.4l-42-24.3c-1.1-3,3.9-7.1,6.7-5.5l35.6,20.5-.4,9.3Z"/>
  <path class="st0" d="M368,246.7l-.2-41,8.4-4.9-.3,48.4c0,2.8-7.8,1.1-7.8-2.5Z"/>
  <path class="st0" d="M351.5,71.3l-35.8,20.9-8.2-4.8,42.4-24.4c2.9.9,3.8,7,1.6,8.3Z"/>
  <polygon class="st0" points="243.6 169.4 243.8 179 219.9 165.3 228 160.5 243.6 169.4"/>
  <polygon class="st0" points="346.6 236.1 346.5 217.8 354.8 213 354.7 240.2 346.6 236.1"/>
  <polygon class="st0" points="352.5 95.5 336.9 104.6 328.8 99.7 352.2 86.3 352.5 95.5"/>
  <polygon class="st0" points="338.9 231.3 330.9 226.7 339 222.1 338.9 231.3"/>
  <polygon class="st0" points="243.7 160.5 235.8 156.1 243.8 151.5 243.7 160.5"/>
  <polygon class="st0" points="352.4 113.5 344.6 108.8 352.4 104.7 352.4 113.5"/>
  <path class="st0" d="M244.9,382.5c.1,12.2-6.7,22.3-19,22.6l-21.6.4v-44.9c0,0,20.6,0,20.6,0,12.4,0,19.9,9.6,20,21.8Z"/>
  <path class="st0" d="M342.7,373.2h-43.8c2.9-10.9,12.7-15.5,23.1-15.3s18.6,4.5,20.7,15.3Z"/>
</svg>