<svg version="1.1" id="Layer_1" xmlns:x="ns_extend;" xmlns:i="ns_ai;" xmlns:graph="ns_graphs;" xmlns="http://www.w3.org/2000/svg" xmlns:xlink="http://www.w3.org/1999/xlink" x="0px" y="0px" viewBox="0 0 498.6 75" style="enable-background:new 0 0 498.6 75;" xml:space="preserve">
 <style type="text/css">
  .st0{fill-rule:evenodd;clip-rule:evenodd;fill:#FFFFFF;}
 </style>
 <metadata>
  <sfw xmlns="ns_sfw;">
   <slices>
   </slices>
   <sliceSourceBounds bottomLeftOrigin="true" height="75" width="498.6" x="-208.6" y="-213.3">
   </sliceSourceBounds>
  </sfw>
 </metadata>
 <g>
  <path class="st0" d="M0,55.7c8.7-6.9,21.4-16.9,23-18.2l0.3-0.2c7.2-5.7,11.2-8.8,17.2-8.8V0C29.6,0,20.6,2.9,7.9,12.9
		c0,0-3.4,2.6-7.9,6.3V55.7z M57.6,37.5c1.8-1.3,31.2-24.6,31.2-24.6C101.1,2.9,110.4,0,121.2,0v28.5c-6,0-9.9,3.1-17.2,8.8
		l-0.3,0.2c-1.8,1.3-31.2,24.6-31.2,24.6C59.9,72.1,51,75,40.1,75V46.5c6,0,9.9-3.1,17.2-8.8C57.3,37.7,57.6,37.5,57.6,37.5z
		 M138.6,37.5c1.6-1.3,14.3-11.4,23-18.2v36.4c-4.5,3.7-7.9,6.3-7.9,6.3C141,72.1,132,75,121.2,75V46.5c6,0,9.9-3.1,17.2-8.8
		L138.6,37.5z M257,57V20.9h6.3V57H257z M252.2,57.3h-30.4V7.7h6.6v43.6h23.8C252.2,51.2,252.2,57.3,252.2,57.3z M260.1,5.8
		c2.6,0,4.2,1.6,4.2,4.2s-1.6,4.2-4.2,4.2c-2.6,0-4.2-1.6-4.2-4.2S257.5,5.8,260.1,5.8z M286.3,52.3c7.4,0,10-6.9,10-13.2
		s-2.6-13.2-10-13.2c-6.3,0-10,4.8-10,13.2C276.2,51,283.4,52.3,286.3,52.3z M302.4,20.9v38.3c0,9-6.3,14.8-16.1,14.8
		c-9,0-15.3-5-15.6-12.4h6.1c0.3,3.2,2.9,6.9,9.5,6.9c6.1,0,9.8-3.4,9.8-9.5V52c-1.3,2.1-4.2,5.8-10.8,5.8
		c-9.2,0-15.3-7.1-15.3-18.8s5.8-18.7,15.3-18.7c6.6,0,9.5,3.7,10.8,5.8l0.8-5.3C296.8,20.9,302.4,20.9,302.4,20.9z M340.9,57.3
		h-6.3V34.6c0-5.8-2.9-8.7-8.2-8.7c-5.8,0-9.5,4.2-9.5,11.4V57h-6.3V4.8h6.3v21.9c1.6-2.9,4.8-6.3,11.1-6.3c8.2,0,12.9,5,12.9,13.5
		V57.3z M365.8,57.3h-5.5c-6.6,0-9.8-3.2-9.5-10V26.1h-6.1v-5.3h6.1v-9.5h6.1v9.5h8.7v5.3h-8.7V47c0,3.4,1.3,4.8,4.5,4.8h4.5
		L365.8,57.3L365.8,57.3z M403.3,20.9v1.1l-19.8,51.5h-6.3v-1.1l6.1-15.6v-0.3l-14.5-34.9v-0.8h6.6l10.8,28.3l10.6-28.3L403.3,20.9
		L403.3,20.9z M421,25.9c-5.8,0-9.5,3.4-9.8,9.8h19C430.2,29.6,426.8,25.9,421,25.9z M436.8,40.9h-25.6c0,7.1,3.7,11.4,9.5,11.1
		c4.8,0,7.9-1.8,9-5.5h6.3c-0.8,6.6-7.1,11.1-15.1,11.1c-9.8,0-16.4-7.4-16.4-18.8c0-11.6,6.1-18.8,16.4-18.8
		c9.8,0,15.8,6.9,15.8,17.7C436.8,37.8,436.8,40.9,436.8,40.9z M454.5,52.6c5.8,0,10-4.2,10-9.5v-2.9h-8.7c-5.8,0-8.7,2.1-8.7,6.3
		C447.1,50.4,449.7,52.6,454.5,52.6z M470.6,57.3h-5.3l-0.5-5.3c-2.1,3.7-6.3,5.8-11.4,5.8c-7.4,0-12.7-4.8-12.7-11.4
		c0-7.1,5.5-11.4,15.1-11.4h8.7V33c0-4.8-3.2-7.4-8.2-7.4c-4.5,0-7.7,2.6-7.7,6.3h-6.1c0-6.9,5.5-11.6,13.7-11.6
		c8.7,0,14.3,5,14.3,12.7L470.6,57.3L470.6,57.3z M498.6,20.6v6.1h-2.9c-6.6,0-9.8,4.2-9.8,12.9V57h-6.3V20.9h5.5l0.5,6.3
		c1.3-4,5-6.6,9.5-6.6L498.6,20.6L498.6,20.6z">
  </path>
 </g>
</svg>