<?xml version="1.0" encoding="utf-8"?>
<!-- Generator: Adobe Illustrator 27.9.0, SVG Export Plug-In . SVG Version: 6.00 Build 0)  -->
<svg version="1.1"
	 id="Layer_1" xmlns:sodipodi="http://sodipodi.sourceforge.net/DTD/sodipodi-0.dtd" xmlns:cc="http://creativecommons.org/ns#" xmlns:inkscape="http://www.inkscape.org/namespaces/inkscape" xmlns:svg="http://www.w3.org/2000/svg" xmlns:dc="http://purl.org/dc/elements/1.1/" xmlns:rdf="http://www.w3.org/1999/02/22-rdf-syntax-ns#" inkscape:output_extension="org.inkscape.output.svg.inkscape" inkscape:version="0.46" sodipodi:docname="notice_of_meeting_2006.svg" sodipodi:version="0.32"
	 xmlns="http://www.w3.org/2000/svg" xmlns:xlink="http://www.w3.org/1999/xlink" x="0px" y="0px" viewBox="0 0 288.6 110.5"
	 style="enable-background:new 0 0 288.6 110.5;" xml:space="preserve">
<style type="text/css">
	.st0{fill:#FFFFFF;}
	.st1{fill:#14B67A;}
	.st2{fill:#006A4D;}
</style>
<rect x="0" class="st1" width="288.6" height="110.5"/>
<g>
	<g>
		<path d="M165.3,74.2c-9.4,0.1-16.5-7-16.5-16.6c0-9.6,7.1-16.6,16.5-16.6c9.3,0,16.5,6.9,16.5,16.6
			C181.8,67.4,174.5,74.2,165.3,74.2z M175.7,57.6c0-1.5-0.1-2.9-0.6-4.3c-0.8-2.3-2-4.1-4.1-5.4c-2.6-1.6-5.4-1.8-8.3-1.2
			c-3.2,0.7-5.5,2.5-6.8,5.6c-1.3,3.2-1.4,6.5-0.3,9.8c0.9,2.7,2.6,4.6,5.1,5.8c2,0.9,4.2,1.1,6.4,0.8c2.7-0.4,5-1.6,6.6-3.9
			C175.2,62.6,175.7,60.2,175.7,57.6z"/>
		<path d="M214.9,41.5c0.2,0,0.4,0,0.5,0c3.7,0,7.4,0,11.1,0c3.8,0,7.3,1.1,10.4,3.4c2.2,1.7,3.8,3.9,4.8,6.5c1,2.6,1.3,5.3,1,8.1
			c-0.4,3.6-1.6,6.9-4.2,9.5c-2.3,2.3-5.1,3.7-8.3,4.3c-1.3,0.2-2.7,0.4-4,0.4c-3.6,0.1-7.1,0-10.7,0c-0.2,0-0.3,0-0.5,0
			c0.2-0.8,0.3-1.5,0.4-2.3c0.1-0.8,0.2-1.5,0.2-2.3c0-7.7,0-15.4,0-23.1c0-1.4-0.4-2.7-0.6-4.1C215,41.8,215,41.7,214.9,41.5z
			 M221.7,57.6c0,3.4,0,6.8,0,10.2c0,0.5,0.2,0.6,0.6,0.6c1.4-0.1,2.8-0.1,4.2-0.1c1.6,0,3.1-0.4,4.6-1c2.2-0.9,3.8-2.5,4.6-4.7
			c1-2.6,1.1-5.3,0.6-8c-0.9-4.6-4.1-7.1-8.5-7.6c-1.9-0.2-3.8-0.1-5.6-0.2c-0.4,0-0.6,0.1-0.6,0.6
			C221.7,50.8,221.7,54.2,221.7,57.6z"/>
		<path d="M266.1,49.3c-0.2-0.1-0.4-0.2-0.6-0.4c-1.6-1-3.2-1.9-5-2.5c-2.1-0.6-4.2-0.8-6.3-0.1c-1.1,0.4-1.9,1.1-2.1,2.3
			c-0.2,1.3,0.2,2.6,1.3,3.4c0.8,0.5,1.7,0.9,2.5,1.3c2.4,1,4.9,2,7.3,3.1c2.2,1,3.9,2.6,4.7,5c1.4,4.3-0.1,9-4.5,11.2
			c-2,1-4.1,1.4-6.3,1.5c-3.5,0.1-6.9-0.6-10.1-2.1c-0.2-0.1-0.4-0.3-0.4-0.5c-0.1-2-0.1-3.9-0.1-5.9c0-0.1,0-0.2,0.1-0.3
			c0.2,0.1,0.4,0.2,0.6,0.3c1.8,1.1,3.6,2.2,5.6,2.9c2.4,0.8,4.8,0.9,7.2,0.1c2.2-0.8,3.2-3.1,2.1-5c-0.5-0.8-1.2-1.4-2-1.8
			c-2-0.9-4.1-1.8-6.1-2.6c-1.5-0.6-3-1.3-4.4-2.3c-2.4-1.8-3.5-4.2-3.4-7.3c0.2-4.4,3-7.1,6.9-8.2c3.3-0.9,6.6-0.6,9.9,0.3
			c0.9,0.3,1.9,0.7,2.8,1c0.2,0.1,0.3,0.3,0.3,0.5c0,1.9,0,3.8,0,5.7C266.2,49.1,266.1,49.2,266.1,49.3z"/>
		<path d="M204.3,41.5c2.2,0,4.4,0,6.7,0c-0.1,0.5-0.2,0.9-0.3,1.3c-1.8,6.1-4.7,11.7-8.8,16.5c-0.6,0.7-1.2,1.4-1.9,2.1
			c-0.3,0.3-0.4,0.5-0.4,0.9c0,3.6,0,7.2,0,10.9c0,0.4-0.1,0.6-0.6,0.6c-1.6,0-3.3,0-4.9,0c-0.2,0-0.3,0-0.5,0c0-0.2,0-0.4,0-0.6
			c0-3.5,0-7,0-10.6c0-0.5-0.2-0.9-0.5-1.3c-3-3.2-5.5-6.7-7.5-10.6c-1.4-2.8-2.5-5.7-3.3-8.7c0-0.1-0.1-0.3-0.1-0.5
			c0.2,0,0.4,0,0.5,0c2,0,3.9,0,5.9,0c0.4,0,0.5,0.1,0.6,0.5c0.5,4.3,2.4,8,4.7,11.6c0.8,1.2,1.7,2.3,2.6,3.6
			C200.4,52.5,203.5,47.6,204.3,41.5z"/>
		<path d="M127,73.7c0.2-1.1,0.4-2.2,0.6-3.2c0.1-0.6,0.1-1.1,0.1-1.7c0-7.5,0-14.9,0-22.4c0-1.4-0.2-2.8-0.6-4.2
			c-0.1-0.2-0.1-0.4-0.1-0.7c2.5,0,5,0,7.5,0c-0.1,0.7-0.3,1.3-0.4,2c-0.1,0.9-0.3,1.9-0.3,2.8c0,7.2,0,14.3,0,21.5
			c0,0.5,0.1,0.6,0.6,0.6c3.4-0.1,6.8,0,10.3-0.1c1,0,1.9-0.3,2.9-0.4c0.2,0,0.3-0.1,0.5-0.1c0,0.1,0,0.3,0,0.4
			c-0.5,1.7-1.1,3.5-1.6,5.2c-0.1,0.3-0.2,0.4-0.5,0.4c-6.1,0-12.3,0-18.4,0C127.3,73.8,127.2,73.7,127,73.7z"/>
		<path d="M103,73.7c0.2-0.8,0.3-1.5,0.5-2.2c0.1-0.8,0.3-1.6,0.3-2.5c0-7.6,0-15.3,0-22.9c0-1.4-0.4-2.8-0.6-4.1
			c0-0.2-0.1-0.3-0.1-0.5c2.5,0,5,0,7.5,0c-0.2,0.8-0.4,1.5-0.5,2.3c-0.1,0.9-0.3,1.7-0.3,2.6c0,7.2,0,14.3,0,21.5
			c0,0.4,0.1,0.6,0.6,0.6c3.5-0.1,6.9,0,10.4-0.1c1,0,1.9-0.3,2.9-0.4c0.2,0,0.3-0.1,0.5-0.1c0,0.2,0,0.3-0.1,0.5
			c-0.5,1.7-1.1,3.4-1.6,5c-0.1,0.3-0.2,0.5-0.6,0.5c-6.2,0-12.3,0-18.5,0C103.3,73.8,103.2,73.7,103,73.7z"/>
	</g>
	<g>
		<path d="M43.6,70.8c-0.9,1.1-2,1.9-3.2,2.6c-0.5,0.3-1,0.7-1.2,1.3C39.1,75,39,75.3,39,75.6c-0.1,1.4,0.2,2.7,0.5,4
			c0.3,1.2,0.6,2.3,0.9,3.5c0.3,1,0.9,1.9,1.6,2.6c0.1,0.1,0.2,0.2,0.3,0.2c0.6,0.3,1,0.8,1.4,1.4c0.3,0.4,0.7,0.9,1.1,1.4
			c-0.1,0-0.2,0-0.3,0c-1.6,0-3.3,0-4.9,0c-0.2,0-0.3-0.1-0.3-0.3c0-0.4,0-0.7,0-1.1c0-0.2-0.1-0.3-0.2-0.4c-0.3-0.2-0.6-0.4-1-0.7
			C38.1,86.2,38,86.1,38,86c-0.1-0.8-0.2-1.6-0.3-2.4c-0.4-2.8-1.2-5.5-2.3-8c-0.4-0.8-0.8-1.6-1.2-2.4c0,0,0-0.1-0.1-0.1
			c0.1-0.1,0.2-0.2,0.4-0.3c0.9-0.7,1.7-1.5,2.2-2.5c0.8-1.5,0.9-3,0.2-4.5c-0.3-0.7-0.6-1.4-1-2.1c-1-2-1.1-4.1-0.1-6.2
			c0.2-0.5,0.6-1,0.9-1.6c-0.4-0.8-1.4-1.4-2.5-1.4c-0.9,0-1.8,0.7-2.1,1.5c-0.4,1-0.3,2.7,1,3.5c-0.5,1-1.9,0.9-3.1-0.2
			c0,0.6,0.1,1.1,0.3,1.6c0.4,1.1,1.1,2,1.6,3c0.5,0.9,1,1.7,1.2,2.7c0.5,2.2-0.6,4.4-2.6,5.2c-1.7,0.6-3.2,0.3-4.6-0.8
			c-0.4-0.3-0.8-0.8-1.1-1.2c-0.1-0.1-0.1-0.2-0.2-0.4c0.4,0,0.7,0.1,1,0.1c1.7,0.1,2.7-0.9,2.5-2.5c-0.1-1.1-0.7-1.9-1.3-2.8
			c-0.8-1.1-1.5-2.2-2.3-3.3c-0.8-1.2-1.4-2.5-1.6-3.9c-0.4-2-0.1-3.9,1.1-5.6c0.8-1.2,2-2,3.4-2.4c2.8-0.8,5.5-0.4,8,1.2
			c1.1,0.7,2,1.7,2.8,2.8c0.3,0.4,0.5,0.8,0.8,1.1c0.6-0.3,1.2-0.7,1.8-0.9c1.1-0.5,2.2-0.7,3.4-0.8c1.5-0.1,3-0.2,4.5-0.3
			c1.6-0.1,3.3-0.2,4.9-0.5c1.3-0.3,2.6-0.7,3.7-1.6c0.7-0.5,1.2-1.1,1.4-2c0.1-0.3,0-0.6,0-0.9c-0.1-0.4-0.4-0.6-0.8-0.6
			c-0.4,0-0.6,0.1-0.8,0.4c-0.1,0.1-0.1,0.2-0.2,0.3c-0.5-0.4-0.9-0.9-1-1.6c-0.1-0.9,0-1.7,0.6-2.4c0.1-0.2,0.1-0.3,0-0.4
			c-0.5-0.7-1.3-0.8-1.9-0.2c-0.1,0.1-0.1,0.1-0.2,0.2c-0.9-1.3-0.8-4,2-5c-0.4-0.1-0.8-0.2-1.2-0.4c-1.2-0.5-1.9-1.3-2.1-2.5
			c-0.1-0.5,0-1,0-1.5c0.2,0.1,0.3,0.2,0.4,0.2c0.3,0.2,0.7,0.3,1,0c0.3-0.2,0.4-0.6,0.4-1c-0.1-0.9-0.7-1.4-1.3-2
			c-0.1-0.1-0.1-0.1-0.2-0.1c-0.4-0.3-0.4-0.3-0.1-0.6c0.7-0.8,1.5-1.4,2.6-1.5c0.7-0.1,1.3-0.1,2,0.3c-0.7-1.2-0.6-2.4,0.2-3.7
			c0,0.1,0.1,0.2,0.1,0.2c0.4,0.4,1,0.6,1.6,0.6c1,0,1.7-0.6,2.3-1.4c0.3-0.3,0.5-0.6,0.8-0.9c0.3-0.3,0.7-0.5,1.2-0.6
			c0,0.3,0,0.6,0.1,0.9c0.1,0.5,0.3,0.9,0.8,1c0.6,0.1,1.1-0.1,1.4-0.5c0.3-0.4,0.5-0.8,0.7-1.2c0.2-0.4,0.3-0.8,0.4-1.3
			c0-0.1,0.1-0.2,0.1-0.3c0.7,0.4,1,1,1,1.8c0.2-0.5,0.5-0.9,0.7-1.4c0.4,0.3,0.6,0.7,0.7,1.1c0.1,0.5,0.1,1-0.1,1.5
			c-0.1,0.5-0.1,0.6,0.3,0.9c0.3,0.3,0.7,0.5,1,0.9c0.5,0.5,0.7,1.1,0.4,1.8c-0.1,0.2,0,0.3,0.1,0.4c1.4,1.7,2.7,3.5,4.1,5.1
			c1.3,1.5,0.1,3.4-1.3,3.7c-0.8,0.2-1.5,0.1-2.2-0.3c-0.2-0.2-0.4-0.4-0.5-0.6c-0.1-0.1-0.1-0.2-0.2-0.2c-1.2-0.6-2.4-1.2-3.6-1.7
			c0,0-0.1,0-0.1,0c-0.4,0.6-0.5,1.3-0.4,2.1c0.1,1.2,0.8,2.2,1.8,2.9c0.8,0.7,1.7,1.3,2.6,2c1.2,0.9,2.2,2,2.8,3.4
			c0.1,0.3,0.2,0.6,0.3,0.9c0.1,0.2,0.1,0.3,0.3,0.2c1.8-0.6,3.6-1.2,5.4-1.8c0.2-0.1,0.4-0.1,0.6,0.1c2.4,2.4,4.9,4.7,7.6,6.8
			c1.1,0.9,2.4,1.8,3.6,2.6c0.2,0.1,0.3,0.2,0.4,0.4c0.5,0.6,1,1.2,1.4,1.8c0,0.1,0.1,0.1,0.2,0.2c-0.1,0-0.2,0-0.3,0
			c-1.6,0-3.3,0-4.9,0c-0.2,0-0.3-0.1-0.3-0.3c0-0.4,0-0.7,0-1.1c0-0.2,0-0.3-0.2-0.3c-0.3-0.1-0.5-0.2-0.8-0.2
			c-0.3-0.1-0.5-0.2-0.7-0.5c-1.3-2-3-3.6-5.1-4.8c-0.5-0.3-0.9-0.5-1.4-0.7c-0.1,0-0.2,0-0.3,0c-1.9,1.1-3.5,2.5-5,4.2
			c0,0,0,0,0,0.1c0.3,0,0.6,0,0.9-0.1c1.4,0,2.8,0,4.2,0.1c1.1,0.1,2.2,0.3,3.3,0.4c0.2,0,0.3,0.1,0.2,0.3c-0.1,1-0.2,1.9-0.3,2.9
			c-0.1,1-0.2,1.9-0.3,2.9c-0.1,0.8-0.2,1.6-0.3,2.4c-0.1,1-0.2,1.9-0.3,2.9c-0.1,1.1-0.7,2.1-1,3.1c-0.1,0.4-0.4,0.7-0.7,1
			c-0.7,0.6-1.4,1.2-2.1,1.8c-0.1,0.1-0.2,0.2-0.4,0.3c0-0.1,0-0.2,0-0.3c0-1.6,0-3.2,0-4.7c0-0.3,0.1-0.3,0.3-0.3
			c0.4,0,0.8,0,1.3,0c-0.1-0.5-0.3-0.9-0.4-1.4c0-0.2,0-0.4,0-0.5c0.5-1.4,1-2.8,1.2-4.3c0.1-0.9,0.2-1.8,0.2-2.7c0-0.2,0-0.3,0-0.5
			c0-0.2-0.1-0.3-0.3-0.3c-0.6,0.2-1.3,0.3-1.8,0.6c-1.6,0.7-2.9,1.7-4.3,2.8c-0.8,0.7-1.6,1.3-2.7,1.7c-0.9,0.3-1.8,0.3-2.7,0.3
			c-0.2,0-0.4,0-0.5,0.2c-1.1,1.1-2.5,1.9-4,2.5c-1.8,0.8-3.7,1.2-5.6,1.6c-1.8,0.3-3.7,0.5-5.5,0.5c-0.2,0-0.3,0-0.3,0.2
			c-0.2,1.8-1.2,3.3-2.3,4.7c-0.8,0.9-1.6,1.8-2.4,2.8c-0.4,0.5-0.7,0.9-0.9,1.5c-0.2,0.6,0.1,1.1,0.3,1.6c0.6,1,1.2,2,1.8,3
			c0.9,1.4,1.9,2.8,2.9,4.1c0.8,1,1.8,1.9,3,2.5c0.1,0,0.1,0.1,0.2,0.1c0.6,0.7,1.1,1.4,1.7,2.1c0,0,0,0.1,0.1,0.1
			c-0.1,0-0.2,0-0.3,0c-1.6,0-3.3,0-4.9,0c-0.2,0-0.3-0.1-0.3-0.3c0-0.4,0-0.8,0-1.2c0-0.1-0.1-0.2-0.2-0.3
			c-0.4-0.2-0.8-0.4-1.1-0.6c-0.1-0.1-0.2-0.2-0.3-0.3c-1.2-2.2-2.7-4.3-4.4-6.2c-1.1-1.2-2.3-2.4-3.5-3.5c-0.2-0.2-0.3-0.3-0.1-0.6
			c0.6-1.2,1-2.4,1.2-3.7C43.6,71.7,43.6,71.3,43.6,70.8z"/>
		<path class="st2" d="M63.4,27.1c0,0-6.1,4.6-3.1,11.9c0,0,1.1,3.8,7.6,5.2c0,0,3.2,0.7,4,2.6c0,0-4-2.8-7.4,0.9
			c0,0-1.7,1.7-3.4,4.4c-1.7,2.7-4.5,6.6-7.9,8.2c0,0,1.7-3.8-3.4-4.7s-9.1,0.2-10.9,1.8s-1.7,4.3-1.7,4.3s-1.4-4.1,2.9-6.4
			c4.3-2.3,10.2-1,14-2.2c3.8-1.2,4.4-1.6,6.2-3.6c1.8-2-0.4-5.2-0.7-5.9c-0.3-0.7-2.6-4.9-1.4-9.6S63.4,27.1,63.4,27.1z"/>
		<path class="st2" d="M33.9,51.6c0,0-2.1-2-5.7-1.1c-3.6,0.9-3.8,4-3.6,5.3c0,0,0.3-2.2,1.9-3.1c0,0,0,0.9,0.6,1.5
			C27.1,54.3,27.7,49.5,33.9,51.6z"/>
		<path class="st2" d="M67.6,25.8c0,0,2.3,2.2-0.6,3.7c0,0,2-0.4,3.5,1.5s2.3,2.7,2.2,3.6c0,0.9-0.5,1.8,0.7,1.8c0,0,0.4,0,0.7-0.2
			c0,0-1.2-1.7,0.1-1.5c0,0,0.7,0,0.5-0.3c0,0-4.2-5.3-4.7-5.9C70,28.4,71.7,27.1,67.6,25.8z"/>
	</g>
</g>
</svg>
