<?xml version="1.0" encoding="UTF-8"?>
<svg id="Layer_1" xmlns="http://www.w3.org/2000/svg" version="1.1" viewBox="0 0 999.7 390.9">
  <!-- Generator: Adobe Illustrator 30.3.0, SVG Export Plug-In . SVG Version: 2.1.3 Build 182)  -->
  <defs>
    <style>
      .st0 {
        fill: #737bbc;
      }

      .st1 {
        fill: #fff;
      }

      .st2 {
        fill: #372c4b;
      }
    </style>
  </defs>
  <path class="st1" d="M332.8,265.4h-.2c0,29.3,0,58.6,0,88,0,4.6,2.1,6.3,6.3,6.3,8.5,0,17-.2,25.4,0,5.6.1,7.8-2.2,7.8-7.8-.1-27.5,0-55,0-82.4,0-.9.2-2.1.8-2.8.8-.9,1.7,0,2.5.6,25,18.2,52.9,25.1,83.2,18.6,41.1-8.7,67.9-34,80.7-73.6,7.7-23.8,6-47.7-3.3-70.9-8.3-20.5-21.6-36.9-40.4-48.9-31.1-19.9-63.8-22.7-98-9.1-14.4,5.7-26.7,14.6-37.1,26.1-16.6,18.2-26.6,39.7-27.5,64.2-1.1,30.6-.3,61.2-.3,91.8ZM999.4,187.2c0,0,.1,0,.2,0,0-35,0-70,0-105,0-4.7-1.8-6.9-6.7-6.8-8.9.2-17.7,0-26.6,0-4.1,0-6.1,1.7-6.1,6,0,45.4,0,90.8,0,136.1,0,2-.4,3.9-1.7,5.3-20.5,23.3-48.4,30.2-77,18.8-23-9.2-40.3-34.5-40.3-59.3,0-33.2,0-66.5,0-99.7,0-3.5-.3-7.3-5.4-7.3-9.7,0-19.3,0-29,0-3.1,0-5.2,1.7-5.2,4.9,0,33.9,0,67.8,0,101.6,0,14.6,3,28.6,9.1,41.9,13.4,29,35.1,48.8,65.6,58.3,27.6,8.6,54.5,5.9,80.2-7.5,2.7-1.4,3.6-.3,3.5,2.2,0,7.5-.2,15-1.6,22.5-4.3,23.5-16.4,40.6-39,49.6-3.6,1.4-9.1,1-9.1,7.1,0,9.9,0,19.8,0,29.7,0,3.6,2.1,5.2,5.5,5,6.6-.5,12.9-2.1,19.1-4.4,40.4-14.9,63.1-54.9,64.2-94.8.9-34.8.2-69.7.2-104.5ZM777.9,228.5c0-2.7,0-5.4,0-8.1-.9-22.1,2-44.3-3.3-66.3-10-41.8-51.7-76.6-94.6-78.9-49.5-2.6-91.3,25.9-107.5,71.3-8.3,23.2-8.2,47.3.4,70.8,11.8,32.1,33.7,54.5,66.2,65.2,34.5,11.4,66.8,5.8,96.3-15.5.6-.4,1.6-.7,2.1-.5.5.3.9,1.3.9,2,0,4.1,0,8.2,0,12.2.1,3.8,1.9,6,6.1,6,9.1-.1,18.2,0,27.3,0,4,0,6.1-1.8,6-5.9,0-17.4,0-34.8,0-52.2ZM288.4,173.3c3.4,0,6.9,0,10.3,0,8.6,0,9.8-1.5,8.3-10.1-.3-1.6-.6-3.3-1-4.9-8.4-33.6-27.9-58.4-59.4-73-29.7-13.7-60-13.5-89.3.8-34.4,16.7-54.4,44.7-59.3,82.7-4.4,34.3,6.4,64.1,30.3,88.7,14.8,15.3,33.4,24.8,54.4,28.7,4.2.8,10.9,4.1,11.4-4.3.6-9.1.2-18.2.1-27.3,0-2.7-1.4-4.5-4-5.2-3.1-.8-6.2-1.3-9.2-2.3-38.1-13-56.9-56-40.8-92.6,11.1-25.1,39.9-46.7,75.9-39.9,24.5,4.7,48.1,24.4,53.9,54.8.5,2.5,1.9,4.1,4.8,4,4.6-.1,9.1,0,13.7,0ZM212.1,267.7c0,4.7,0,9.4,0,14.1.1,4.3,2.5,6.3,6.7,5.6,10.7-1.6,21-4.6,30.7-9.6,32.6-16.7,51.8-43.3,58.1-79.2.7-3.9-1.4-6.4-5.4-6.4-9.4-.1-18.7,0-28.1,0-2.5,0-4.4,1.3-5.1,3.9-7,28-24.4,45.5-52.4,52.5-3,.7-4.7,2.5-4.6,5.9.2,4.4,0,8.8,0,13.2ZM294.9,290.4c8.3,0,15.2-7.1,15.2-15.7,0-8.7-7.2-15.8-15.9-15.8-8.5,0-15.6,7.1-15.6,15.8,0,8.9,7,15.7,16.3,15.7ZM216.9,212.4c0,9,6.6,15.8,15.5,15.9,8.6.1,15.8-7,15.8-15.7,0-9-6.7-15.7-15.7-15.7-9,0-15.6,6.6-15.6,15.5Z"/>
  <path class="st0" d="M35.6,0c3.8,3.4,2.7,7.9,2.7,12.2,0,56.6-.6,113.3.4,169.9.5,29.2,12.1,53.3,41.5,64.4,6.7,2.5,7.9,6,7.6,12.2-.4,7.9,0,15.8-.1,23.7,0,3.9-2.2,5.7-5.9,4.9-40.3-9.1-66.1-33.6-77.7-73.1C.9,203.5,0,192.5,0,181.3c0-56.6,0-113.1,0-169.7,0-4.1-.9-8.5,2.9-11.6h32.6Z"/>
  <path class="st2" d="M332.8,265.4c0-30.6-.8-61.2.3-91.8.8-24.5,10.8-45.9,27.5-64.2,10.5-11.5,22.7-20.3,37.1-26.1,34.2-13.6,66.8-10.8,98,9.1,18.7,12,32.1,28.4,40.4,48.9,9.3,23.2,11,47.1,3.3,70.9-12.8,39.6-39.6,64.9-80.7,73.6-30.3,6.4-58.2-.4-83.2-18.6-.8-.6-1.7-1.5-2.5-.6-.6.6-.8,1.8-.8,2.8,0,27.5-.1,55,0,82.4,0,5.6-2.2,8-7.8,7.8-8.5-.2-16.9,0-25.4,0-4.2,0-6.4-1.7-6.3-6.3,0-29.3,0-58.6,0-88h.2ZM438.5,248.1c36.7,0,66.5-29.8,66.6-66.5,0-36.5-30.2-67.2-66.5-66.7-39.4.5-66.6,31.2-66.5,66.6.2,37.9,30,66.7,66.4,66.6Z"/>
  <path class="st2" d="M999.4,187.2c0,34.8.7,69.7-.2,104.5-1,39.9-23.8,79.9-64.2,94.8-6.1,2.3-12.5,3.9-19.1,4.4-3.4.3-5.5-1.3-5.5-5,0-9.9,0-19.8,0-29.7,0-6.1,5.5-5.6,9.1-7.1,22.6-9,34.7-26.1,39-49.6,1.4-7.5,1.5-15,1.6-22.5,0-2.5-.8-3.6-3.5-2.2-25.7,13.4-52.6,16.1-80.2,7.5-30.5-9.5-52.3-29.3-65.6-58.3-6.1-13.3-9.1-27.3-9.1-41.9-.1-33.9,0-67.8,0-101.6,0-3.3,2-4.9,5.2-4.9,9.7,0,19.3,0,29,0,5,0,5.4,3.8,5.4,7.3,0,33.2,0,66.5,0,99.7,0,24.8,17.2,50.1,40.3,59.3,28.5,11.3,56.4,4.5,77-18.8,1.3-1.5,1.7-3.3,1.7-5.3,0-45.4,0-90.8,0-136.1,0-4.3,2-6.1,6.1-6,8.9,0,17.8.1,26.6,0,4.9-.1,6.7,2.1,6.7,6.8,0,35,0,70,0,105,0,0-.1,0-.2,0Z"/>
  <path class="st2" d="M778,228.5c0,17.4,0,34.8,0,52.2,0,4.1-2,5.9-6,5.9-9.1,0-18.2,0-27.3,0-4.2,0-5.9-2.2-6.1-6-.1-4.1,0-8.1,0-12.2,0-.7-.4-1.7-.9-2-.5-.3-1.5,0-2.1.5-29.5,21.3-61.8,26.9-96.3,15.5-32.5-10.7-54.5-33.2-66.2-65.2-8.6-23.4-8.7-47.5-.4-70.8,16.2-45.4,58-73.9,107.5-71.3,42.9,2.3,84.6,37.1,94.6,78.9,5.3,22,2.4,44.2,3.3,66.3.1,2.7,0,5.4,0,8.1ZM672.2,248.1c36.5.2,65.8-29.8,66.2-65.3.4-37.6-29.4-67.9-66.2-68-36,0-67,29.7-66.6,68.4.4,35.2,30.5,64.9,66.6,64.9Z"/>
  <path class="st0" d="M288.4,173.3c-4.6,0-9.1,0-13.7,0-2.9,0-4.3-1.5-4.8-4-5.7-30.4-29.4-50.1-53.9-54.8-36-6.8-64.8,14.7-75.9,39.9-16.1,36.7,2.7,79.7,40.8,92.6,3,1,6.2,1.5,9.2,2.3,2.7.7,4,2.5,4,5.2,0,9.1.5,18.2-.1,27.3-.6,8.4-7.2,5.1-11.4,4.3-21-4-39.6-13.4-54.4-28.7-23.9-24.6-34.7-54.3-30.3-88.7,4.9-38.1,25-66,59.3-82.7,29.3-14.2,59.6-14.5,89.3-.8,31.5,14.6,51,39.4,59.4,73,.4,1.6.7,3.3,1,4.9,1.6,8.6.4,10.1-8.3,10.1-3.4,0-6.9,0-10.3,0Z"/>
  <path class="st2" d="M212.1,267.7c0-4.4.2-8.8,0-13.2-.2-3.4,1.6-5.2,4.6-5.9,28-7,45.4-24.5,52.4-52.5.6-2.6,2.5-3.9,5.1-3.9,9.4,0,18.7-.1,28.1,0,4,0,6.1,2.5,5.4,6.4-6.3,35.9-25.5,62.5-58.1,79.2-9.7,4.9-20,7.9-30.7,9.6-4.3.7-6.6-1.3-6.7-5.6-.1-4.7,0-9.4,0-14.1Z"/>
  <path class="st2" d="M294.9,290.4c-9.3,0-16.3-6.8-16.3-15.7,0-8.6,7.1-15.7,15.6-15.8,8.7,0,15.9,7.1,15.9,15.8,0,8.6-6.9,15.7-15.2,15.7Z"/>
  <path class="st2" d="M216.9,212.4c0-8.9,6.6-15.5,15.6-15.5,9,0,15.7,6.7,15.7,15.7,0,8.7-7.2,15.8-15.8,15.7-8.9-.1-15.5-6.9-15.5-15.9Z"/>
</svg>