<?xml version="1.0" encoding="utf-8"?>
<!-- Generator: Adobe Illustrator 26.5.0, SVG Export Plug-In . SVG Version: 6.00 Build 0)  -->
<svg version="1.1" id="Layer_1" xmlns="http://www.w3.org/2000/svg" xmlns:xlink="http://www.w3.org/1999/xlink" x="0px" y="0px"
	 viewBox="0 0 250.5 83.4" style="enable-background:new 0 0 250.5 83.4;" xml:space="preserve">
<style type="text/css">
	.st0{fill:#081F2C;}
	.st1{fill:#E40946;}
</style>
<g>
	<g>
		<g>
			<g>
				<g>
					<path class="st0" d="M37.3,50.3c0-6.7-3.5-9.1-9-9.1c-5.2,0-8.7,2.8-10.7,5.4v35.6H0V27h17.6v4.8l-2.2,4
						c3.3-3.9,12-10.2,21.2-10.2c12.5,0,18.2,7.3,18.2,17.4v39H37.3V50.3z"/>
					<path class="st0" d="M97.4,73.9c-3.4,3.9-11.6,9.5-20.8,9.5c-12.5,0-18.1-7.1-18.1-17.2V27H76v32c0,6.6,3.4,8.9,9.1,8.9
						c5,0,8.4-2.7,10.5-5.4V27h17.6v55.1H95.6V78L97.4,73.9z"/>
					<path class="st0" d="M200,25.6c16.3,0,28.2,12,28.2,30.7v3.8h-37.9l-1.5-2c0,0.7,0.1,1.6,0.3,2.4c1.3,4.9,5.9,9.4,13.9,9.4
						c4.9,0,10.4-1.9,13.5-4.7l7.4,10.9c-5.5,4.9-14.6,7.3-23,7.3c-17,0-30.1-11.1-30.1-29C170.7,38.5,182.8,25.6,200,25.6z
						 M188.7,48.7h22.7c-0.5-3.9-3.3-9.5-11.4-9.5C192.4,39.2,189.4,44.7,188.7,48.7z"/>
					<path class="st0" d="M231.7,27h17.6v55.1h-17.6V27z"/>
				</g>
				<polygon class="st0" points="156.6,27 144.8,59.8 145.2,64.9 131.7,27 116.7,27 116.7,35.9 134.9,82.1 153.6,82.1 175.2,27 				
					"/>
			</g>
			<path class="st1" d="M230.5,10c0-5.6,4.4-10,10-10c5.6,0,10,4.4,10,10c0,5.6-4.4,10-10,10C234.9,20.1,230.5,15.6,230.5,10z"/>
		</g>
	</g>
</g>
</svg>
