<svg preserveAspectRatio="xMidYMid meet" viewBox="0 0 168 40" fill="none" xmlns="http://www.w3.org/2000/svg">
<path d="M137.711 5.22388L130.292 24.2909C130.2 24.5273 130.034 24.7134 129.836 24.8039C129.615 24.902 129.375 24.9071 129.157 24.8165C128.938 24.726 128.765 24.5499 128.683 24.3311L121.394 5.22388H115.575L123.305 25.5358C124.047 27.4851 125.624 28.9866 127.522 29.555C128.126 29.7361 128.738 29.8216 129.342 29.8216C131.944 29.8216 134.394 28.2195 135.359 25.6742L143.101 5.22639H137.711V5.22388Z" fill="#101014"></path>
<path d="M107.063 5.22336V7.55738C104.912 5.86975 102.269 4.94922 99.5442 4.94922C92.7322 4.94922 87.1914 10.5906 87.1914 17.5247C87.1914 24.4589 92.7322 30.1002 99.5442 30.1002C102.269 30.1002 104.912 29.1797 107.063 27.4921V29.8261H112.494V5.22588H107.063V5.22336ZM107.369 17.5247C107.369 21.7853 103.997 25.2511 99.8501 25.2511C95.7032 25.2511 92.3311 21.7853 92.3311 17.5247C92.3311 13.2641 95.7032 9.79834 99.8501 9.79834C103.997 9.79834 107.369 13.2641 107.369 17.5247Z" fill="#101014"></path>
<path d="M155.647 4.94978C148.835 4.94978 143.294 10.5912 143.294 17.5253C143.294 24.4594 148.835 30.1008 155.647 30.1008C160.438 30.1008 165.202 26.9293 166.977 22.5605L167.18 22.06H161.672L161.564 22.2034C160.085 24.14 157.929 25.2517 155.647 25.2517C152.378 25.2517 149.427 22.9906 148.464 19.814H167.812L167.847 19.4896C167.855 19.4343 168 18.1063 168 17.5228C168 10.5886 162.459 4.94727 155.647 4.94727V4.94978ZM148.464 15.2366C149.427 12.06 152.378 9.7989 155.647 9.7989C158.917 9.7989 161.865 12.06 162.83 15.2366H148.464Z" fill="#101014"></path>
<path d="M71.5767 4.94922C68.8514 4.94922 66.2089 5.86975 64.0577 7.55738V5.22336H58.6272V39.9997H64.0577V27.4921C66.2089 29.1797 68.8514 30.1002 71.5767 30.1002C78.3887 30.1002 83.9295 24.4589 83.9295 17.5247C83.9295 10.5906 78.3887 4.94922 71.5767 4.94922ZM78.7898 17.5247C78.7898 21.7853 75.4177 25.2511 71.2708 25.2511C67.124 25.2511 63.7518 21.7853 63.7518 17.5247C63.7518 13.2641 67.124 9.79834 71.2708 9.79834C75.4177 9.79834 78.7898 13.2641 78.7898 17.5247Z" fill="#101014"></path>
<path d="M16.7879 0H4.36244C2.05142 0 0.177979 1.87938 0.177979 4.19771V12.0549C0.177979 14.3732 2.05142 16.2526 4.36244 16.2526H16.7879C19.099 16.2526 20.9724 14.3732 20.9724 12.0549V4.19771C20.9724 1.87938 19.099 0 16.7879 0Z" fill="#4065FF"></path>
<path d="M31.5355 16.2526C36.0093 16.2526 39.6361 12.6143 39.6361 8.1263C39.6361 3.63827 36.0093 0 31.5355 0C27.0616 0 23.4348 3.63827 23.4348 8.1263C23.4348 12.6143 27.0616 16.2526 31.5355 16.2526Z" fill="#4065FF"></path>
<path d="M22.9255 35.0508H35.4513C37.7623 35.0508 39.6357 33.1714 39.6357 30.8531V22.9179C39.6357 20.5996 37.7623 18.7202 35.4513 18.7202L22.9255 18.7202C20.6145 18.7202 18.741 20.5996 18.741 22.9179V30.8531C18.741 33.1714 20.6145 35.0508 22.9255 35.0508Z" fill="#4065FF"></path>
<path d="M8.13824 35.0507C12.6329 35.0507 16.2765 31.3955 16.2765 26.8867C16.2765 22.3778 12.6329 18.7227 8.13824 18.7227C3.64361 18.7227 0 22.3778 0 26.8867C0 31.3955 3.64361 35.0507 8.13824 35.0507Z" fill="#4065FF"></path>
</svg>