<?xml version="1.0" encoding="UTF-8"?>
<svg id="Layer_1" xmlns="http://www.w3.org/2000/svg" version="1.1" viewBox="0 0 124 37">
  <!-- Generator: Adobe Illustrator 30.3.0, SVG Export Plug-In . SVG Version: 2.1.3 Build 182)  -->
  <defs>
    <style>
      .st0 {
        fill: #fff;
      }

      .st1 {
        fill: #5a28fe;
      }
    </style>
  </defs>
  <rect class="st1" x="0" y="0" width="124" height="37.1"/>
  <path class="st0" d="M19.7,10.1c-.7-.4-1.6-.6-2.6-.6h-6.5v15.7h2.8v-6h3.7c1,0,1.9-.2,2.6-.6.7-.4,1.3-1,1.7-1.7.4-.7.6-1.6.6-2.5,0-.9-.2-1.8-.6-2.5-.4-.7-1-1.3-1.7-1.7M18.9,15.5c-.2.4-.4.7-.8.9-.4.2-.8.3-1.3.3h-3.4v-4.8h3.4c.8,0,1.4.2,1.8.7.4.5.6,1,.6,1.7s0,.9-.3,1.2M42.6,13.9l-4.7,13.1c-.3,1-.8,1.7-1.4,2.1-.6.4-1.3.7-2.1.7h-1.4v-2.2h1.2c.4,0,.7-.1,1-.4.3-.3.7-1.4.8-1.8l-4.2-11.5h2.7l2.7,8.1c.2-.7,2.7-8.1,2.7-8.1h2.7ZM50.9,19.6c.5.5.7,1.2.7,2.2s-.2,1.3-.5,1.8c-.4.5-.9,1-1.5,1.3-.6.3-1.3.5-2,.5h-.9c-.7,0-1.4-.1-2.1-.4-.6-.3-1.2-.7-1.5-1.2-.4-.6-.5-1.3-.6-2h2.6c0,.5.1,1,.4,1.3.4.3.7.4,1.1.4h.8c.4,0,.8-.1,1.1-.3.3-.2.4-.5.4-1s-.1-.7-.3-.9c-.2-.2-.5-.3-1-.4l-2.2-.4c-.9-.2-1.6-.5-2.1-1.1-.5-.5-.7-1.2-.7-2.1s.2-1.2.5-1.8c.4-.5.8-.9,1.4-1.2.6-.3,1.2-.4,1.9-.4h.9c.7,0,1.3.1,1.9.4.6.3,1.1.7,1.4,1.2.4.5.6,1.4.6,2.1h-2.5c0-.4,0-.9-.4-1.2-.3-.3-.6-.4-1-.4h-.7c-.4,0-.7.1-.9.3-.2.2-.4.5-.4.8s.1.5.3.8c.2.2.5.4.9.4l2.2.5c1,.2,1.7.5,2.2,1M62,22.7c0-.1-.1-.3-.1-.6v-4.2c0-.8-.2-1.5-.5-2.1-.3-.6-.8-1.2-1.5-1.5-.6-.4-1.4-.5-2.2-.5h-.8c-.7,0-1.5.2-2.1.5-.6.3-1.2.8-1.6,1.4-.4.6-.6,1.1-.7,1.9h2.6c0-.5.2-.8.5-1.1.3-.3.8-.4,1.3-.4h.8c.3,0,.5,0,.8.3.2.2.4.4.6.7s.2.6.2,1v.2l-3,.4c-1.2.2-2.2.6-2.9,1.2-.7.6-1.1,1.4-1.1,2.4s.2,1.2.5,1.7c.3.5.7.9,1.3,1.1s1.2.4,2,.4c.8,0,1.5-.2,2.1-.5.6-.3,1.1-.7,1.4-1.3,0,.5.2.9.5,1.2.3.3.8.4,1.3.4h1.8v-2.2c-.3,0-.6,0-.8,0-.2,0-.3-.1-.4-.2M59.3,20.5c0,.6-.1,1-.3,1.5-.2.4-.5.8-1,1-.4.2-.9.4-1.4.4s-.8-.1-1.1-.4c-.3-.2-.4-.6-.4-1,0-.5.2-.9.5-1.1.3-.2.8-.4,1.5-.5l2.3-.4v.6ZM33.1,22.9c-.3,0-.6,0-.8,0-.2,0-.3-.1-.4-.2,0-.1-.1-.3-.1-.6v-4.2c0-.8-.2-1.5-.5-2.1-.3-.6-.8-1.2-1.5-1.5-.6-.4-1.4-.5-2.2-.5h-.8c-.8,0-1.5.2-2.1.5-.6.3-1.2.8-1.6,1.4-.4.6-.6,1.1-.7,1.9h2.6c0-.5.2-.8.5-1.1.3-.3.8-.4,1.3-.4h.8c.3,0,.5,0,.8.3.2.2.4.4.6.7.1.3.2.6.2,1v.2l-3,.4c-1.2.2-2.2.6-2.9,1.2s-1.1,1.4-1.1,2.4.2,1.2.5,1.7c.3.5.7.9,1.3,1.1.6.3,1.2.4,2,.4s1.5-.2,2.1-.5c.6-.3,1.1-.7,1.4-1.3,0,.5.2.9.5,1.2.3.3.8.4,1.3.4h1.8v-2.2ZM29.2,20.5c0,.6-.1,1-.3,1.5-.2.4-.6.8-1,1-.4.2-.9.4-1.4.4s-.8-.1-1.1-.4c-.3-.2-.4-.6-.4-1,0-.5.2-.9.5-1.1.3-.2.8-.4,1.5-.5l2.3-.4v.5ZM70.3,16h-3.1v9.1h-2.6v-9.1h-2.2v-2.2h2.2v-1.1c0-1.1.3-1.9.8-2.5.5-.6,1.3-.9,2.3-.9h2.6v2.2h-1.8c-.4,0-.8.1-1,.3-.2.2-.3.6-.3,1v.8h3.1v2.2ZM78.4,14.4c-.7-.5-1.5-.7-2.4-.7h-.9c-.8,0-1.6.2-2.4.7-.8.5-1.4,1.2-1.8,2-.5.9-.7,1.9-.7,3s.2,2.1.6,3c.4.9,1,1.6,1.8,2.1.8.5,1.6.7,2.5.7h.8c.8,0,1.5-.2,2.2-.5.7-.3,1.2-.8,1.6-1.4.4-.6.7-1.3.8-2h-2.5c0,.5-.3.9-.7,1.2-.4.3-.8.5-1.3.5h-.8c-.4,0-.8-.2-1.2-.5-.4-.3-.6-.7-.8-1.3-.2-.4-.2-.9-.3-1.3h7.7c0,0,0-.7,0-1,0-1-.2-1.9-.6-2.7-.4-.8-1-1.5-1.7-2M73,18.1c0-.2.1-.5.2-.7.2-.6.5-1,.9-1.3.4-.3.7-.4,1.1-.4h.8c.4,0,.7.1,1,.3.3.2.6.5.7.9.2.4.3.8.3,1.2h-5ZM113.5,17.4h0c0,0,0,.2,0,.2l-7.8,7.8s0,0-.1,0h0c0,0-.2,0-.2-.2v-7.9c0,0,0,.2,0,.2l-7.8,7.8c0,0-.1,0-.2,0h0c0,0-.2,0-.2,0l-7.8-7.8c0,0,0-.1,0-.2h0c0,0,0-.2,0-.2l7.8-7.8c0,0,.1,0,.2,0h0c0,0,.2,0,.2,0l7.8,7.8c0,0,0,.1,0,.2v-7.9c0,0,0-.2.2-.2h0s0,0,.1,0l7.8,7.8c0,0,0,.1,0,.2"/>
</svg>