<?xml version="1.0" encoding="UTF-8"?><svg id="guides" xmlns="http://www.w3.org/2000/svg" viewBox="0 0 288 148"><defs><style>.cls-1{fill:#191c35;}.cls-2{fill:#ff671f;}</style></defs><path class="cls-1" d="M144.13,88.21c-5.19-1.79-7.95-7.46-6.16-12.65.01-.03.02-.07.03-.1,1.87-5.26,7.66-8.01,12.92-6.14,5.26,1.87,8.01,7.66,6.14,12.92-.02.05-.03.09-.05.14-1.91,5.15-7.64,7.78-12.79,5.87-.03-.01-.06-.02-.09-.04M154.12,60.78c-10.02-3.6-21.06,1.55-24.74,11.54l-13.79,37.87c4.77,1.74,10.05-.72,11.78-5.49l5.08-13.97c2.25,2.76,5.21,4.85,8.56,6.05,9.89,3.71,20.92-1.31,24.62-11.2,0-.02.01-.04.02-.06,3.6-10.02-1.55-21.06-11.54-24.74"/><path class="cls-1" d="M235.46,47.51c-4.76-1.73-10.02.72-11.76,5.48l-16.53,44.68c4.76,1.73,10.02-.72,11.76-5.48l16.53-44.68Z"/><path class="cls-1" d="M198.35,82.42c-2,5.22-7.84,7.83-13.06,5.83-5.07-1.94-7.7-7.53-5.97-12.67,1.83-5.28,7.59-8.07,12.87-6.24,5.28,1.83,8.07,7.59,6.24,12.87-.02.07-.05.14-.07.21M213.93,66.62c-5.44-2.66-9.57.17-9.43.33-2.45-2.81-5.61-4.92-9.14-6.1-10.03-3.56-21.06,1.64-24.7,11.64-3.51,9.96,1.72,20.89,11.68,24.4.02,0,.04.01.06.02,3.35,1.21,6.96,1.5,10.45.82,2.82-.76,7.22-2.05,10.08-.81l4.07-11.37c.06-.16.1-.32.15-.48l6.79-18.44Z"/><path class="cls-2" d="M43.69,86.88c-9.05,0-16.38-7.33-16.38-16.38,0-9.05,7.33-16.38,16.38-16.38,9.04,0,16.38,7.33,16.38,16.38,0,9.05-7.33,16.38-16.38,16.38h0M67.23,58.98c-6.37-13-22.06-18.37-35.06-12.01-4.26,2.09-7.87,5.29-10.45,9.26-.96,1.3-1.73,2.73-2.28,4.24L0,114.2c4.64,1.69,10.73-.57,12.41-5.21l3.33-10.09s1.26-3.59,1.27-3.56l4.16-11.43c7.4,12.44,23.49,16.52,35.93,9.11,3.99-2.38,7.28-5.77,9.53-9.84-3.77-7.68-3.55-16.72.6-24.21"/><path class="cls-2" d="M116.74,54.53l-15.05,42.82c8.48-1.41,14.13-8.5,16.38-16.4l12.54-34.32c-6.64-2.24-11.62,1.27-13.86,7.9"/><path class="cls-2" d="M76.57,71.65c0-9.04,7.33-16.38,16.37-16.38,4.99,0,9.71,2.27,12.82,6.18l3.47-10.41c-11.39-9-27.91-7.06-36.91,4.33-9,11.39-7.06,27.91,4.33,36.91,6.26,4.95,14.44,6.78,22.21,4.98l4.62-13.06c-6.93,5.81-17.26,4.91-23.07-2.02-2.48-2.95-3.83-6.68-3.83-10.53"/><path class="cls-2" d="M244.15,59.64l2.2-5.94c3.39-9.41,13.77-14.3,23.18-10.91,9.41,3.39,14.3,13.77,10.91,23.18-.04.11-.08.21-.12.32l-2.2,5.94c-2.26-2.24-4.77-4.22-7.47-5.9l1.18-3.18c1.77-4.68-.58-9.91-5.26-11.68-4.68-1.77-9.91.58-11.68,5.26-.02.04-.03.08-.05.13l-1.18,3.19c-3.15-.49-6.34-.62-9.51-.39"/><path class="cls-2" d="M259.71,82.81c-.48,1.26-1.5,2.23-2.78,2.65l-1.94,10.09-8.5-3.15,5.1-8.92c-.7-1.15-.84-2.56-.38-3.82.87-2.35,3.47-3.54,5.82-2.67,2.35.87,3.54,3.47,2.67,5.82M240.16,62.35c-2.36,3.03-4.23,6.41-5.56,10.01-5.49,14.82-1.02,30.52,9.85,38.59,13.51.96,27.13-8.03,32.62-22.85,1.34-3.6,2.12-7.39,2.3-11.22-9.43-11.65-24.47-17.22-39.21-14.53"/><path class="cls-2" d="M284.81,47.42c.11,0,.22,0,.32-.01.09,0,.18-.03.27-.07.07-.04.14-.1.18-.17.05-.1.08-.2.07-.31,0-.09-.02-.19-.08-.26-.05-.06-.12-.11-.19-.15-.08-.04-.17-.06-.25-.07-.09,0-.19-.01-.27-.01h-.72v1.06h.67ZM284.14,49.48h-.6v-3.63h1.38c.35-.02.69.06.99.25.24.19.36.49.33.8.02.27-.08.53-.27.72-.19.16-.43.25-.67.27l1.02,1.59h-.68l-.94-1.55h-.56v1.55ZM287.3,47.61c0-.37-.06-.74-.19-1.09-.12-.32-.3-.61-.53-.86-.22-.24-.5-.43-.8-.56-.31-.13-.64-.2-.98-.2-.34,0-.68.06-.99.2-.3.13-.58.32-.8.56-.23.25-.41.54-.53.86-.13.35-.2.72-.19,1.09,0,.36.06.71.18,1.05.11.32.28.61.5.86.22.25.49.45.79.58.33.15.69.22,1.05.21.34,0,.67-.06.98-.2.3-.13.57-.32.8-.56.23-.25.41-.54.53-.85.13-.35.2-.72.19-1.1M288,47.61c0,.46-.08.92-.26,1.34-.32.78-.95,1.39-1.73,1.7-.39.16-.8.24-1.22.24-.45,0-.89-.08-1.3-.25-.38-.16-.73-.39-1.02-.69-.29-.3-.51-.65-.67-1.04-.16-.41-.24-.86-.24-1.3,0-.46.08-.92.26-1.34.32-.78.95-1.39,1.73-1.7.39-.16.81-.24,1.23-.24.42,0,.84.08,1.22.24.78.31,1.4.92,1.73,1.7.18.42.27.88.26,1.34"/></svg>