<?xml version="1.0" encoding="UTF-8"?>
<svg id="Layer_1" xmlns="http://www.w3.org/2000/svg" version="1.1" viewBox="0 0 78 24">
  <!-- Generator: Adobe Illustrator 30.3.0, SVG Export Plug-In . SVG Version: 2.1.3 Build 182)  -->
  <defs>
    <style>
      .st0 {
        fill: #6008ff;
      }
    </style>
  </defs>
  <g id="Styles_x2F_Plum-logotypes_x2F_Full">
    <g id="Mask">
      <path id="path-1" class="st0" d="M16,1.7c-1.5,1.5-2,3.6-1.6,5.8,0,.4.4.8.8.8,2.2.4,4.4-.1,5.8-1.6,1.5-1.5,2-3.6,1.6-5.8,0-.4-.4-.8-.8-.8-.5,0-1-.1-1.5-.1-1.7,0-3.2.6-4.3,1.7ZM16.5,6.4c0-1.2.3-2.4,1.1-3.1.8-.8,1.9-1.1,3.1-1.1,0,1.2-.3,2.4-1.1,3.1-.7.7-1.7,1.1-2.8,1.1s-.2,0-.3,0ZM0,12.6c0,6.3,5.1,11.4,11.3,11.4s11.3-5.1,11.3-11.4-.2-2.5-.6-3.6c-2,1.6-4.6,2.1-7.2,1.6-1.3-.3-2.4-1.3-2.6-2.6-.5-2.4,0-4.7,1.2-6.6-.7-.1-1.4-.2-2.1-.2C5.1,1.2,0,6.3,0,12.6ZM14.4,15.7c.4-.4,1.1-.4,1.5,0,.4.4.4,1.1,0,1.5-1.2,1.2-2.9,1.9-4.6,1.9s-3.4-.7-4.6-1.9c-.4-.4-.4-1.1,0-1.5.4-.4,1.1-.4,1.5,0,.8.8,1.9,1.3,3.1,1.3s2.3-.5,3.1-1.3ZM44.1,18.1h2.4V2.5h-2.4v15.6ZM70.4,9.3c-.7-1.1-1.8-1.7-3.2-1.7s-2.2.5-2.8,1.3v-1.1h-2.3v10.4h2.4v-5.9c0-1.4.9-2.4,2.2-2.4s1.9.9,1.9,2.4v5.9h2.4v-6.3c.1-1.2.9-2,2.1-2s2,.9,2,2.4v5.9h2.4v-6.3c0-2.5-1.6-4.2-3.9-4.2s-2.6.7-3.3,1.7ZM33.1,8.9v-1.2h-2.3v15.4h2.4v-6.1c.7.8,1.8,1.2,3.1,1.2,3,0,5-2.1,5-5.4s-2.1-5.4-5-5.4-2.6.5-3.3,1.4ZM33.2,13.2v-.5c0-1.9,1.1-3,2.8-3s2.9,1.2,2.9,3.3-1.2,3.3-2.9,3.3-2.8-1.1-2.8-3ZM56.2,7.7v5.9c0,1.4-.8,2.4-2.1,2.4s-2-.8-2-2.3v-6h-2.4v6.4c0,2.5,1.5,4.2,3.8,4.2s2.2-.5,2.8-1.3v1.1h2.3V7.7h-2.4Z"/>
    </g>
  </g>
</svg>