<?xml version="1.0" encoding="UTF-8"?>
<svg id="Layer_1" xmlns="http://www.w3.org/2000/svg" version="1.1" viewBox="0 0 663 286">
  <!-- Generator: Adobe Illustrator 30.1.0, SVG Export Plug-In . SVG Version: 2.1.1 Build 136)  -->
  <defs>
    <style>
      .st0 {
        fill: #21262e;
      }
    </style>
  </defs>
  <path class="st0" d="M404.1,128.5c-8.2-7.4-18.1-11.1-29.6-11.1s-21.2,3.6-29.5,11.1c-8.2,7.3-12.4,17.4-12.4,30.3s4.2,23.1,12.4,30.5c8.2,7.3,18.2,10.9,29.5,10.9s21.4-3.6,29.6-10.9c8.4-7.4,12.6-17.5,12.6-30.5s-4.2-23.1-12.6-30.3ZM359,175.5c-4.3-4.3-6.5-9.8-6.5-16.6s2.2-12.3,6.5-16.4c4.3-4.3,9.5-6.3,15.5-6.3s11.3,2.1,15.7,6.3c4.5,4.1,6.7,9.6,6.7,16.4s-2.2,12.3-6.7,16.6c-4.3,4.1-9.6,6.2-15.7,6.2s-11.1-2.1-15.5-6.2Z"/>
  <path class="st0" d="M446,198.1v-108.4h-19.5v108.4h19.5Z"/>
  <path class="st0" d="M509.1,119.7v43.3c0,10.4-5.5,17.3-16.1,17.3s-16.1-6.9-16.1-17.3v-43.3h-19.6v46.6c0,18,11.2,34,35.7,34h.2c24.3,0,35.5-16.3,35.5-34v-46.6h-19.6Z"/>
  <path class="st0" d="M311.8,119.7l-19.5,53.1-19.5-53.1h-20.8l31.2,78.4h18.3l31.2-78.4h-20.8Z"/>
  <path class="st0" d="M252.1,156.7c0-11.4-3.6-20.7-10.5-28.1-7-7.4-16-11.1-27-11.1s-20.9,4-28.8,11.7c-7.8,7.7-11.6,17.5-11.6,29.7s3.9,22.1,11.5,29.9c7.8,7.7,17.1,11.5,28.1,11.5,16.9,0,28.8-7.6,36.1-22.9l-14.6-8.5c-4.8,9.6-11.8,14.4-21.2,14.4s-19.8-7.6-21.1-19.6h59.2v-7h0ZM213.9,132.6c11,0,18.3,6.3,20.2,16.4h-41.2c3-9.3,11-16.4,21.1-16.4Z"/>
  <path class="st0" d="M174.1,198.1l-26.2-46.8c16.6-6.2,24.8-16.9,24.8-32.5,0-19.1-14.9-31.3-38.6-31.3h-46.4v110.6h20.5v-44.9h17.4l25.1,44.9h23.4ZM134.1,105.8c12.1,0,18.1,4.9,18.1,14.5s-6.1,14.5-18.1,14.5h-25.9v-29.1h25.9Z"/>
  <path class="st0" d="M561.8,200.3c-12.6,0-22.8-10.4-22.8-23.2v-78.5h19.5v21.2h16.8v16.1h-16.8v39.9c0,3.8,3,6.8,6.7,6.8h10.1v17.7h-13.5Z"/>
</svg>