<svg width="686" height="80" viewBox="0 0 686 80" fill="none" xmlns="http://www.w3.org/2000/svg">
<path d="M147.497 79.2383L126.62 51.6719H118.431V79.2383H93.8398V6.9419H130.357C157.185 6.9419 174.325 14.3929 174.325 29.295C174.325 39.7217 164.637 45.6968 151.234 49.4104L175.087 79.2145H147.521L147.497 79.2383ZM128.881 19.6063H117.693V39.7217H129.619C142.283 39.7217 148.996 35.9842 148.996 30.0329C149.734 22.5819 143.783 19.6063 128.881 19.6063ZM235.433 51.6481V79.2145H210.842V52.386L175.063 6.91809H201.892L212.318 21.8202C216.794 27.7715 221.269 35.2463 222.745 38.9599C224.245 35.2225 228.696 27.7715 233.172 21.8202L243.598 6.91809H270.427L235.409 51.6243L235.433 51.6481ZM328.607 79.2383L321.894 64.3362H291.328L284.615 79.2383H259.286L294.303 6.9419H318.156L353.174 79.2383H328.583H328.607ZM312.943 43.4591C310.705 38.2457 307.73 29.295 306.23 25.5814C305.492 29.3188 302.492 36.7698 300.279 42.7211L296.541 51.6719H316.657L312.919 43.4829L312.943 43.4591ZM420.995 79.2383L395.666 47.1965C391.929 42.7211 387.477 36.7698 385.239 32.2944C385.239 36.7698 385.977 44.2209 385.977 48.6962V79.2621H363.624V6.96571H388.215L412.068 39.0075C415.043 43.4829 420.257 50.1959 423.256 53.9096C423.256 49.4342 422.518 41.2452 422.518 36.7698V6.96571H444.871V79.2621H421.019L420.995 79.2383ZM523.857 79.2383L517.144 64.3362H486.578L479.865 79.2383H454.536L489.554 6.9419H514.144L549.162 79.2383H523.833H523.857ZM508.193 43.4591C505.955 38.2457 502.98 29.295 501.48 25.5814C500.742 29.3188 497.743 36.7698 495.529 42.7211L491.791 51.6719H511.907L508.169 43.4829L508.193 43.4591ZM558.874 79.2383V6.9419H583.465V79.2383H558.874ZM658.737 79.2383L637.122 51.6719H628.933V79.2383H604.342V6.9419H640.86C667.688 6.9419 684.828 14.3929 684.828 29.295C684.828 39.7217 675.139 45.6968 661.737 49.4104L685.59 79.2145H658.761L658.737 79.2383ZM640.098 19.6063H628.909V39.7217H640.836C653.5 39.7217 660.213 35.9842 660.213 30.0329C660.951 22.5819 655 19.6063 640.098 19.6063Z" fill="#063688"/>
<path d="M53.6091 3.96618C58.8224 5.46591 64.0358 6.94183 69.2491 7.70359H72.9865C75.2242 7.70359 76.7239 6.96564 78.9378 6.20387H79.6758C79.6758 6.69585 79.4298 7.19575 78.9378 7.70359C75.9622 9.94128 72.9865 11.441 69.9871 12.179C69.2491 12.179 67.7494 12.9169 67.0114 12.9169C63.274 14.4167 58.8224 14.4167 55.085 14.4167C47.634 13.6787 40.9209 11.441 33.4699 11.441C26.7568 10.703 20.0438 13.6787 16.3301 18.892C15.5922 21.8677 14.0925 24.8433 14.0925 27.8428C14.0925 30.8422 18.5678 31.5802 20.0438 33.7941L22.2814 38.2695C23.0194 41.2451 24.5191 44.2208 26.7568 47.2202C28.2566 48.72 29.7325 50.9577 31.9702 51.6956C34.9458 53.9333 37.1835 56.171 38.6832 59.1466C40.183 62.1223 41.6589 64.36 42.4206 67.3356C43.1586 68.8354 43.9204 70.3113 43.9204 72.549V73.2869C44.6583 74.7867 44.6583 76.2626 45.4201 77.0243V77.7623C45.4201 78.5003 46.1581 80 45.4201 80C43.9204 78.5003 43.1824 77.0243 42.4445 75.5246C41.7065 72.549 39.4688 69.5733 37.2311 66.5739C35.7314 65.0741 34.2555 62.8364 32.7557 61.3605C26.8044 54.6475 17.8537 50.1721 11.1406 44.2208C11.1406 44.2208 11.1406 43.4828 10.4026 42.721C9.66469 41.2213 8.90292 40.4834 8.16496 38.9836C6.66523 36.008 4.42754 33.0323 2.95162 29.2949C2.95162 27.7952 2.21366 26.3193 2.21366 24.8195V24.0816C2.21366 22.5818 -1.52376 21.8439 0.71393 18.8682C2.21366 17.3685 6.66523 15.8926 8.16496 12.9169V11.4172C8.16496 11.4172 8.16496 10.6792 7.427 10.6792C6.68904 10.6792 4.45135 12.179 4.45135 9.94129V7.70359C5.18931 6.20387 5.18931 4.72795 5.18931 3.22822C5.18931 2.49026 5.92727 2.49025 6.68904 2.49025C7.4508 2.49025 8.92673 1.75229 9.66469 1.75229C11.9024 1.75229 14.878 1.75229 16.3778 3.25201C17.1157 4.75174 16.3778 6.22768 16.3778 7.7274C16.3778 9.22713 14.878 9.96509 15.6398 10.7031H17.1395C20.1152 8.46536 23.0908 5.48971 26.0903 2.51406C28.328 0.27637 32.0416 -0.461598 35.041 0.276364C41.7541 0.276364 46.9674 2.51405 53.6805 4.01378L53.6091 3.96618Z" fill="#F1C931"/>
<path d="M36.4686 15.8926C37.2066 17.3923 36.4686 18.1303 35.7307 19.63C31.9932 24.8433 30.5173 31.5564 28.2796 37.5077H27.5417C26.8037 37.5077 26.8037 36.7697 26.8037 36.008C26.8037 29.2949 29.0414 23.3436 32.017 17.3685C32.755 16.6305 33.5168 15.1308 34.9927 15.8688C35.7307 15.1308 35.7307 15.8688 36.4924 15.8688L36.4686 15.8926ZM46.8953 17.3685C47.6333 19.6062 46.1573 21.1059 45.3956 23.3198C41.6582 30.7708 37.2066 38.2218 34.9689 46.4108C34.9689 46.4108 34.9689 47.1488 34.2309 47.1488H33.493C32.755 44.1731 33.493 40.4357 34.2309 37.4601C36.4686 30.747 38.7063 24.0339 42.4199 17.3447C43.1579 17.3447 43.1579 16.6067 43.1579 16.6067C44.6576 16.6067 46.1335 16.6067 46.8953 17.3447V17.3685ZM57.322 18.1302C58.0599 18.8682 58.0599 20.3679 57.322 21.1059C52.8466 30.7946 46.1335 38.9836 43.1579 49.4341L40.9202 56.1472C40.9202 56.8851 40.1822 56.8851 40.1822 56.1472C39.4443 55.4092 40.1822 53.9095 40.1822 53.1715C40.9202 44.9825 43.1579 36.7697 46.8953 30.0805C48.395 26.343 50.6327 23.3674 52.1086 19.6538C52.8466 18.9158 53.6084 17.4161 55.0843 17.4161C55.8223 17.4161 56.584 17.4161 57.322 18.1541V18.1302ZM69.2484 18.8682C69.9863 20.3679 69.2484 21.1059 69.2484 22.6056C66.2727 30.0567 61.0594 36.7697 57.322 44.2207C53.5846 50.172 51.3707 56.8851 49.133 62.8602C48.395 65.0979 47.6333 66.5976 46.8953 68.8115H46.1573C45.4194 68.0736 45.4194 67.3118 45.4194 66.5738C46.1573 58.3849 49.1568 51.6718 52.1324 44.2207C55.8699 36.0318 60.3214 28.5807 64.0589 20.3679C64.7968 19.63 65.5586 18.1302 67.0345 17.3923C67.7725 17.3923 68.5342 17.3923 69.2722 18.892L69.2484 18.8682Z" fill="#F1C931"/>
</svg>
