<?xml version="1.0" encoding="utf-8"?>
<!-- Generator: Adobe Illustrator 24.2.1, SVG Export Plug-In . SVG Version: 6.00 Build 0)  -->
<svg version="1.1" id="Layer_1" xmlns="http://www.w3.org/2000/svg" xmlns:xlink="http://www.w3.org/1999/xlink" x="0px" y="0px"
	 viewBox="0 0 595.28 104.25" style="enable-background:new 0 0 595.28 104.25;" xml:space="preserve">
<style type="text/css">
	.st0{fill:#EC0000;}
</style>
<path id="Page-1" class="st0" d="M78.48,47.74c-0.15-3.72-1.24-7.52-3.14-10.88L58.18,7.15c-1.31-2.26-2.19-4.67-2.7-7.15
	l-0.73,1.24c-4.23,7.37-4.23,16.43,0,23.8l13.72,23.8c4.23,7.37,4.23,16.43,0,23.8l-0.73,1.24c-0.51-2.48-1.39-4.89-2.7-7.15
	L52.49,44.97L44.46,31.1c-1.31-2.26-2.19-4.67-2.7-7.15l-0.73,1.24c-4.23,7.3-4.23,16.35-0.07,23.73l13.8,23.87
	c4.23,7.37,4.23,16.43,0,23.8l-0.73,1.24c-0.51-2.48-1.39-4.89-2.7-7.15l-17.16-30c-2.34-4.02-3.36-8.47-3.14-12.92
	C12.63,52.56,0,62.71,0,74.54c0,16.43,24.53,29.71,54.83,29.71s54.83-13.29,54.83-29.71C109.58,62.71,96.88,52.56,78.48,47.74z
	 M130.24,98.48c0.22-4.23,0.8-7.08,1.97-10.37c5.77,2.7,13.21,4.02,18.84,4.02c9.56,0,14.97-3.07,14.97-9.2
	c0-5.99-3.94-8.76-13.58-12.99l-5.26-2.26c-9.71-4.23-16.28-9.71-16.28-20.59c0-11.75,8.1-19.27,24.82-19.27
	c6.72,0,12.99,0.95,18.84,2.99c-0.29,4.09-1.02,7.3-2.04,10.29c-5.55-2.04-12.12-2.99-16.86-2.99c-8.98,0-13.07,3.5-13.07,8.98
	c0,5.33,4.02,8.47,11.24,11.53l5.55,2.34c13.07,5.55,18.54,11.46,18.54,21.39c0,11.83-8.98,20-26.43,20
	C142.94,102.42,136.01,101.18,130.24,98.48z M233.1,49.28v51.47h-10.37l-0.58-6.21c-2.85,4.53-7.3,7.45-14.53,7.45
	c-13.58,0-22.63-9.86-22.63-27.16c0-18.11,9.71-28.4,28.76-28.4C221.06,46.36,227.19,47.23,233.1,49.28z M221.79,88.99V56.65
	c-2.34-0.44-4.96-0.58-8.1-0.58c-11.75,0-17.23,7.23-17.23,18.76c0,10.51,4.23,17.89,14.31,17.89
	C215.22,92.72,218.79,91.26,221.79,88.99z M291.14,66.14v34.6h-11.32V68.11c0-8.1-2.7-12.05-14.02-12.05c-2.7,0-5.84,0.29-8.98,0.8
	v43.88h-11.32V49.28c7.23-1.75,15.11-2.85,20.59-2.85C285.01,46.36,291.14,53.73,291.14,66.14z M322.53,92.35
	c3.29,0,6.35-0.58,8.83-1.53c-0.29,3.07-0.73,6.57-1.31,9.56c-3.07,1.24-6.35,1.68-9.56,1.68c-11.02,0-18.03-5.04-18.03-17.59v-54.1
	c3.5-1.17,7.81-1.68,11.32-1.68v19.49h17.89c-0.22,3.5-0.51,6.72-1.02,9.71h-16.86v25.26C313.77,89.72,317.06,92.35,322.53,92.35z
	 M383.27,49.28v51.47h-10.37l-0.58-6.21c-2.92,4.53-7.3,7.45-14.53,7.45c-13.58,0-22.63-9.86-22.63-27.16
	c0-18.11,9.71-28.4,28.76-28.4C371.23,46.36,377.29,47.23,383.27,49.28z M371.96,88.99V56.65c-2.34-0.44-4.96-0.58-8.1-0.58
	c-11.75,0-17.23,7.23-17.23,18.76c0,10.51,4.23,17.89,14.31,17.89C365.39,92.72,368.96,91.26,371.96,88.99z M441.24,66.14v34.6
	h-11.32V68.11c0-8.1-2.7-12.05-14.02-12.05c-2.7,0-5.84,0.29-8.98,0.8v43.88h-11.32V49.28c7.23-1.75,15.11-2.85,20.59-2.85
	C435.18,46.36,441.24,53.73,441.24,66.14z M498.69,28.69v72.06h-10.37l-0.58-6.57c-2.92,4.82-7.3,7.81-14.75,7.81
	c-13.58,0-22.63-9.86-22.63-27.16c0-18.11,9.71-28.4,28.76-28.4c2.99,0,5.77,0.29,8.47,0.8V30.22
	C490.95,28.98,494.97,28.69,498.69,28.69z M487.52,88.85V57.16c-2.99-0.58-6.06-1.02-9.05-1.02c-11.24,0-16.57,7.01-16.57,18.76
	c0,10.51,4.23,17.89,14.31,17.89C480.66,92.72,484.38,91.18,487.52,88.85z M555.63,78.7H519.5c1.46,9.2,6.79,13.58,16.86,13.58
	c6.21,0,12.48-1.31,18.1-3.94c-0.44,2.99-1.02,6.94-1.75,10.29c-5.18,2.34-10.59,3.29-16.72,3.29c-18.98,0-28.11-10.51-28.11-28.11
	c0-15.33,7.08-27.52,25.11-27.52c16.13,0,23.14,10.59,23.14,23.58C556.29,73.15,556.07,75.71,555.63,78.7z M519.28,69.28h25.55
	c0-8.47-4.53-13.36-12.34-13.36C524.46,55.85,520.23,60.52,519.28,69.28z M595.28,46.8c0,3.43-0.44,7.52-1.02,9.71
	c-2.7-0.29-5.33-0.44-8.54-0.44c-2.77,0-5.55,0.22-8.32,0.58v44.09h-11.32V49.28c4.82-1.68,12.99-2.85,19.35-2.85
	C588.92,46.36,592.87,46.5,595.28,46.8z"/>
</svg>
