<?xml version="1.0" encoding="UTF-8"?>
<svg id="Layer_1" xmlns="http://www.w3.org/2000/svg" version="1.1" viewBox="0 0 1920 399">
  <!-- Generator: Adobe Illustrator 30.3.0, SVG Export Plug-In . SVG Version: 2.1.3 Build 182)  -->
  <defs>
    <style>
      .st0 {
        fill: #fff;
      }
    </style>
  </defs>
  <rect class="st0" x=".7" y="2.1" width="1926.9" height="402.7"/>
  <g>
    <path class="st0" d="M784.5,371.4V43.7s-70.5,0-70.5,0v129.6s-131.3,0-131.3,0V43.7s-70.4,0-70.4,0v327.9s70.5,0,70.5,0v-145.3s131.3,0,131.3,0v145.3c0,0,70.5-.3,70.5-.3ZM1162,223.7v-50.5s-174.8,0-174.8,0v-78.3s188.7,0,188.7,0v-51.3s-258.3,0-258.3,0v327.8s258.2,0,258.2,0v-58.3s-188.7,0-188.7,0v-89.6s174.8,0,174.8,0ZM1385.5,371.6V43.7s-70.5,0-70.5,0v328s70.5,0,70.5,0Z"/>
    <polygon points="1518.7 33.3 1520.1 33.3 1527.6 41.1 1716 204.7 1716 43.7 1785.6 43.7 1785.6 379.8 1588.2 208.4 1588.2 368.1 1518.6 368.1 1518.7 33.3"/>
    <path d="M119.2,332.6v-1.5s8.2-6.1,8.2-6.1l42.4-37.5c22.7,18.2,47.7,26.6,76.1,29.8,13.6,1.5,27-.2,39.5-5.6,6.9-3,11.9-7.6,16.4-13.2,5.4-6.7,6.2-14.1,4.3-22.3s-4.3-12-10.4-16c-18.2-11.8-41.4-19.5-62.5-26s-26-8.6-38.9-14.1c-13.2-5.6-24.6-13.3-35.5-22.9-16-14.1-26.3-34.5-28.8-56-.8-6.9-.4-14,.2-20.6,5.4-60,73.8-87.7,128.7-84.3l14.9.9c23,1.4,44.3,7.3,64.8,17.7s21.7,11.9,30.7,20.5l-12.4,11-9.6,8.7-8.7,7.9-11.4,10.4-7.2,6.4c-20.7-16.8-35.6-23.2-62.2-24.3-13.4-.6-28,1.4-39.3,8.3s-8.3,6.7-11.4,11.3-6.5,11.5-5.2,19.3,3.8,12,8,15.7,11.7,9,18.6,12.2c16.1,7.4,32.1,13.5,49.2,18.6,25.8,7.8,51,18.9,71.5,36.4,3.7,3.2,7.1,6.2,10,10l5.3,6.8c9.3,11.9,13,25.7,14.5,40.5,2.4,24.4-6,47.3-23.4,64.7-13.1,13-28.1,23.3-46.1,28.6s-22.2,5.9-34,6.8c-31.5,2.2-64-1.5-94.7-9.8-10.9-3-29.4-11.8-39.3-18.2l-22.3-14.1Z"/>
    <polygon points="784.5 371.4 714.1 371.7 714.1 226.4 582.7 226.4 582.7 371.6 512.3 371.6 512.3 43.7 582.7 43.7 582.7 173.3 714.1 173.3 714.1 43.7 784.5 43.7 784.5 371.4"/>
    <polygon points="1162 223.7 987.2 223.7 987.2 313.3 1175.8 313.3 1175.8 371.6 917.7 371.6 917.6 43.7 1175.9 43.7 1175.9 95 987.2 95 987.2 173.3 1162 173.3 1162 223.7"/>
    <polygon points="1385.5 371.6 1315.1 371.7 1315.1 43.7 1385.5 43.7 1385.5 371.6"/>
  </g>
</svg>