<?xml version="1.0" encoding="UTF-8"?><svg id="Layer_1" xmlns="http://www.w3.org/2000/svg" viewBox="0 0 288 148"><defs><style>.cls-1{fill:#0ccd93;}.cls-2{fill:#3f3f3f;fill-rule:evenodd;}</style></defs><g id="Logo_x2F_Customers_x2F_Smarkets"><path id="Combined-Shape" class="cls-2" d="M21.41,74.36c3.39,1.1,6.01,2.69,7.77,4.7,2.19,2.48,3.08,5.58,2.62,9.18-.86,7.18-7.01,12.02-15.29,12.02-4.15,0-8.06-1.36-11.02-3.84-2.84-2.36-4.67-5.68-4.94-8.92-.07-.81,0-1.67,0-1.67h6.75s.02.55.12,1.1c.1.45.24,1,.33,1.24.02.05.05.1.05.17.07.21.17.43.29.64.02.05.05.1.07.17.02.05.05.1.1.17.09.14.18.3.28.45l.1.15c.05.1.12.17.19.26.45.6,1.03,1.17,1.67,1.65.05.05.1.07.17.12.05.05.1.07.17.12.83.57,1.81,1.03,2.91,1.34.86.24,1.76.36,2.74.36,3.65,0,7.8-1.6,8.49-6.1.33-4.34-3.24-6.27-6.06-7.13l2.48-6.15ZM115.54,63.75c4.72,0,9.06,1.91,11.38,4.94v-4.22h7.13v34.13h-7.13v-4.36c-2.36,3.12-6.68,5.08-11.38,5.08s-8.97-1.72-12.16-4.86c-3.31-3.27-5.15-7.87-5.15-12.95s1.79-9.66,5.15-12.95c3.17-3.1,7.49-4.79,12.16-4.79ZM218.84,63.75c4.77,0,9.06,1.69,12.11,4.79,3.17,3.22,4.84,7.68,4.82,12.9v2.93h-26.64c-.12,0-.24.05-.31.14s-.1.24-.07.36c1.07,4.77,5.1,7.87,10.3,7.87,3.36,0,6.41-1.34,8.35-3.62h0l4.55,4.86c-3.17,3.39-7.87,5.32-13.12,5.32-10.11,0-17.46-7.54-17.46-17.89,0-5.17,1.74-9.63,5.08-12.88.29-.29.6-.55.91-.81,1.67-1.38,3.6-2.43,5.7-3.1,1.81-.57,3.74-.88,5.77-.88ZM274.93,63.42c4.82,0,8.51,1.81,10.47,5.01.91,1.48,1.34,3.22,1.31,4.96v.19h-6.96c.02-1.14-.5-2.27-1.45-2.91-.83-.57-1.96-.88-3.22-.88-2.29,0-4.22,1.12-4.67,2.74-.26,1.03-.26,1.72.05,2.41.5,1.05,1.65,1.79,3.72,2.38l4.91,1.22c4.08,1,8.92,3.58,8.92,10.06,0,3.08-1.38,5.7-4.01,7.63-2.46,1.76-5.75,2.72-9.3,2.72-2.81,0-5.79-.86-8.16-2.53-2.83-2.01-4.47-5.3-4.53-8.76v-.19s6.65,0,6.65,0v.1c.07,1.31.67,2.58,1.74,3.36.21.17.43.29.67.41l.02.02c1.45.86,3.12,1.22,5.1,1.1,2.81-.19,4.7-1.79,4.75-4.03.05-1.91-1.34-3.22-4.17-3.86l-4.58-1.07c-6.75-1.82-9.69-5.34-9.22-11.08l.02-.17c.5-4.96,5.75-8.82,11.95-8.82ZM79.51,63.75c4.24,0,7.56,1.36,9.85,4.01,2.24,2.62,3.39,6.37,3.39,11.14v19.7h-7.23v-19.24c0-5.34-2.74-8.51-7.3-8.51-2.34-.05-4.36.74-5.87,2.22-1.72,1.69-2.67,4.24-2.67,7.15v18.39h-7.2v-19.32c0-5.22-2.65-8.44-6.87-8.44s-8.94,2.46-8.94,9.37v18.39h-7.23v-34.13h7.2v4.08c.88-1.24,2.15-2.31,3.77-3.15,1.57-.81,3.48-1.38,5.1-1.5,1.31-.07,2.58,0,3.74.21,4.08.62,6.99,2.67,8.68,6.08,3.05-5.29,7.94-6.44,11.57-6.44ZM177.33,44.27v31.41l10.56-11.23h9.59l-13.76,14.59,18.31,19.55h-9.54l-15.17-16.19v16.19h-7.61v-54.32h7.61ZM148.71,64.47v4.03c2.41-2.67,5.53-4.03,9.28-4.03,2.58.05,4.89.79,6.89,2.19.24.17.83.55,1.12.74.1.07.12.21.05.31l-5.39,6.68c-.1.12-.29.17-.43.07-.26-.14-.67-.38-.98-.55-1.26-.72-2.48-1.22-3.77-1.22-1.76,0-3.31.6-4.58,1.79l-.02.02c-1.41,1.17-2.15,3.1-2.19,5.72l.02,18.36h-7.56v-34.13h7.56ZM251.87,54.09v10.37h7.08v6.2h-7.08v27.9h-7.2v-27.9h-6.01v-6.2h6.01v-10.37h7.2ZM116.11,70.83c-6.1,0-10.52,4.46-10.52,10.59s4.53,10.8,10.52,10.8c5.17,0,10.73-3.39,10.73-10.8,0-6.89-5.53-10.59-10.73-10.59ZM218.82,70.33h-.43c-2.53.1-4.72.91-6.41,2.31-1.57,1.31-2.69,3.12-3.2,5.32-.07.33-.12.62-.12.62h19.94s-.07-.29-.14-.6c-1.05-4.75-4.67-7.65-9.63-7.65h0ZM15.74,53.76c8.25,0,14.17,4.96,14.74,12.33.01.16.02.36.03.56v.15c.01.36.02.71.02.84v.06s-6.89,0-6.89,0v-.03c0-.15-.01-.86-.12-1.45,0,0-.07-.36-.07-.38-.02-.1-.05-.21-.07-.31-.02-.12-.05-.21-.1-.33-.02-.12-.07-.21-.1-.31-.43-1.17-1.17-2.15-2.17-2.89-.1-.07-.19-.14-.29-.19s-.17-.12-.26-.17c-.07-.05-.14-.1-.21-.12-.05-.02-.12-.07-.17-.1-.14-.07-.31-.14-.45-.21-.11-.06-.24-.11-.38-.16l-.1-.03c-.72-.26-1.5-.45-2.36-.52-.36-.05-.74-.05-1.14-.05-3.86,0-7.85,2.34-7.85,6.25v.07c0,1.01.11,3.64,4.36,5.2l-2.48,6.15c-5.82-2.17-8.78-5.99-8.78-11.4,0-8.13,7.56-12.97,14.83-12.97Z"/><path id="Combined-Shape-2" class="cls-1" d="M3.98,98.52c1.29,1.1,2.79,2.03,4.46,2.74l-2.89,7.13H0l.52-1.31,3.46-8.56ZM18.31,63.13l.52.24c2.29,1.21,2.5,4.73,2.51,5.79v.13c0,.09,0,.15,0,.17h0s-.57,1.39-.57,1.39l-4.53,11.21-3.1,7.68c-.14-.07-.26-.17-.38-.24,0,0-.07-.05-.1-.05l-.14-.12c-2.77-1.96-2.36-5.56-2.24-6.25,0-.07.02-.14.05-.21l.76-1.88,4.51-11.16,2.72-6.7ZM31.43,44.24v.02l-.52,1.31-3.62,8.97s-.1-.07-.14-.12c-1.31-.95-2.84-1.74-4.46-2.31l3.2-7.87h5.56Z"/></g></svg>