<svg width="151" height="80" viewBox="0 0 151 80" fill="none" xmlns="http://www.w3.org/2000/svg">
<path d="M80.6378 43.3254H78.0826C75.7904 43.3254 73.9492 45.1666 73.9492 47.4212V75.8288C73.9492 78.121 75.7904 79.9622 78.0826 79.9622C80.3748 79.9622 82.216 78.121 82.216 75.8288V57.1535L89.2052 66.9984C90.37 68.6518 92.6622 69.0275 94.3155 67.8627C94.6537 67.6372 94.9168 67.3366 95.1798 66.9984L102.169 57.1535V75.7913C102.169 78.0834 104.01 79.9246 106.302 79.9246C108.595 79.9246 110.436 78.0834 110.436 75.7913V47.3836C110.436 45.0915 108.595 43.2502 106.34 43.2502H103.785C102.808 43.2502 101.868 43.7387 101.305 44.5278L92.2488 58.1304L83.193 44.5278C82.6293 43.7012 81.6899 43.2502 80.7129 43.2502L80.6378 43.3254Z" fill="#FB7701"/>
<path d="M144.857 43.3254C142.565 43.3254 140.723 45.1667 140.686 47.4588V64.819C140.686 70.2676 137.604 73.0858 132.532 73.0482C127.459 73.0107 124.378 70.1549 124.415 64.556V47.4588C124.415 45.1667 122.574 43.3254 120.282 43.3254C117.99 43.3254 116.148 45.1667 116.148 47.4588V64.7439C116.148 74.8519 122.349 79.9998 132.457 79.9998C142.565 79.9998 148.99 74.8895 148.99 64.4808V47.4588C148.99 45.1667 147.186 43.3254 144.932 43.2878H144.857V43.3254Z" fill="#FB7701"/>
<path d="M28.3701 43.3256H4.13339C1.84124 43.3256 0 45.1668 0 47.4589C0 49.7511 1.84124 51.5923 4.13339 51.5923H12.0995V75.829C12.0995 78.1212 13.9408 79.9624 16.2329 79.9624C18.5251 79.9624 20.3663 78.1212 20.3663 75.829V51.5923H28.3325C30.6246 51.5923 32.4659 49.7511 32.4659 47.4589C32.4659 45.1668 30.6246 43.3256 28.3325 43.3256H28.3701Z" fill="#FB7701"/>
<path d="M64.2177 43.3256H41.7471C39.455 43.3256 37.6137 45.1668 37.5762 47.4589V75.829C37.5762 78.1212 39.4174 80 41.7471 80H64.1802C66.4723 80 68.3511 78.1212 68.3135 75.829C68.3135 73.5369 66.4723 71.6956 64.1802 71.6956H45.8805V65.7962H61.8129C64.105 65.7962 65.9462 63.9549 65.9462 61.6628C65.9462 59.3706 64.105 57.5294 61.8129 57.5294H45.8805V51.6299H64.1802C66.4723 51.6299 68.3135 49.7887 68.3135 47.4965C68.3135 45.2044 66.4723 43.3631 64.1802 43.3631L64.2177 43.3256Z" fill="#FB7701"/>
<path d="M23.748 0H22.9965C20.3285 0 17.8485 1.31517 16.3079 3.49459C14.8424 1.31517 12.1369 -0.18788 8.04111 0.0375771L7.92838 0.187878C6.42533 2.66791 6.68837 5.82431 8.56718 8.00374C9.8072 9.20618 10.3333 10.9347 9.99507 12.6256L1.65315 26.0403C0.976774 27.13 1.27738 28.5579 2.32952 29.2719C4.47137 30.7749 8.79263 32.8416 16.3079 32.8416C23.8231 32.8416 28.1068 30.7749 30.2487 29.2719L30.5493 29.0464C31.376 28.2573 31.5263 27.0173 30.925 26.0403L22.6207 12.6256V12.8511L22.5831 12.4753C22.3201 10.8971 22.8086 9.28133 23.8983 8.11647L24.0486 7.96616C25.9274 5.78674 26.1904 2.63033 24.6874 0.150301L24.6122 0H23.7856H23.748Z" fill="#FB7701"/>
<path d="M102.997 0.563721C96.947 6.31289 102.771 18.7882 91.7614 24.0865C90.559 24.6501 89.5445 22.7337 87.9287 22.7337C83.3444 22.7337 74.5891 26.8295 74.2509 28.8586C73.9503 30.5496 77.7079 31.9023 88.7178 31.9023C98.2997 31.9023 101.419 17.2852 104.763 17.2852C108.107 17.2852 106.566 30.512 106.191 31.9023H109.685C109.385 30.512 109.159 26.3786 109.159 20.5167C109.159 14.6548 110.211 13.3396 111.076 8.86807C111.865 5.03529 106.153 1.69101 102.959 0.563721H102.997Z" fill="#FB7701"/>
<path d="M42.2759 1.12712C44.1548 -0.338291 47.8372 0.60066 50.6929 6.27458L50.7681 6.31266C50.7961 6.35465 53.2565 10.0371 54.8257 11.009C56.1785 11.7981 57.7948 11.9862 59.2603 11.5353C61.1766 11.2347 62.9052 10.3328 64.2203 8.94255C65.3476 7.74019 66.8884 7.10198 67.9029 9.13102C68.7668 10.4461 68.6913 12.212 67.7144 13.4894C67.3763 13.9778 67.0007 14.4287 66.5875 14.842C66.0615 15.3304 65.6107 15.8566 65.3101 16.4953C65.7235 17.6977 66.0989 18.7125 66.4371 19.5392L68.5416 24.2736C68.9548 23.973 69.3309 23.6352 69.7066 23.297C70.3453 22.696 71.2841 22.7332 71.8853 23.3341C72.4114 23.9729 72.3742 24.875 71.773 25.4386C61.5898 34.6448 46.108 34.6448 35.9625 25.4386C35.662 25.1382 35.4743 24.8 35.4742 24.3869C35.4366 23.9737 35.5869 23.5976 35.8873 23.297C36.4884 22.7335 37.4282 22.6955 38.067 23.259C38.5554 23.7098 39.3445 24.3113 40.4341 25.1379C42.3129 22.0942 43.5907 18.7501 44.192 15.2179C43.2901 15.8192 41.1859 17.9609 38.5933 16.3078C33.9339 13.3769 33.7835 12.1367 37.3531 7.02653C37.5785 6.72592 40.848 2.2544 42.2759 1.12712ZM53.9224 24.425C51.217 24.3499 48.7368 26.0031 47.7222 28.5207C49.7138 29.1219 51.781 29.422 53.8853 29.3468C55.9518 29.3844 57.9809 29.1219 59.9722 28.5959C59.1456 25.8904 56.8909 24.425 53.9224 24.425Z" fill="#FB7701"/>
<path d="M137.528 1.01465C143.916 1.01465 149.177 5.93691 149.628 12.2871L150.342 22.4707V23.0342C150.342 27.6559 146.585 31.4139 141.963 31.4141H122.61C117.989 31.0757 114.494 27.0924 114.832 22.4707L115.547 12.2871C115.998 5.93692 121.258 1.01466 127.609 1.01465H137.528ZM140.988 9.46875C140.988 8.37952 137.007 8.37952 137.006 9.46875V9.76953C137.006 12.2495 135.014 14.2412 132.534 14.2412C130.054 14.2412 128.063 12.2496 128.063 9.76953V9.46875C128.062 8.37952 124.118 8.37952 124.117 9.46875V9.76953C124.117 14.429 127.875 18.1865 132.534 18.1865C137.194 18.1865 140.988 14.4289 140.988 9.76953V9.46875Z" fill="#FB7701"/>
</svg>
