<svg xmlns="http://www.w3.org/2000/svg" viewBox="0 0 1833.28 761.02"><defs><style>.cls-1{fill:#1f1f25;}</style></defs><title>TrueLayer-LOGO MASTER</title><g id="TrueLayer_Logo_-_Original" data-name="TrueLayer Logo - Original"><g id="Original_Vertical" data-name="Original Vertical"><path class="cls-1" d="M152.51,546.61H10.74A10.75,10.75,0,0,0,0,557.3v7A10.76,10.76,0,0,0,10.75,575H59.83a6.08,6.08,0,0,1,6,6.08V746A11.86,11.86,0,0,0,77.7,757.79h7.73A11.86,11.86,0,0,0,97.25,746V581.06a6.08,6.08,0,0,1,6-6.08h49.22a10.75,10.75,0,0,0,10.74-10.69v-7A10.75,10.75,0,0,0,152.51,546.61Z"/><path class="cls-1" d="M589.47,546.73h-7.8a12,12,0,0,0-12,11.95l0,119.08c0,29.86-19.61,53.09-50.69,53.09-30.77,0-50.07-23.53-50.07-53.7V558.68a12,12,0,0,0-11.95-11.95h-7.8a12,12,0,0,0-12,11.95V679.27c0,45.85,34.4,81.75,81.76,81.75,47.67,0,82.37-35.9,82.37-81.75l0-120.59A12,12,0,0,0,589.47,546.73Z"/><path class="cls-1" d="M999.38,729.92l-70.87,0a6.09,6.09,0,0,1-6-6V558.55a11.92,11.92,0,0,0-11.88-11.89H902.9A11.92,11.92,0,0,0,891,558.55l.12,188A11.74,11.74,0,0,0,902.79,758l96.59,0A10.61,10.61,0,0,0,1010,747.41v-6.9A10.61,10.61,0,0,0,999.38,729.92Z"/><path class="cls-1" d="M372.79,611.39c0-35.91-29.56-64.57-65.76-64.57H231.18a12,12,0,0,0-11.94,11.94v5.62h0V746.05A12,12,0,0,0,231.17,758h7.19a12,12,0,0,0,11.94-11.94V681.41a6.08,6.08,0,0,1,6-6.07h37.35a3.37,3.37,0,0,1,3.12,1.73l38.8,74.86a11.86,11.86,0,0,0,16.08,4.59l6.55-3.65a12.08,12.08,0,0,0,4.67-16.39l-34.58-63.64a.23.23,0,0,1,.12-.32C354.5,661.93,372.79,639.06,372.79,611.39Zm-68.18,38H256.93a6.07,6.07,0,0,1-6-5.91V585.72h0v-3.58a6.07,6.07,0,0,1,5.94-6.06h47c19.95,0,37.79,16.3,37.6,36.26C341.22,633,324.11,649.4,304.61,649.4Z"/><path class="cls-1" d="M804.62,729.89l-84.09.06a6.08,6.08,0,0,1-6-6v-4.74a0,0,0,0,1,0,0v-48a6.08,6.08,0,0,1,6.05-6.08l69.63,0a10.72,10.72,0,0,0,10.69-10.69v-7a10.72,10.72,0,0,0-10.7-10.7l-69.59,0a6.09,6.09,0,0,1-6.08-6V584.84h0v-3.57a6.09,6.09,0,0,1,6.05-6.09l83.88-.07a10.72,10.72,0,0,0,10.69-10.7v-7a10.72,10.72,0,0,0-10.7-10.7l-109.4.09a11.73,11.73,0,0,0-11.61,11.54V746.31A11.75,11.75,0,0,0,695.12,758h109.5a10.63,10.63,0,0,0,10.6-10.6v-6.92A10.63,10.63,0,0,0,804.62,729.89Z"/><path class="cls-1" d="M1605.35,729.51l-84.09,0a6.07,6.07,0,0,1-6-6V718.8h0v-48a6.09,6.09,0,0,1,6-6.09l69.62,0a10.72,10.72,0,0,0,10.7-10.68v-7a10.73,10.73,0,0,0-10.7-10.69l-69.59,0a6.07,6.07,0,0,1-6.08-6V584.45h0v-3.58a6.08,6.08,0,0,1,6-6.08l83.88-.07a10.73,10.73,0,0,0,10.69-10.7v-7a10.73,10.73,0,0,0-10.7-10.7l-109.4.1A11.72,11.72,0,0,0,1484.17,558V745.92a11.73,11.73,0,0,0,11.66,11.7h109.51A10.61,10.61,0,0,0,1615.94,747v-6.92A10.62,10.62,0,0,0,1605.35,729.51Z"/><path class="cls-1" d="M1157.34,547.12a7.08,7.08,0,0,0-5.13-3.31h-3a7.07,7.07,0,0,0-5.13,3.31L1056.48,739.5a11.15,11.15,0,0,0,5.55,14.71l6.61,3a11.16,11.16,0,0,0,14.72-5.55l17.34-38.34a3,3,0,0,1,2.24-1.16h94.64a3.09,3.09,0,0,1,2.82,1.82l17.32,37.77a11.15,11.15,0,0,0,14.72,5.55l6.61-3a11.14,11.14,0,0,0,5.55-14.71Zm26,139.08h-65.85a3.1,3.1,0,0,1-2.84-4.36l34.56-77.61a1.27,1.27,0,0,1,1-.69h0a1.23,1.23,0,0,1,1,.7h0l34.83,77.59A3.1,3.1,0,0,1,1183.32,686.2Z"/><path class="cls-1" d="M1414.1,549a11.75,11.75,0,0,0-16.37,2.45s-44.1,61.23-52.5,72.91a2,2,0,0,1-3,.08c-7.51-10.32-52.8-72.86-52.8-72.86A11.74,11.74,0,0,0,1273,549.1l-7.13,5.28c-4.64,4-4.14,10.2-.82,14.75l62.64,87.21-.08,89.7a11.87,11.87,0,0,0,11.83,11.83h7.73A11.87,11.87,0,0,0,1359,746l.06-90,63-87c3.31-4.55,3.81-10.77-.82-14.75Z"/><path class="cls-1" d="M1788.75,672.37a.22.22,0,0,1,.12-.31c26.12-10.6,44.41-33.48,44.41-61.15,0-35.9-29.56-64.56-65.76-64.56h-75.85a12,12,0,0,0-11.94,11.93V745.58a12,12,0,0,0,11.93,11.93h7.19a12,12,0,0,0,11.94-11.94V680.93a6.07,6.07,0,0,1,6-6.06h37.35a3.37,3.37,0,0,1,3.12,1.73l38.8,74.86a11.86,11.86,0,0,0,16.08,4.59l6.55-3.65a12.08,12.08,0,0,0,4.67-16.39Zm-71.33-23.45a6.07,6.07,0,0,1-6-5.91V581.67a6.07,6.07,0,0,1,5.94-6.06h47c20,0,37.79,16.31,37.6,36.26-.2,20.65-17.31,37-36.81,37Z"/><path class="cls-1" d="M710.86,345.27,893,449c15.43,9.23,22.45,2.76,28.8-.08l193.24-110.86c6.88-4.36,11.61-8.13,11.61-15.85,0-7.56-5.85-11.61-9.37-13.79l-52-34.74L1114.74,245c8-4,16.56-13.08,16.56-24.36V144.23c0-19.86-11.37-26.1-16.83-29.09L924.88,5.75c-16.41-10.84-29.83-3.7-35.37,0L699.32,116.32c-8.52,5.78-11.24,12-11.19,18.31.09,9.51,9.9,16.71,11.24,17.59l49.4,29.35-52.49,32c-8.22,5-8.8,14.33-8.8,14.33h0c-.59,4.19-.62,74.49-.62,74.49C686.86,320.82,688.56,332.83,710.86,345.27Zm381.52-21.54L907.21,427.4l-179-100.87,56.14-32.21,116.18,66.42c3.52,2.52,9.87,2.34,13.19.53l125.36-72.51Zm15.74-110.62-50-30.75L1108,152.68ZM920.94,34.36l170.53,99.44L1035.53,168,920.84,98.5Zm-13.77,85.92L1010.63,183,907.17,242.74a.14.14,0,0,1-.12,0L801.27,181.67,907,120.28ZM719.76,134.57,893.68,34.13V98.5L773,166.65Zm55,62.5,125.63,72.49a13.78,13.78,0,0,0,13.2.08l120.67-72.32,54.54,33.08L907,334.22,722,227.66ZM711.4,251.82,760,279.6,711.4,307.84Z"/></g></g></svg>