<?xml version="1.0" encoding="UTF-8"?>
<svg id="Layer_1" xmlns="http://www.w3.org/2000/svg" version="1.1" viewBox="0 0 1833.3 761">
  <!-- Generator: Adobe Illustrator 30.3.0, SVG Export Plug-In . SVG Version: 2.1.3 Build 182)  -->
  <defs>
    <style>
      .st0 {
        fill: #fff;
      }
    </style>
  </defs>
  <g id="TrueLayer_Logo_-_Original">
    <g id="Original_Vertical">
      <path class="st0" d="M152.5,546.6H10.7c-5.9,0-10.7,4.8-10.7,10.7v7c0,5.9,4.8,10.7,10.8,10.7h49.1c3.3,0,6,2.8,6,6.1v164.9c0,6.5,5.3,11.8,11.9,11.8h7.7c6.5,0,11.8-5.3,11.8-11.8v-164.9c0-3.3,2.7-6,6-6.1h49.2c5.9,0,10.7-4.8,10.7-10.7v-7c0-5.9-4.8-10.7-10.7-10.7Z"/>
      <path class="st0" d="M589.5,546.7h-7.8c-6.6,0-12,5.3-12,12v119.1c0,29.9-19.6,53.1-50.7,53.1s-50.1-23.5-50.1-53.7v-118.5c0-6.6-5.4-11.9-12-12h-7.8c-6.6,0-12,5.3-12,12v120.6c0,45.8,34.4,81.8,81.8,81.8s82.4-35.9,82.4-81.8v-120.6c0-6.5-5.3-11.9-11.8-12Z"/>
      <path class="st0" d="M999.4,729.9h-70.9c-3.3,0-6-2.7-6-6v-165.4c0-6.6-5.3-11.9-11.9-11.9h-7.7c-6.6,0-11.9,5.3-11.9,11.9v188c.3,6.3,5.4,11.4,11.8,11.5h96.6c5.9,0,10.6-4.7,10.6-10.6v-6.9c0-5.9-4.8-10.6-10.6-10.6Z"/>
      <path class="st0" d="M372.8,611.4c0-35.9-29.6-64.6-65.8-64.6h-75.9c-6.6,0-11.9,5.4-11.9,11.9v5.6h0v181.7c0,6.6,5.3,11.9,11.9,12h7.2c6.6,0,11.9-5.4,11.9-11.9v-64.7c0-3.3,2.7-6,6-6.1h37.4c1.3,0,2.5.6,3.1,1.7l38.8,74.9c3.2,5.7,10.4,7.7,16.1,4.6l6.5-3.7c5.8-3.2,7.9-10.6,4.7-16.4l-34.6-63.6c0-.1,0-.3,0-.3,0,0,0,0,0,0,26.1-10.6,44.4-33.5,44.4-61.1ZM304.6,649.4h-47.7c-3.3,0-5.9-2.6-6-5.9v-57.8h0v-3.6c0-3.3,2.6-6,5.9-6.1h47c20,0,37.8,16.3,37.6,36.3-.2,20.7-17.4,37.1-36.9,37.1h0Z"/>
      <path class="st0" d="M804.6,729.9h-84.1c-3.3,0-6-2.6-6-5.9v-4.7h0v-48c0-3.3,2.7-6.1,6-6.1h69.6c5.9,0,10.7-4.8,10.7-10.7v-7c0-5.9-4.8-10.7-10.7-10.7h-69.6c-3.3,0-6-2.7-6.1-6v-45.9h0v-3.6c0-3.3,2.7-6.1,6-6.1h83.9c5.9,0,10.7-4.9,10.7-10.8v-7c0-5.9-4.8-10.7-10.7-10.7h-109.4c-6.4.2-11.5,5.3-11.6,11.6v188c0,6.4,5.2,11.7,11.7,11.7h109.5c5.8,0,10.6-4.8,10.6-10.6v-6.9c0-5.8-4.8-10.6-10.6-10.6Z"/>
      <path class="st0" d="M1605.3,729.5h-84.1c-3.3,0-6-2.7-6-6v-4.7h0v-48c0-3.3,2.7-6,6-6.1h69.6c5.9,0,10.7-4.8,10.7-10.7v-7c0-5.9-4.8-10.7-10.7-10.7h-69.6c-3.3,0-6-2.7-6.1-6v-45.9h0v-3.6c0-3.3,2.7-6,6-6.1h83.9c5.9,0,10.7-4.9,10.7-10.8v-7c0-5.9-4.8-10.7-10.7-10.7h-109.4c-6.3.2-11.4,5.3-11.5,11.7v187.9c0,6.4,5.2,11.7,11.7,11.7h109.5c5.9,0,10.6-4.8,10.6-10.6v-6.9c0-5.8-4.8-10.6-10.6-10.6Z"/>
      <path class="st0" d="M1157.3,547.1c-1.1-1.8-3-3-5.1-3.3h-3c-2.1.3-4,1.5-5.1,3.3l-87.6,192.4c-2.5,5.6,0,12.2,5.6,14.7l6.6,3c5.6,2.5,12.2,0,14.7-5.5l17.3-38.3c.5-.7,1.4-1.1,2.2-1.2h94.6c1.2,0,2.3.7,2.8,1.8l17.3,37.8c2.5,5.6,9.1,8.1,14.7,5.5l6.6-3c5.6-2.5,8.1-9.1,5.6-14.7l-87.3-192.5ZM1183.3,686.2h-65.8c-1.7,0-3.1-1.4-3.1-3.1,0-.4,0-.9.3-1.3l34.6-77.6c.2-.4.6-.6,1-.7h0c.4,0,.8.3,1,.7h0l34.8,77.6c.7,1.6,0,3.4-1.6,4.1-.4.2-.8.3-1.2.3h0Z"/>
      <path class="st0" d="M1414.1,549c-5.2-3.8-12.5-2.7-16.4,2.5,0,0-44.1,61.2-52.5,72.9-.7.8-2,1-2.8.3,0,0-.1-.1-.2-.2-7.5-10.3-52.8-72.9-52.8-72.9-3.8-5.2-11.2-6.3-16.4-2.5,0,0,0,0,0,0l-7.1,5.3c-4.6,4-4.1,10.2-.8,14.8l62.6,87.2v89.7c0,6.5,5.2,11.8,11.8,11.8h7.7c6.5,0,11.8-5.3,11.8-11.9v-90c0,0,63.1-87,63.1-87,3.3-4.5,3.8-10.8-.8-14.8l-7.1-5.2Z"/>
      <path class="st0" d="M1788.8,672.4c0-.1,0-.2,0-.3,0,0,0,0,0,0,26.1-10.6,44.4-33.5,44.4-61.2s-29.6-64.6-65.8-64.6h-75.8c-6.6,0-11.9,5.4-11.9,11.9v187.3c0,6.6,5.4,11.9,11.9,11.9h7.2c6.6,0,11.9-5.4,11.9-11.9v-64.6c0-3.3,2.7-6,6-6.1h37.3c1.3,0,2.5.6,3.1,1.7l38.8,74.9c3.2,5.7,10.4,7.7,16.1,4.6l6.6-3.7c5.8-3.2,7.9-10.6,4.7-16.4l-34.6-63.6ZM1717.4,648.9c-3.3,0-5.9-2.6-6-5.9v-61.3c0-3.3,2.6-6,5.9-6.1h47c20,0,37.8,16.3,37.6,36.3-.2,20.7-17.3,37-36.8,37h-47.7Z"/>
      <path class="st0" d="M710.9,345.3l182.1,103.7c15.4,9.2,22.5,2.8,28.8,0l193.2-110.9c6.9-4.4,11.6-8.1,11.6-15.9s-5.8-11.6-9.4-13.8l-52-34.7,49.5-28.7c8-4,16.6-13.1,16.6-24.4v-76.4c0-19.9-11.4-26.1-16.8-29.1L924.9,5.8c-16.4-10.8-29.8-3.7-35.4,0l-190.2,110.6c-8.5,5.8-11.2,12-11.2,18.3,0,9.5,9.9,16.7,11.2,17.6l49.4,29.4-52.5,32c-8.2,5-8.8,14.3-8.8,14.3h0c-.6,4.2-.6,74.5-.6,74.5,0,18.4,1.7,30.4,24,42.9ZM1092.4,323.7l-185.2,103.7-179-100.9,56.1-32.2,116.2,66.4c3.5,2.5,9.9,2.3,13.2.5l125.4-72.5,53.3,35ZM1108.1,213.1l-50-30.8,49.9-29.7v60.4ZM920.9,34.4l170.5,99.4-55.9,34.2-114.7-69.5V34.4ZM907.2,120.3l103.5,62.7-103.5,59.7s0,0-.1,0l-105.8-61.1,105.7-61.4h.2ZM719.8,134.6l173.9-100.4v64.4l-120.7,68.1-53.2-32.1ZM774.8,197.1l125.6,72.5c4.1,2.3,9.1,2.3,13.2,0l120.7-72.3,54.5,33.1-181.8,103.8-185-106.6,52.8-30.6ZM711.4,251.8l48.6,27.8-48.6,28.2v-56Z"/>
    </g>
  </g>
</svg>