<?xml version="1.0" encoding="UTF-8"?>
<svg xmlns="http://www.w3.org/2000/svg" width="200" height="135" viewBox="0 0 200 135" fill="none">
  <path d="M66.2031 134.135C64.0626 134.135 62.3442 133.444 61.0479 132.069C59.7517 130.693 59.1011 128.974 59.1011 126.913C59.1011 124.852 59.7616 123.248 61.0777 121.828C62.3938 120.407 64.0676 119.692 66.1038 119.692C67.2213 119.692 68.1798 119.846 68.9844 120.149C69.7889 120.457 70.5637 120.919 71.3087 121.545L70.2905 122.741C69.0688 121.679 67.6484 121.147 66.0392 121.147C64.4301 121.147 63.2431 121.708 62.2399 122.831C61.2367 123.953 60.735 125.314 60.735 126.908C60.735 128.597 61.2367 129.988 62.2399 131.075C63.2431 132.168 64.5841 132.709 66.2578 132.709C67.8023 132.709 69.1433 132.242 70.2856 131.314V127.842H66.0442V126.427H71.8103V131.994C70.216 133.419 68.3437 134.13 66.2031 134.13V134.135Z" fill="#0A0A0A"></path>
  <path d="M74.1594 133.896L80.5264 119.831H82.0015L88.3635 133.896H86.67L85.036 130.206H77.4373L75.7835 133.896H74.1694H74.1594ZM78.0482 128.791H84.4102L81.2367 121.669L78.0432 128.791H78.0482Z" fill="#0A0A0A"></path>
  <path d="M91.1199 133.896V119.93H92.7142L97.7998 127.549L102.886 119.93H104.48V133.896H102.905V122.583L97.8197 130.062H97.7402L92.6546 122.602V133.896H91.1199Z" fill="#0A0A0A"></path>
  <path d="M108.572 133.896V119.93H110.147V133.896H108.572Z" fill="#0A0A0A"></path>
  <path d="M114.239 133.896V119.93H115.714L124.51 131.12V119.93H126.044V133.896H124.788L115.774 122.444V133.896H114.239Z" fill="#0A0A0A"></path>
  <path d="M136.479 134.135C134.338 134.135 132.62 133.444 131.324 132.069C130.027 130.693 129.377 128.974 129.377 126.913C129.377 124.852 130.037 123.248 131.353 121.828C132.669 120.402 134.343 119.692 136.379 119.692C137.497 119.692 138.455 119.846 139.26 120.149C140.065 120.452 140.839 120.919 141.584 121.545L140.566 122.741C139.344 121.679 137.924 121.147 136.32 121.147C134.716 121.147 133.524 121.708 132.52 122.831C131.517 123.953 131.016 125.314 131.016 126.908C131.016 128.597 131.517 129.988 132.52 131.075C133.524 132.168 134.865 132.709 136.538 132.709C138.083 132.709 139.424 132.242 140.566 131.314V127.842H136.32V126.427H142.086V131.994C140.492 133.419 138.619 134.13 136.479 134.13V134.135Z" fill="#0A0A0A"></path>
  <path d="M129.625 109.744V84.6089H132.461V95.7785H146.968V84.6089H149.804V109.744H146.968V98.4356H132.461V109.744H129.625Z" fill="#C42936"></path>
  <path d="M154.76 109.744L166.213 84.4301H168.87L180.323 109.744H177.268L174.323 103.104H160.646L157.666 109.744H154.755H154.76ZM161.763 100.551H173.216L167.504 87.7328L161.758 100.551H161.763Z" fill="#C42936"></path>
  <path d="M188.691 109.744V87.2312H180.253V84.6089H200V87.2312H191.562V109.744H188.691Z" fill="#C42936"></path>
  <path d="M8.58207 109.814L0 84.4996H5.92501L11.1299 101.52L16.7668 84.4301H21.5048L27.1418 101.52L32.3516 84.4996H38.1326L29.5505 109.814H24.738L19.0663 93.3698L13.3946 109.814H8.58207Z" fill="#0A0A0A"></path>
  <path d="M42.225 109.635V84.4996H47.7527V94.4475H57.9488V84.4996H63.4765V109.635H57.9488V99.5481H47.7527V109.64H42.225V109.635Z" fill="#0A0A0A"></path>
  <path d="M69.7641 109.635V84.4996H75.2918V109.635H69.7641Z" fill="#0A0A0A"></path>
  <path d="M87.4299 109.635V89.6002H79.7815V84.4996H100.606V89.6002H92.9576V109.635H87.4299Z" fill="#0A0A0A"></path>
  <path d="M104.847 109.635V84.4996H123.804V89.4214H110.34V94.522H122.19V99.4388H110.34V104.718H123.983V109.635H104.847Z" fill="#0A0A0A"></path>
  <mask id="mask0_219_172" style="mask-type:luminance" maskUnits="userSpaceOnUse" x="40" y="27" width="116" height="38">
    <path d="M89.8113 29.6449C57.4796 35.3961 38.6665 44.8423 40.3303 54.214C41.9941 63.5858 65.9822 68.7956 101.9 60.7648C137.817 52.739 156.665 44.6138 155.637 37.6906C154.877 32.5801 136.988 27.4944 114.674 27.4944C106.752 27.4944 98.2792 28.1351 89.8064 29.6399" fill="white"></path>
  </mask>
  <g mask="url(#mask0_219_172)">
    <path d="M138.652 -14.9489L23.8122 33.7979L56.6814 111.233L171.522 62.486L138.652 -14.9489Z" fill="url(#paint0_radial_219_172)"></path>
  </g>
  <mask id="mask1_219_172" style="mask-type:luminance" maskUnits="userSpaceOnUse" x="63" y="0" width="71" height="53">
    <path d="M68.9521 7.34542C67.8396 8.90489 67.3926 10.4693 66.886 12.292C64.0651 22.4683 62.9377 33.2953 63.1512 44.6288C63.2208 48.2295 63.0718 49.5108 66.9158 50.8418C74.3755 53.4194 90.01 52.2523 100.305 51.1845C109.697 50.2111 127.805 47.1766 132.329 41.2963C133.973 39.1607 133.179 36.8165 132.791 34.3978C131.485 26.2131 129.767 18.371 127.422 11.0355C125.878 6.21306 125.52 4.77279 120.698 2.76136C114.698 0.263224 107.666 -0.243357 99.9081 0.650609C96.1833 0.213559 92.7962 0 89.7269 0C79.1284 0 72.3641 2.55277 68.9521 7.34542Z" fill="white"></path>
  </mask>
  <g mask="url(#mask1_219_172)">
    <path d="M123.122 -25.7951L43.6342 7.94537L73.7788 78.9616L153.266 45.2212L123.122 -25.7951Z" fill="url(#paint1_radial_219_172)"></path>
  </g>
  <mask id="mask2_219_172" style="mask-type:luminance" maskUnits="userSpaceOnUse" x="63" y="0" width="71" height="53">
    <path d="M99.9081 0.650622C79.8138 1.94687 68.9173 13.0916 67.6906 9.71941C67.3777 10.5339 67.1393 11.3782 66.886 12.292C64.0651 22.4684 62.9377 33.2953 63.1512 44.6288C63.2208 48.2295 63.0718 49.5108 66.9158 50.8418C74.3755 53.4194 90.01 52.2523 100.305 51.1845C109.697 50.2111 127.805 47.1766 132.329 41.2963C133.973 39.1607 133.179 36.8165 132.791 34.3978C131.485 26.2131 129.767 18.371 127.422 11.0355C125.878 6.21308 125.52 4.7728 120.698 2.76137C116.501 1.01317 111.798 0.238403 106.697 0.238403C104.507 0.238403 102.242 0.382432 99.9131 0.650622" fill="white"></path>
  </mask>
  <g mask="url(#mask2_219_172)">
    <path d="M123.123 -25.3086L43.8091 8.35809L73.781 78.9675L153.095 45.3008L123.123 -25.3086Z" fill="url(#paint2_radial_219_172)"></path>
  </g>
  <mask id="mask3_219_172" style="mask-type:luminance" maskUnits="userSpaceOnUse" x="63" y="33" width="71" height="20">
    <path d="M131.341 35.4358C126.22 40.8046 107.889 41.9022 98.448 41.8773C88.0978 41.8475 72.4286 41.3509 65.2818 37.9936C64.373 37.5664 63.7074 37.1691 63.2207 36.7569C63.1214 39.3544 63.0966 41.9767 63.1462 44.6337C63.2158 48.2344 63.0668 49.5158 66.9108 50.8468C74.3705 53.4244 90.0049 52.2573 100.3 51.1895C109.692 50.2161 127.8 47.1815 132.324 41.3012C133.968 39.1656 133.174 36.8215 132.786 34.4028C132.717 33.9558 132.642 33.5138 132.568 33.0718C132.399 33.9111 132.036 34.7107 131.341 35.4408" fill="white"></path>
  </mask>
  <g mask="url(#mask3_219_172)">
    <path d="M123.143 7.56033L55.7477 36.168L73.8919 78.9131L141.287 50.3054L123.143 7.56033Z" fill="url(#paint3_linear_219_172)"></path>
  </g>
  <mask id="mask4_219_172" style="mask-type:luminance" maskUnits="userSpaceOnUse" x="75" y="4" width="38" height="26">
    <path d="M81.1845 8.93963C74.0576 12.9327 73.2729 15.4805 78.0855 22.1008C85.0187 31.6315 98.895 31.0901 107.676 22.6521C114.902 15.7089 113.953 13.2307 105.883 8.38339C101.91 5.99451 98.1451 4.92175 94.4152 4.92175C90.0596 4.92175 85.7438 6.38686 81.1845 8.9446" fill="white"></path>
  </mask>
  <g mask="url(#mask4_219_172)">
    <path d="M108.547 -10.0584L63.6622 8.99396L79.6253 46.6005L124.51 27.5481L108.547 -10.0584Z" fill="url(#paint4_radial_219_172)"></path>
  </g>
  <mask id="mask5_219_172" style="mask-type:luminance" maskUnits="userSpaceOnUse" x="63" y="33" width="71" height="20">
    <path d="M131.341 35.4358C126.22 40.8046 107.889 41.9022 98.448 41.8773C88.0978 41.8475 72.4286 41.3509 65.2818 37.9936C64.373 37.5664 63.7074 37.1691 63.2207 36.7569C63.1214 39.3544 63.0966 41.9767 63.1462 44.6337C63.2158 48.2344 63.0668 49.5158 66.9108 50.8468C74.3705 53.4244 90.0049 52.2573 100.3 51.1895C109.692 50.2161 127.8 47.1815 132.324 41.3012C133.968 39.1656 133.174 36.8215 132.786 34.4028C132.717 33.9558 132.642 33.5138 132.568 33.0718C132.399 33.9111 132.036 34.7107 131.341 35.4408" fill="white"></path>
  </mask>
  <g mask="url(#mask5_219_172)">
    <path d="M123.143 7.56033L55.7477 36.168L73.8919 78.9131L141.287 50.3054L123.143 7.56033Z" fill="url(#paint5_linear_219_172)"></path>
  </g>
  <defs>
    <radialGradient id="paint0_radial_219_172" cx="0" cy="0" r="1" gradientUnits="userSpaceOnUse" gradientTransform="translate(50.1285 36.8843) rotate(157) scale(139.131 139.131)">
      <stop stop-color="white"></stop>
      <stop offset="0.26" stop-color="#F6F6F7"></stop>
      <stop offset="0.31" stop-color="#F1F1F2"></stop>
      <stop offset="0.36" stop-color="#E2E2E3"></stop>
      <stop offset="0.42" stop-color="#CBCACB"></stop>
      <stop offset="0.45" stop-color="#BCBBBC"></stop>
      <stop offset="0.58" stop-color="#BCBBBC"></stop>
      <stop offset="0.63" stop-color="#D1D0D1"></stop>
      <stop offset="0.7" stop-color="#E5E4E5"></stop>
      <stop offset="0.76" stop-color="#F1F0F1"></stop>
      <stop offset="0.83" stop-color="#F5F4F5"></stop>
      <stop offset="1" stop-color="#F5F4F5"></stop>
    </radialGradient>
    <radialGradient id="paint1_radial_219_172" cx="0" cy="0" r="1" gradientUnits="userSpaceOnUse" gradientTransform="translate(12.7505 -24.0204) rotate(157) scale(178.53 178.53)">
      <stop stop-color="white"></stop>
      <stop offset="0.26" stop-color="#F6F6F7"></stop>
      <stop offset="0.31" stop-color="#F1F1F2"></stop>
      <stop offset="0.36" stop-color="#E2E2E3"></stop>
      <stop offset="0.42" stop-color="#CBCACB"></stop>
      <stop offset="0.45" stop-color="#BCBBBC"></stop>
      <stop offset="0.58" stop-color="#BCBBBC"></stop>
      <stop offset="0.63" stop-color="#D1D0D1"></stop>
      <stop offset="0.7" stop-color="#E5E4E5"></stop>
      <stop offset="0.76" stop-color="#F1F0F1"></stop>
      <stop offset="0.83" stop-color="#F5F4F5"></stop>
      <stop offset="1" stop-color="#F5F4F5"></stop>
    </radialGradient>
    <radialGradient id="paint2_radial_219_172" cx="0" cy="0" r="1" gradientUnits="userSpaceOnUse" gradientTransform="translate(179.768 89.7266) rotate(157) scale(158.674)">
      <stop stop-color="white"></stop>
      <stop offset="0.26" stop-color="#F6F6F7"></stop>
      <stop offset="0.31" stop-color="#F1F1F2"></stop>
      <stop offset="0.36" stop-color="#E2E2E3"></stop>
      <stop offset="0.42" stop-color="#CBCACB"></stop>
      <stop offset="0.45" stop-color="#BCBBBC"></stop>
      <stop offset="0.58" stop-color="#BCBBBC"></stop>
      <stop offset="0.63" stop-color="#D1D0D1"></stop>
      <stop offset="0.7" stop-color="#E5E4E5"></stop>
      <stop offset="0.76" stop-color="#F1F0F1"></stop>
      <stop offset="0.83" stop-color="#F5F4F5"></stop>
      <stop offset="1" stop-color="#F5F4F5"></stop>
    </radialGradient>
    <linearGradient id="paint3_linear_219_172" x1="131.459" y1="28.5771" x2="67.4415" y2="55.7508" gradientUnits="userSpaceOnUse">
      <stop stop-color="#171617"></stop>
      <stop offset="0.13" stop-color="#202021"></stop>
      <stop offset="0.15" stop-color="#232324"></stop>
      <stop offset="0.28" stop-color="#303134"></stop>
      <stop offset="0.41" stop-color="#1B1C1C"></stop>
      <stop offset="0.58" stop-color="#2D2F32"></stop>
      <stop offset="0.59" stop-color="#2F3135"></stop>
      <stop offset="0.74" stop-color="#35373B"></stop>
      <stop offset="0.92" stop-color="#262C30"></stop>
      <stop offset="1" stop-color="#1B1C1C"></stop>
    </linearGradient>
    <radialGradient id="paint4_radial_219_172" cx="0" cy="0" r="1" gradientUnits="userSpaceOnUse" gradientTransform="translate(108.593 45.4579) rotate(157) scale(114.015 114.015)">
      <stop stop-color="white"></stop>
      <stop offset="0.26" stop-color="#F6F6F7"></stop>
      <stop offset="0.31" stop-color="#F1F1F2"></stop>
      <stop offset="0.36" stop-color="#E2E2E3"></stop>
      <stop offset="0.42" stop-color="#CBCACB"></stop>
      <stop offset="0.45" stop-color="#BCBBBC"></stop>
      <stop offset="0.58" stop-color="#BCBBBC"></stop>
      <stop offset="0.63" stop-color="#D1D0D1"></stop>
      <stop offset="0.7" stop-color="#E5E4E5"></stop>
      <stop offset="0.76" stop-color="#F1F0F1"></stop>
      <stop offset="0.83" stop-color="#F5F4F5"></stop>
      <stop offset="1" stop-color="#F5F4F5"></stop>
    </radialGradient>
    <linearGradient id="paint5_linear_219_172" x1="131.459" y1="28.5771" x2="67.4415" y2="55.7508" gradientUnits="userSpaceOnUse">
      <stop stop-color="#171617"></stop>
      <stop offset="0.13" stop-color="#202021"></stop>
      <stop offset="0.15" stop-color="#232324"></stop>
      <stop offset="0.28" stop-color="#303134"></stop>
      <stop offset="0.41" stop-color="#1B1C1C"></stop>
      <stop offset="0.58" stop-color="#2D2F32"></stop>
      <stop offset="0.59" stop-color="#2F3135"></stop>
      <stop offset="0.74" stop-color="#35373B"></stop>
      <stop offset="0.92" stop-color="#262C30"></stop>
      <stop offset="1" stop-color="#1B1C1C"></stop>
    </linearGradient>
  </defs>
</svg>
