<?xml version="1.0" encoding="UTF-8"?><svg id="a" xmlns="http://www.w3.org/2000/svg" xmlns:xlink="http://www.w3.org/1999/xlink" viewBox="0 0 600 124.29"><defs><style>.c{fill:url(#b);}.d{fill:#fff;}</style><linearGradient id="b" x1="284.38" y1="-1855.33" x2="310.08" y2="-1672.48" gradientTransform="translate(0 1833)" gradientUnits="userSpaceOnUse"><stop offset=".01" stop-color="#bca979"/><stop offset=".71" stop-color="#fce1a4"/></linearGradient></defs><path class="d" d="M462.3,18.97h24.88V105.39h-24.88V18.97Zm82.06,86.42h41.9v-26.63h-17.02V18.97h-24.88V105.39Zm-48.45,0h42.34v-26.63h-17.02V18.97h-25.32V105.39ZM428.25,18.97v30.55h-12.22V18.97h-24.44V105.39h24.44v-34.05h12.22v34.05h24.88V18.97h-24.88Z"/><path class="c" d="M234.45,105.39c4.8,0,9.6-2.62,17.46-10.91-2.18,6.55,.44,10.91,6.11,10.91,6.11,0,11.35-6.55,17.02-13.53l23.57-28.81c5.24-6.11,8.73-10.04,13.09-10.04,3.93,0,3.06,4.36-2.18,10.91-4.36,5.67-31.86,40.16-31.86,40.16h10.91l28.37-37.1c8.73-10.91,14.4-14.4,17.46-14.4,1.75,0,2.18,1.31,2.18,2.62,0,3.49-2.62,6.55-10.48,16.15l-25.75,32.3h11.35l28.37-36.66c10.48-13.97,14.4-14.4,16.59-14.4,1.75,0,2.18,1.31,2.18,2.62,0,8.29-23.57,25.75-23.57,41.03,0,4.8,3.49,8.73,10.04,8.73,18.33,0,37.1-39.72,37.1-61.11,0-17.9-10.48-26.63-22.26-26.63-17.02,0-23.57,9.6-23.57,16.59,0,6.11,3.06,9.17,9.17,9.17,8.29,0,13.97-9.6,13.97-12.22q0-.44-.44-.87c-3.06,7.42-8.29,10.04-12.22,10.04-4.36,0-6.98-2.62-6.98-6.98,0-4.8,5.24-13.53,19.21-13.53,12.66,0,20.08,8.29,20.08,24.44,0,27.94-18.77,57.18-32.3,57.18-3.06,0-3.93-1.75-3.93-3.49,0-4.8,7.42-11.79,13.53-20.95,4.8-7.42,9.6-14.4,9.6-20.95,0-5.24-2.18-7.86-6.11-7.86s-8.73,3.06-17.02,11.79c1.31-5.24,1.75-11.79-4.8-11.79-3.49,0-9.6,2.62-18.33,12.66,2.62-7.86,0-12.66-5.24-12.66-5.67,0-9.17,3.93-13.53,9.17l-20.95,25.32c-7.86,9.17-14.84,19.21-19.21,19.21-3.06,0-4.36-4.36,.87-10.48l33.61-42.34h-12.22l-3.49,4.8c-.44-3.06-2.62-4.36-5.24-4.36-8.73,0-20.08,6.55-28.37,14.4-6.98,6.98-13.09,17.02-15.71,24.44-4.36,5.67-11.79,14.4-17.02,14.4-3.49,0-4.36-4.36,.44-10.48l33.61-42.34h-12.22s-13.97,19.21-23.13,31.86c-2.62,3.06-10.04,13.09-12.66,15.28-3.93,3.93-7.42,5.67-9.6,5.67-3.49,0-4.36-4.36,.44-10.48,4.36-5.67,52.81-66.35,52.81-66.35h-12.22s-30.99,41.03-42.34,55.87c-2.62,3.06-10.04,13.09-12.66,15.28-3.93,3.93-7.42,5.67-9.6,5.67-3.49,0-4.36-4.36,.44-10.48,3.49-5.24,51.94-65.91,51.94-65.91h-12.22s-34.92,45.83-44.08,58.05v.44s0,.44-.44,.44c-3.06,4.36-13.09,17.9-19.64,17.9-3.49,0-4.36-4.36,.44-10.48l33.61-42.34h-12.22s-16.15,21.82-24.88,34.48c-8.73,12.66-5.24,21.39,2.62,21.39,6.98,0,11.79-5.24,15.71-10.04-.87,6.11,2.62,10.04,7.86,10.04,6.98,0,11.79-5.24,15.71-10.04-.87,6.11,2.62,10.04,7.86,10.04,7.42,0,12.22-5.67,16.15-10.04-.87,6.11,2.62,10.04,7.86,10.04,6.11,0,11.79-5.67,15.71-10.04-.87,3.93,0,9.6,5.67,9.6Zm23.57-43.21c7.86-7.86,12.22-8.73,13.97-8.73s2.18,.87,2.18,3.06c0,6.11-20.95,32.74-26.19,37.97-2.62,2.62-7.86,6.98-11.79,6.98-8.29,0,6.98-24.44,21.82-39.28Zm-67.66-30.55c1.31-3.49-.44-6.55-3.93-6.55s-6.98,3.06-8.29,6.55,.44,6.55,3.93,6.55c3.06,0,6.98-2.62,8.29-6.55Zm62.85,6.55c3.49,0,6.98-3.06,8.29-6.55s-.44-6.55-3.93-6.55-6.98,3.06-8.29,6.55c-1.31,3.93,.44,6.55,3.93,6.55ZM70.34,118.92c-21.82,0-34.92-13.53-37.97-31.43,1.31,.44,2.18,.44,3.49,.44,2.62,0,6.55-.44,10.91-2.62,1.75,1.31,4.36,2.18,7.42,2.18,22.7,0,39.72-42.78,25.32-55,12.22-5.67,24.88-7.42,34.05-2.18-2.18,1.75-4.36,3.49-6.55,5.67-17.46,17.46-25.32,52.81-38.85,66.78-1.31-.44-3.06-.87-4.8-.87-2.62,0-4.8,1.31-5.24,2.62s1.31,2.62,3.93,2.62c2.18,0,3.93-.44,6.55-2.18,1.31,0,2.62,.44,4.36,.44,5.24,0,10.48-2.18,16.15-8.29,15.28-15.28,28.37-47.14,37.1-53.25-8.29,13.97-17.46,45.83-29.68,58.93-1.31-.44-2.62-.87-4.8-.87-2.62,0-4.8,1.31-5.24,2.62-.44,1.31,1.31,2.62,3.93,2.62,2.18,0,3.93-.44,6.98-2.18,1.31,.44,3.06,.87,4.8,.87,4.36,0,9.6-2.62,13.97-6.98,16.15-16.15,36.66-49.32,53.69-66.35,6.98-6.11,17.9-14.84,32.74-14.84,13.53,0,22.26,8.29,22.26,8.29,.44-.44,0-.87-.44-1.75-7.42-7.42-16.15-10.48-24.01-10.48s-21.39,2.62-37.54,18.77c-17.46,17.46-37.1,51.94-49.76,65.04-5.24,5.24-8.73,6.55-11.79,6.55-.87,0-1.31,0-2.18-.44,2.18-1.75,4.8-3.93,7.86-6.98,20.95-20.95,25.75-59.8,37.54-71.58-.87-.87-6.55,.44-16.59,10.48-16.15,16.15-25.75,44.96-41.47,60.67-5.24,5.24-10.48,6.98-13.53,6.98-.87,0-1.31,0-2.18-.44,2.18-1.75,4.36-3.49,7.42-6.55,11.79-11.79,24.44-47.58,38.41-65.04,15.28-.87,15.28-8.29,10.48-8.29-2.62,0-6.98,1.75-10.91,4.36-3.93-3.49-10.48-6.11-19.64-6.11s-18.77,2.62-27.06,6.98c-17.9,0-42.34,18.77-42.34,50.2v2.62c-4.36-2.62-7.86-7.86-7.86-16.59,0-25.32,38.85-56.31,84.24-56.31,18.33,0,36.66,6.11,48.45,14.4l.87-.87c-6.98-6.98-24.44-18.33-54.56-18.33C58.99,3.25,15.34,26.39,15.34,63.93c0,10.04,6.11,17.02,12.22,20.08,2.62,22.7,21.39,36.23,40.59,36.23H585.39v-3.06l-515.05,1.75Zm6.11-85.11c15.71,10.04-1.75,51.07-21.39,51.07-2.18,0-3.93-.44-5.24-1.31,6.55-4.36,13.09-12.22,17.46-27.06l-.87-.44c-3.06,10.04-10.04,20.51-18.33,25.75-2.18-3.06-3.06-6.98-3.06-11.35-.44-12.22,14.4-27.94,31.43-36.66ZM31.49,78.77c0-20.08,17.02-43.65,33.61-46.27-14.4,9.6-24.44,24.44-24.44,37.54,0,5.24,1.31,10.48,3.93,13.97-2.62,1.31-5.67,2.18-8.29,2.18-1.31,0-3.06-.44-4.8-.87v-6.55Z"/></svg>