<?xml version="1.0" encoding="UTF-8"?><svg id="Layer_2" xmlns="http://www.w3.org/2000/svg" viewBox="0 0 1144.12 226.77"><defs><style>.cls-1{fill:#e60013;}</style></defs><g id="_图层_1"><path class="cls-1" d="M216.2,88.86h18.58v48.02h-28.62l-18.79,89.89h-42.07l-18.6-89.89h-17.52l-19.09,89.89h-41.87l-19.12-89.89H0v-48.02h18.9L0,0h47.82l16.28,88.86h16.13L97.07,0h41.87l16.5,88.86h15.51L189.01,0h45.76l-18.58,88.86ZM298.6,0h-46.18v226.77h46.18V0ZM410.04,0v88.86h-10.49L363.04,0h-46.18v226.77h46.18v-89.89h10.06l36.93,89.89h46.18V0h-46.18ZM616.1,226.77h-44.48l-7.62-41.56h-42.31l-7.62,41.56h-44.48L513.88,0h57.95l44.28,226.77ZM555.15,136.88l-8.8-48.02h-6.99l-8.8,48.02h24.59ZM977.3,226.77h-44.48l-7.62-41.56h-42.31l-7.62,41.56h-44.48L875.07,0h57.95l44.28,226.77ZM916.34,136.88l-8.8-48.02h-6.99l-8.8,48.02h24.59ZM777.2,0h-23.39l-20.43,88.86h-19.51L693.45,0h-62.8v226.77h40.94v-89.89h17.7l20.99,89.89h26.7l20.99-89.89h17.7v89.89h40.94V0h-39.41ZM1144.12,0h-50.95l-27.46,73.67L1038.02,0h-50.95l45.92,113.39-45.92,113.39h50.95l27.69-73.67,27.46,73.67h50.95l-45.57-113.39L1144.12,0Z"/></g></svg>