<?xml version="1.0" encoding="UTF-8"?>
<svg id="Layer_1" xmlns="http://www.w3.org/2000/svg" version="1.1" viewBox="0 0 738 76">
  <!-- Generator: Adobe Illustrator 30.1.0, SVG Export Plug-In . SVG Version: 2.1.1 Build 136)  -->
  <defs>
    <style>
      .st0 {
        fill: #fff;
      }
    </style>
  </defs>
  <path class="st0" d="M614.8,17.6c-2.7,2.3-5.2,4.9-7.5,7.5,11.2,11.2,19.2,28.3,21.9,48.1h10.7c-2.2-17.5-8.2-33.6-17.4-46.4-2.4-3.4-5-6.5-7.8-9.2Z"/>
  <path class="st0" d="M601.8,32.6c-2.1,3.1-3.9,6.4-5.5,9.9,6.4,8,11.1,18.6,13.2,30.8h10.8c-2-13-6.7-25-13.7-34.8-1.5-2.1-3.1-4.1-4.8-5.9Z"/>
  <path class="st0" d="M589.6,73.3h10.8c-1.6-7.4-4.3-14.3-8-20.2-1.8,6.4-2.8,13.2-2.8,20.2Z"/>
  <path class="st0" d="M706.9,13.2c-1.4-1-2.8-2-4.3-2.9-.7.7-1.3,1.4-2,2.1-8.6,9.5-18.3,24.2-23.5,44.7-1.6-8.3-3.8-16.3-6.6-23.9,5.6-12.5,12.6-22.2,19-29.4-1.7-.6-3.5-1.2-5.3-1.7-5.5,6.4-11.3,14.6-16.3,24.6-3.6-8.4-8-16.2-13.1-23.3-.8-1.2-1.7-2.3-2.5-3.4-3.9.6-7.8,1.5-11.5,2.7,8.9,10.3,16.1,23.3,21.1,38.2-1.8,5.2-3.4,10.9-4.6,16.9-3.5-15.9-9.8-30.6-18.5-42.7-2.2-3.1-4.6-6-7.1-8.7-3.3,1.6-6.5,3.4-9.5,5.4,14,14.2,24,36.1,26.8,61.3h11.1c.8-8.5,2.4-16.4,4.4-23.5,2,7.5,3.4,15.4,4.1,23.5h10.7c3.2-27.6,14.9-46.2,25-57.4.8-.9,1.7-1.8,2.5-2.7Z"/>
  <path class="st0" d="M720.8,26.3c-1.1-1.3-2.2-2.6-3.4-3.9-11.4,11.7-20.9,28.6-23.9,50.8h5.2c3-21.5,12.4-36.2,20.5-45.2.6-.6,1.1-1.2,1.7-1.8Z"/>
  <path class="st0" d="M712.8,73.3h5.2c2.4-13.4,7.9-23.1,13.3-29.9-.8-1.7-1.6-3.4-2.5-5.1-7.4,8.7-13.5,20.3-16,35Z"/>
  <path class="st0" d="M737,61.3c-1.9,3.6-3.5,7.6-4.6,12h5.6c0-4.1-.4-8.1-1-12Z"/>
  <path class="st0" d="M269.8,2.1h-16v71.1h43.8v-14h-27.9V2.1Z"/>
  <path class="st0" d="M386,2.1h-5.8v71.1h38.2v-5.2h-32.4V2.1Z"/>
  <path class="st0" d="M425.1,73.3h5.8V2.1h-5.8v71.1Z"/>
  <path class="st0" d="M524.2,68.1v-28.7h31.4v-5.1h-31.4V7.3h33.8V2.1h-39.6v71.1h40.7v-5.2h-35Z"/>
  <path class="st0" d="M499.2,68.1h-1.2L456.8,2.1h-10.4v71.1h5.8V7.3h1.4l41.2,65.9h10.2V2.1h-5.8v65.9Z"/>
  <path class="st0" d="M72.2,59.2h-1.2L59.2,4.1h-16.6l-10.5,55.1h-1.5L16.4,2.1H0l17.5,71.1h24.5l8.8-43.3,9.5,43.3h25L100.9,2.1h-16.4l-12.3,57.1Z"/>
  <path class="st0" d="M359.6,12.1c-7.6-7.4-17.5-10.6-28.9-10.5h-26.4v72.1h26.4c6.4,0,12-1,16.9-3,9.1-3.7,15.9-10.6,19.3-19.3,1.9-4.8,2.5-9.8,2.4-14.9,0-9.1-3.1-17.9-9.6-24.4ZM351.1,47.2c-2,5.3-5.8,9-11.1,11-2.7,1-5.7,1.5-9.1,1.5h-10.7V15.5h10.7c3.4,0,6.4.5,9.1,1.4,5.3,1.8,9,5.5,11.1,10.7,2,5.5,2,13.9,0,19.5Z"/>
  <path class="st0" d="M155.7,3.2c-9.1-4.2-23.9-4.2-33,0-9,4-15.8,11.2-19.1,20.2-1.9,5-2.5,10.1-2.4,15.2.1,13.6,8.3,27.3,21.2,33.2,9.1,4.6,24.5,4.5,33.6,0,12.9-5.9,21.1-19.6,21.2-33.2.4-9.7-2.9-19.7-9.6-27-3.2-3.5-7.1-6.3-11.9-8.4ZM139.2,60.7c-13.5,0-21.3-10.7-21.3-23s7.3-23,21.3-23,21.3,8.2,21.3,23-7.9,23-21.3,23Z"/>
  <path class="st0" d="M238.7,40.1c2.6-3.7,3.8-9.2,3.6-14.7,0-5.3-1.2-9.7-3.5-13.2-5.5-8.2-15.2-10.6-25.4-10.7h-28v71.7h16v-22c.3,0,11.8,0,12.1,0l15.1,22h18.5l-18.2-25.5c4.2-1.7,7.5-4.3,9.8-7.7ZM224.2,32.5c-2.1,3.7-5.7,5.4-10,5.4h-12.8V15.5h12.8c2.3,0,4.4,0,6,1,1.7.9,3,2.3,4,4,1.9,3.3,2,8.6,0,12Z"/>
</svg>